<?xml version="1.0" encoding="utf-8"?>
<!-- Generator: Adobe Illustrator 22.0.1, SVG Export Plug-In . SVG Version: 6.00 Build 0)  -->
<svg version="1.1" id="レイヤー_1" xmlns="http://www.w3.org/2000/svg" xmlns:xlink="http://www.w3.org/1999/xlink" x="0px"
	 y="0px" viewBox="0 0 500 500" style="enable-background:new 0 0 500 500;" xml:space="preserve">
<style type="text/css">
	.st0{fill:#FFFFFF;}
	.st1{display:none;}
	.st2{display:inline;fill:#333333;}
	.st3{display:inline;}
	.st4{fill:#333333;}
</style>
<circle class="st0" cx="250" cy="250" r="243.9"/>
<g id="レイヤー_1_1_">
</g>
<g id="レイヤー_6" class="st1">
	<path class="st2" d="M435,137.1c-13.6,6.1-28.2,10.2-43.5,11.9c15.6-9.4,27.7-24.2,33.4-42c-14.6,8.7-30.9,15-48.2,18.4
		c-13.9-14.8-33.6-23.9-55.4-23.9c-41.9,0-75.9,34-75.9,75.9c0,5.9,0.7,11.7,2,17.2c-63.1-3.2-119-33.3-156.5-79.3
		c-6.5,11.2-10.3,24.3-10.3,38.1c0,26.4,13.4,49.7,33.8,63.2c-12.4-0.4-24.2-3.8-34.4-9.5c0,0.3,0,0.7,0,1
		c0,36.8,26.1,67.4,60.9,74.4c-6.3,1.8-13.1,2.6-20,2.6c-4.9,0-9.6-0.5-14.3-1.3c9.7,30.2,37.7,52.1,70.9,52.7
		c-25.9,20.3-58.7,32.5-94.3,32.5c-6.1,0-12.2-0.3-18.1-1.1c33.6,21.6,73.5,34.1,116.4,34.1c139.6,0,216-115.7,216-216
		c0-3.4-0.1-6.6-0.3-9.9C412,165.8,424.8,152.4,435,137.1z"/>
</g>
<g id="レイヤー_5" class="st1">
	<g class="st3">
		<g>
			<path class="st4" d="M164.8,221.2v59.1c0,0,57.4-0.1,80.8-0.1c-12.7,38.4-32.4,59.3-80.8,59.3c-49,0-87.3-39.8-87.3-88.8
				c0-49.1,38.3-88.8,87.3-88.8c25.9,0,42.6,9.1,58,21.7c12.4-12.2,11.3-14,42.6-43.5c-26.6-24.2-61.9-38.9-100.6-38.9
				c-82.6,0-149.5,66.9-149.5,149.5c0,82.5,66.9,149.5,149.5,149.5c123.3,0,153.5-107.5,143.5-179
				C279.1,221.2,164.8,221.2,164.8,221.2z M434.1,224.1v-51.8h-36.9v51.8h-53.3V261h53.3v53.3h36.9V261h51.8v-36.9H434.1z"/>
		</g>
	</g>
</g>
<g>
	<path d="M118.5,403.8V96.2h148.6c68.8,0,103.1,26.5,103.1,79.2c0,19-5.2,34.1-15.8,45.3c-10.6,11.1-26.6,19.1-48,23.9v0.9
		c21.9,1.6,39.8,8.3,53.9,20.2s21.2,28.7,21.2,50.3c0,15.4-2.9,28.8-8.5,40.2c-5.6,11.2-13.9,20.3-24.4,27.3
		c-10.7,6.8-23.6,11.9-38.7,15.3c-15.1,3.3-32.8,5-52.9,5L118.5,403.8L118.5,403.8z M190.9,153.5v63.8h63.4
		c26.5,0,39.7-10.6,39.7-32c0-12.2-3.2-20.6-9.6-25.1c-6.3-4.6-16.3-6.7-30-6.7H190.9L190.9,153.5z M191.9,274.1v72.8H254
		c18.5,0,31.5-3.2,39.4-9.6c7.8-6.4,11.7-15.2,11.7-26.2c0-8.7-1.2-15.8-3.6-21.3c-2.5-5.5-6.4-9.3-11.8-11.9s-12.8-3.7-22.2-3.7
		h-75.6V274.1z"/>
</g>
<g id="レイヤー_3" class="st1">
	<g class="st3">
		<path class="st4" d="M312.1,401h-125c-48.4,0-87.9-39.5-87.9-87.9v-125c0-48.6,39.5-88,87.9-88h125c48.6,0,88,39.5,88,88v125
			C400.1,361.5,360.7,401,312.1,401z M187.1,128.1c-33,0-59.8,26.9-59.8,60v125c0,33,26.8,59.8,59.8,59.8h125
			c33.1,0,60-26.8,60-59.8v-125c0-33.1-26.9-60-60-60H187.1L187.1,128.1z"/>
		<path class="st4" d="M348.8,170.3c0,10.4-8.4,18.7-18.7,18.7c-10.4,0-18.8-8.3-18.8-18.7s8.4-18.8,18.8-18.8
			C340.4,151.5,348.8,159.9,348.8,170.3z"/>
		<path class="st4" d="M249.6,328.3c-42.9,0-77.7-34.9-77.7-77.7c0-42.9,34.9-77.8,77.7-77.8c42.9,0,77.8,34.8,77.8,77.8
			C327.4,293.5,292.6,328.3,249.6,328.3z M249.6,200.8c-27.4,0-49.7,22.3-49.7,49.8c0,27.4,22.3,49.7,49.7,49.7
			c27.5,0,49.8-22.3,49.8-49.7C299.4,223.1,277.1,200.8,249.6,200.8z"/>
	</g>
</g>
<g id="レイヤー_2_1_" class="st1">
	<path class="st2" d="M320.8,199h-47c0-14.8,0-25.2,0-28.6c0-17,8.8-18.7,14.8-18.7s32.1,0,32.1,0V99.9c0,0-6.3,0-47.2,0
		c-55.4,0-63.6,40.6-63.6,67c0,4.5,0,16.2,0,32.1h-30.3v52.3H210c0,67.8,0,150.8,0,150.8h63.9c0,0,0-83.8,0-150.8h41.7L320.8,199z"
		/>
</g>
</svg>
