<?xml version="1.0" encoding="utf-8"?>
<!-- Generator: Adobe Illustrator 22.0.1, SVG Export Plug-In . SVG Version: 6.00 Build 0)  -->
<svg version="1.1" id="レイヤー_1" xmlns="http://www.w3.org/2000/svg" xmlns:xlink="http://www.w3.org/1999/xlink" x="0px"
	 y="0px" viewBox="0 0 500 500" style="enable-background:new 0 0 500 500;" xml:space="preserve">
<style type="text/css">
	.st0{display:none;}
	.st1{display:inline;fill:#333333;}
	.st2{display:inline;}
	.st3{fill:#333333;}
	.st4{clip-path:url(#SVGID_2_);}
	.st5{fill:url(#SVGID_3_);}
	.st6{fill:url(#SVGID_4_);}
	.st7{clip-path:url(#SVGID_6_);}
	.st8{fill:url(#SVGID_7_);}
	.st9{fill:url(#SVGID_8_);}
	.st10{clip-path:url(#SVGID_10_);}
	.st11{fill:url(#SVGID_11_);}
	.st12{fill:url(#SVGID_12_);}
</style>
<g id="レイヤー_1_1_">
</g>
<g id="レイヤー_6" class="st0">
	<path class="st1" d="M435,137.1c-13.6,6.1-28.2,10.2-43.6,11.9c15.6-9.4,27.7-24.2,33.4-42c-14.6,8.7-30.9,15-48.2,18.4
		c-13.9-14.8-33.6-23.9-55.4-23.9c-41.9,0-75.9,34-75.9,75.9c0,5.9,0.7,11.7,2,17.2c-63.1-3.2-119-33.3-156.5-79.3
		c-6.5,11.2-10.3,24.3-10.3,38.1c0,26.4,13.4,49.7,33.8,63.2c-12.4-0.4-24.2-3.8-34.4-9.5c0,0.3,0,0.7,0,1
		c0,36.8,26.1,67.4,60.9,74.4c-6.3,1.8-13.1,2.6-20,2.6c-4.9,0-9.6-0.5-14.3-1.3c9.7,30.2,37.7,52.1,70.9,52.7
		c-25.9,20.3-58.7,32.5-94.3,32.5c-6.1,0-12.2-0.3-18.1-1.1c33.6,21.6,73.5,34.1,116.4,34.1c139.6,0,216-115.7,216-216
		c0-3.4-0.1-6.6-0.3-9.9C412,165.8,424.8,152.4,435,137.1z"/>
</g>
<g id="レイヤー_5" class="st0">
	<g class="st2">
		<g>
			<path class="st3" d="M164.8,221.2v59.1c0,0,57.4-0.1,80.8-0.1c-12.7,38.4-32.4,59.3-80.8,59.3c-49,0-87.3-39.8-87.3-88.8
				c0-49.1,38.3-88.8,87.3-88.8c25.9,0,42.6,9.1,58,21.7c12.4-12.2,11.3-14,42.6-43.5c-26.6-24.2-61.9-38.9-100.6-38.9
				c-82.6,0-149.5,66.9-149.5,149.5c0,82.5,66.9,149.5,149.5,149.5c123.3,0,153.5-107.5,143.5-179
				C279.1,221.2,164.8,221.2,164.8,221.2z M434.1,224.1v-51.8h-36.9v51.8h-53.3V261h53.3v53.3h36.9V261h51.8v-36.9H434.1
				L434.1,224.1z"/>
		</g>
	</g>
</g>
<g id="レイヤー_4" class="st0">
	<g class="st2">
		<g>
			<path class="st3" d="M168.9,289.4V99.6h91.7c42.4,0,63.6,16.3,63.6,48.9c0,11.7-3.2,21-9.7,28c-6.6,6.9-16.4,11.8-29.6,14.7v0.6
				c13.5,1,24.6,5.1,33.2,12.5c8.7,7.4,13.1,17.7,13.1,31c0,9.5-1.8,17.8-5.2,24.8c-3.5,6.9-8.6,12.5-15.1,16.8
				c-6.6,4.2-14.5,7.4-23.9,9.4c-9.3,2-20.2,3.1-32.7,3.1H168.9L168.9,289.4z M213.6,134.9v39.4h39.1c16.3,0,24.5-6.6,24.5-19.8
				c0-7.5-1.9-12.7-5.9-15.5c-3.9-2.8-10.1-4.1-18.5-4.1L213.6,134.9L213.6,134.9z M214.3,209.4v44.9h38.3c11.4,0,19.5-1.9,24.3-5.9
				c4.8-3.9,7.2-9.4,7.2-16.2c0-5.4-0.8-9.8-2.3-13.2s-3.9-5.7-7.3-7.3c-3.3-1.6-7.9-2.3-13.7-2.3H214.3z"/>
		</g>
		<g>
			<path class="st3" d="M169.6,381.1v-66.4h7.6V342h0.1c1.6-2.3,3.6-3.9,6-5.1c2.4-1.1,5.1-1.6,8.1-1.6c3.7,0,6.8,0.6,9.6,1.9
				c2.7,1.2,4.9,2.9,6.6,5.2c1.6,2.2,2.9,4.7,3.7,7.4c0.8,2.8,1.2,5.8,1.2,9c0,4.3-0.8,8.2-2.1,11.7c-1.4,3.5-3.8,6.4-7,8.6
				c-3.2,2.1-7.4,3.2-12.6,3.2c-1.7,0-3.4-0.3-5.2-0.8c-1.7-0.5-3.2-1.2-4.8-2.2c-1.4-1-2.6-2.2-3.6-3.5h0.1h-0.1v5.3H169.6
				L169.6,381.1L169.6,381.1L169.6,381.1z M204.5,358.8c0-4.8-1.2-8.9-3.4-12.1c-2.3-3.2-5.7-4.8-10.3-4.8c-2.8,0-5.3,0.8-7.3,2.4
				c-2.1,1.5-3.7,3.6-4.8,6.2s-1.6,5.4-1.6,8.3c0,4.9,1.1,8.9,3.4,12.1c2.3,3.2,5.7,4.8,10.3,4.8c4.7,0,8.1-1.6,10.3-4.8
				C203.3,367.7,204.5,363.6,204.5,358.8z"/>
			<path class="st3" d="M221.3,381.1v-66.4h7.6v66.4H221.3z"/>
			<path class="st3" d="M237.8,358.8c0-4.5,0.9-8.5,2.6-12.1c1.7-3.6,4.3-6.4,7.5-8.5c3.2-1.9,7.1-2.9,11.5-2.9c3.3,0,6.2,0.6,9,1.6
				c2.7,1.2,5,2.9,6.9,4.9c1.9,2.1,3.4,4.6,4.3,7.5c0.9,2.8,1.5,5.9,1.5,9.4c0,3.3-0.6,6.5-1.5,9.3s-2.4,5.3-4.3,7.4
				c-1.9,2.2-4.2,3.8-6.9,4.9c-2.8,1.2-5.7,1.8-9,1.8c-3.2,0-6.2-0.6-8.9-1.7s-5-2.8-6.9-5c-2-2.2-3.4-4.7-4.5-7.4
				C238.2,365.3,237.8,362.2,237.8,358.8z M245.8,358.8c0,2.9,0.4,5.6,1.2,8.2c0.8,2.7,2.2,4.8,4.3,6.7c2,1.7,4.7,2.6,8,2.6
				s6-0.9,8-2.6c2-1.8,3.5-4,4.3-6.7c0.8-2.6,1.2-5.3,1.2-8.2c0-2.2-0.2-4.3-0.6-6.3c-0.4-1.9-1.2-3.7-2.2-5.5c-1-1.6-2.4-3-4.1-4.1
				c-1.8-1.1-4-1.5-6.6-1.5s-4.7,0.5-6.5,1.5c-1.8,1.1-3.3,2.5-4.3,4.2s-1.7,3.6-2.1,5.7C246.1,354.7,245.8,356.8,245.8,358.8z"/>
			<path class="st3" d="M322.7,342.6v-6.1h7.6v45c0,5.4-1.3,10.2-4,14.3c-2.6,4.1-8,6.2-16.4,6.2c-5.8,0-10.6-1.3-14.3-3.9
				c-3.8-2.8-5.8-6.9-6.1-12.4h8.1c0,3.4,1.2,6,3.5,7.8c2.3,1.7,5.1,2.7,8.7,2.7c3,0,5.4-0.5,7.2-1.4c1.8-1,3.2-2.3,4-3.7
				c0.8-1.5,1.3-3.1,1.5-4.7s0.4-3.4,0.4-5.7v-6.4h-0.2c-2.2,2.7-4.5,4.8-6.8,6.1c-2.4,1.3-5.2,1.9-8.3,1.9c-2.2,0-4.4-0.3-6.7-1.1
				c-2.2-0.7-4.4-1.9-6.5-3.7c-2.1-1.8-3.9-4.3-5.1-7.3c-1.3-3-1.8-6.8-1.8-11.3c0-4.4,0.8-8.3,2.3-12c1.4-3.5,3.7-6.4,6.8-8.4
				c3-2.1,6.8-3.1,11.2-3.1c3.5,0,6.6,0.6,9.2,1.9s4.5,3,5.9,5.2L322.7,342.6z M308.5,341.8c-4.1,0-7.4,1.4-9.9,4.3
				c-2.5,2.8-3.7,7.1-3.7,12.6c0,2.3,0.3,4.5,0.9,6.6s1.5,3.9,2.7,5.5c1.2,1.5,2.7,2.8,4.4,3.5c1.6,0.9,3.5,1.3,5.6,1.3
				c2.8,0,5.3-0.8,7.5-2.4c2.1-1.6,3.8-3.7,5-6.2c1.1-2.7,1.7-5.4,1.7-8.6c-0.1-3.9-0.8-7.2-1.9-9.7c-1.2-2.5-2.8-4.2-4.9-5.3
				C313.9,342.4,311.4,341.8,308.5,341.8z"/>
		</g>
	</g>
</g>
<g id="レイヤー_2_1_" class="st0">
	<path class="st1" d="M320.8,199h-47c0-14.8,0-25.2,0-28.6c0-17,8.8-18.7,14.8-18.7s32.1,0,32.1,0V99.9c0,0-6.3,0-47.2,0
		c-55.4,0-63.6,40.6-63.6,67c0,4.5,0,16.2,0,32.1h-30.3v52.3H210c0,67.8,0,150.8,0,150.8h63.9c0,0,0-83.8,0-150.8h41.7L320.8,199z"
		/>
</g>
<g>
	<g>
		<defs>
			<path id="SVGID_1_" d="M345.4,8.5H154.6C74,8.5,8.5,74,8.5,154.6v190.8C8.5,426,74,491.5,154.6,491.5h190.8
				c80.6,0,146.1-65.6,146.1-146.1V154.6C491.5,74,426,8.5,345.4,8.5z M454.7,345.4c0,60.3-49,109.3-109.3,109.3H154.6
				c-60.3,0-109.3-49-109.3-109.3V154.6c0-60.3,49-109.3,109.3-109.3h190.8c60.3,0,109.3,49,109.3,109.3V345.4z"/>
		</defs>
		<clipPath id="SVGID_2_">
			<use xlink:href="#SVGID_1_"  style="overflow:visible;"/>
		</clipPath>
		<g class="st4">
			<linearGradient id="SVGID_3_" gradientUnits="userSpaceOnUse" x1="44.996" y1="2.6458" x2="451.3094" y2="492.8981">
				<stop  offset="4.033310e-02" style="stop-color:#405DE6"/>
				<stop  offset="0.1474" style="stop-color:#5E53C7"/>
				<stop  offset="0.37" style="stop-color:#96408B"/>
				<stop  offset="0.5745" style="stop-color:#C2315B"/>
				<stop  offset="0.7541" style="stop-color:#E22639"/>
				<stop  offset="0.9021" style="stop-color:#F61F25"/>
				<stop  offset="1" style="stop-color:#FD1D1D"/>
			</linearGradient>
			<path class="st5" d="M398.8,8.5H101.2C50,8.5,8.5,50,8.5,101.2v297.7c0,51.2,41.5,92.7,92.7,92.7h297.7
				c51.2,0,92.7-41.5,92.7-92.7V101.2C491.5,50,450,8.5,398.8,8.5z"/>
			
				<radialGradient id="SVGID_4_" cx="111.9099" cy="479.269" r="371.516" gradientTransform="matrix(0.3613 -0.9324 1.1628 0.4506 -485.8305 367.6712)" gradientUnits="userSpaceOnUse">
				<stop  offset="6.421340e-02" style="stop-color:#FCCC63"/>
				<stop  offset="0.2681" style="stop-color:#FAA951;stop-opacity:0.9121"/>
				<stop  offset="0.5281" style="stop-color:#F77737;stop-opacity:0.8"/>
				<stop  offset="0.7209" style="stop-color:#C25B70;stop-opacity:0.4732"/>
				<stop  offset="0.9078" style="stop-color:#9543A1;stop-opacity:0.1563"/>
				<stop  offset="1" style="stop-color:#833AB4;stop-opacity:0"/>
			</radialGradient>
			<path class="st6" d="M398.8,8.5H101.2C50,8.5,8.5,50,8.5,101.2v297.7c0,51.2,41.5,92.7,92.7,92.7h297.7
				c51.2,0,92.7-41.5,92.7-92.7V101.2C491.5,50,450,8.5,398.8,8.5z"/>
		</g>
	</g>
	<g>
		<defs>
			<path id="SVGID_5_" d="M250,129.4c-66.5,0-120.6,54.1-120.6,120.6S183.5,370.6,250,370.6c66.5,0,120.6-54.1,120.6-120.6
				S316.5,129.4,250,129.4z M250,333.8c-46.2,0-83.8-37.6-83.8-83.8s37.6-83.8,83.8-83.8c46.2,0,83.8,37.6,83.8,83.8
				S296.2,333.8,250,333.8z"/>
		</defs>
		<clipPath id="SVGID_6_">
			<use xlink:href="#SVGID_5_"  style="overflow:visible;"/>
		</clipPath>
		<g class="st7">
			<linearGradient id="SVGID_7_" gradientUnits="userSpaceOnUse" x1="44.996" y1="2.6458" x2="451.3094" y2="492.8981">
				<stop  offset="4.033310e-02" style="stop-color:#405DE6"/>
				<stop  offset="0.1474" style="stop-color:#5E53C7"/>
				<stop  offset="0.37" style="stop-color:#96408B"/>
				<stop  offset="0.5745" style="stop-color:#C2315B"/>
				<stop  offset="0.7541" style="stop-color:#E22639"/>
				<stop  offset="0.9021" style="stop-color:#F61F25"/>
				<stop  offset="1" style="stop-color:#FD1D1D"/>
			</linearGradient>
			<path class="st8" d="M398.8,8.5H101.2C50,8.5,8.5,50,8.5,101.2v297.7c0,51.2,41.5,92.7,92.7,92.7h297.7
				c51.2,0,92.7-41.5,92.7-92.7V101.2C491.5,50,450,8.5,398.8,8.5z"/>
			
				<radialGradient id="SVGID_8_" cx="111.9099" cy="479.269" r="371.516" gradientTransform="matrix(0.3613 -0.9324 1.1628 0.4506 -485.8305 367.6712)" gradientUnits="userSpaceOnUse">
				<stop  offset="6.421340e-02" style="stop-color:#FCCC63"/>
				<stop  offset="0.2681" style="stop-color:#FAA951;stop-opacity:0.9121"/>
				<stop  offset="0.5281" style="stop-color:#F77737;stop-opacity:0.8"/>
				<stop  offset="0.7209" style="stop-color:#C25B70;stop-opacity:0.4732"/>
				<stop  offset="0.9078" style="stop-color:#9543A1;stop-opacity:0.1563"/>
				<stop  offset="1" style="stop-color:#833AB4;stop-opacity:0"/>
			</radialGradient>
			<path class="st9" d="M398.8,8.5H101.2C50,8.5,8.5,50,8.5,101.2v297.7c0,51.2,41.5,92.7,92.7,92.7h297.7
				c51.2,0,92.7-41.5,92.7-92.7V101.2C491.5,50,450,8.5,398.8,8.5z"/>
		</g>
	</g>
	<g>
		<defs>
			<path id="SVGID_9_" d="M379,92.1c-15.9,0-28.8,12.9-28.8,28.8c0,15.9,12.9,28.8,28.8,28.8c15.9,0,28.8-12.9,28.8-28.8
				C407.9,105,395,92.1,379,92.1z"/>
		</defs>
		<clipPath id="SVGID_10_">
			<use xlink:href="#SVGID_9_"  style="overflow:visible;"/>
		</clipPath>
		<g class="st10">
			<linearGradient id="SVGID_11_" gradientUnits="userSpaceOnUse" x1="44.996" y1="2.6458" x2="451.3094" y2="492.8981">
				<stop  offset="4.033310e-02" style="stop-color:#405DE6"/>
				<stop  offset="0.1474" style="stop-color:#5E53C7"/>
				<stop  offset="0.37" style="stop-color:#96408B"/>
				<stop  offset="0.5745" style="stop-color:#C2315B"/>
				<stop  offset="0.7541" style="stop-color:#E22639"/>
				<stop  offset="0.9021" style="stop-color:#F61F25"/>
				<stop  offset="1" style="stop-color:#FD1D1D"/>
			</linearGradient>
			<path class="st11" d="M398.8,8.5H101.2C50,8.5,8.5,50,8.5,101.2v297.7c0,51.2,41.5,92.7,92.7,92.7h297.7
				c51.2,0,92.7-41.5,92.7-92.7V101.2C491.5,50,450,8.5,398.8,8.5z"/>
			
				<radialGradient id="SVGID_12_" cx="111.9099" cy="479.269" r="371.516" gradientTransform="matrix(0.3613 -0.9324 1.1628 0.4506 -485.8305 367.6712)" gradientUnits="userSpaceOnUse">
				<stop  offset="6.421340e-02" style="stop-color:#FCCC63"/>
				<stop  offset="0.2681" style="stop-color:#FAA951;stop-opacity:0.9121"/>
				<stop  offset="0.5281" style="stop-color:#F77737;stop-opacity:0.8"/>
				<stop  offset="0.7209" style="stop-color:#C25B70;stop-opacity:0.4732"/>
				<stop  offset="0.9078" style="stop-color:#9543A1;stop-opacity:0.1563"/>
				<stop  offset="1" style="stop-color:#833AB4;stop-opacity:0"/>
			</radialGradient>
			<path class="st12" d="M398.8,8.5H101.2C50,8.5,8.5,50,8.5,101.2v297.7c0,51.2,41.5,92.7,92.7,92.7h297.7
				c51.2,0,92.7-41.5,92.7-92.7V101.2C491.5,50,450,8.5,398.8,8.5z"/>
		</g>
	</g>
</g>
</svg>
