<?xml version="1.0" encoding="utf-8"?>
<!-- Generator: Adobe Illustrator 22.0.1, SVG Export Plug-In . SVG Version: 6.00 Build 0)  -->
<svg version="1.1" id="レイヤー_1" xmlns="http://www.w3.org/2000/svg" xmlns:xlink="http://www.w3.org/1999/xlink" x="0px"
	 y="0px" viewBox="0 0 500 500" style="enable-background:new 0 0 500 500;" xml:space="preserve">
<style type="text/css">
	.st0{display:none;}
	.st1{display:inline;fill:#333333;}
	.st2{display:inline;}
	.st3{fill:#333333;}
	.st4{fill:#FFFFFF;}
	.st5{fill:url(#SVGID_1_);}
</style>
<g id="レイヤー_1_1_">
</g>
<g id="レイヤー_6" class="st0">
	<path class="st1" d="M435,137.1c-13.6,6.1-28.2,10.2-43.5,11.9c15.6-9.4,27.7-24.2,33.4-42c-14.6,8.7-30.9,15-48.2,18.4
		c-13.9-14.8-33.6-23.9-55.4-23.9c-41.9,0-75.9,34-75.9,75.9c0,5.9,0.7,11.7,2,17.2c-63.1-3.2-119-33.3-156.5-79.3
		c-6.5,11.2-10.3,24.3-10.3,38.1c0,26.4,13.4,49.7,33.8,63.2c-12.4-0.4-24.2-3.8-34.4-9.5c0,0.3,0,0.7,0,1
		c0,36.8,26.1,67.4,60.9,74.4c-6.3,1.8-13.1,2.6-20,2.6c-4.9,0-9.6-0.5-14.3-1.3c9.7,30.2,37.7,52.1,70.9,52.7
		c-25.9,20.3-58.7,32.5-94.3,32.5c-6.1,0-12.2-0.3-18.1-1.1c33.6,21.6,73.5,34.1,116.4,34.1c139.6,0,216-115.7,216-216
		c0-3.4-0.1-6.6-0.3-9.9C412,165.8,424.8,152.4,435,137.1z"/>
</g>
<g id="レイヤー_5" class="st0">
	<g class="st2">
		<g>
			<path class="st3" d="M164.8,221.2v59.1c0,0,57.4-0.1,80.8-0.1c-12.7,38.4-32.4,59.3-80.8,59.3c-49,0-87.3-39.8-87.3-88.8
				c0-49.1,38.3-88.8,87.3-88.8c25.9,0,42.6,9.1,58,21.7c12.4-12.2,11.3-14,42.6-43.5c-26.6-24.2-61.9-38.9-100.6-38.9
				c-82.6,0-149.5,66.9-149.5,149.5c0,82.5,66.9,149.5,149.5,149.5c123.3,0,153.5-107.5,143.5-179
				C279.1,221.2,164.8,221.2,164.8,221.2z M434.1,224.1v-51.8h-36.9v51.8h-53.3v36.9h53.3v53.3h36.9v-53.3h51.8v-36.9L434.1,224.1
				L434.1,224.1z"/>
		</g>
	</g>
</g>
<g id="レイヤー_4" class="st0">
	<g class="st2">
		<g>
			<path class="st3" d="M168.9,289.4V99.6h91.7c42.4,0,63.6,16.3,63.6,48.9c0,11.7-3.2,21-9.7,28c-6.6,6.9-16.4,11.8-29.6,14.7v0.6
				c13.5,1,24.6,5.1,33.2,12.5c8.7,7.4,13.1,17.7,13.1,31c0,9.5-1.8,17.8-5.2,24.8c-3.5,6.9-8.6,12.5-15.1,16.8
				c-6.6,4.2-14.5,7.4-23.9,9.4c-9.3,2-20.2,3.1-32.7,3.1H168.9L168.9,289.4z M213.6,134.9v39.4h39.1c16.3,0,24.5-6.6,24.5-19.8
				c0-7.5-1.9-12.7-5.9-15.5c-3.9-2.8-10.1-4.1-18.5-4.1L213.6,134.9L213.6,134.9z M214.3,209.4v44.9h38.3c11.4,0,19.5-1.9,24.3-5.9
				c4.8-3.9,7.2-9.4,7.2-16.2c0-5.4-0.8-9.8-2.3-13.2c-1.5-3.4-3.9-5.7-7.3-7.3c-3.3-1.6-7.9-2.3-13.7-2.3H214.3z"/>
		</g>
		<g>
			<path class="st3" d="M169.6,381.1v-66.4h7.6V342h0.1c1.6-2.3,3.6-3.9,6-5.1c2.4-1.1,5.1-1.6,8.1-1.6c3.7,0,6.8,0.6,9.6,1.9
				c2.7,1.2,4.9,2.9,6.6,5.2c1.6,2.2,2.9,4.7,3.7,7.4c0.8,2.8,1.2,5.8,1.2,9c0,4.3-0.8,8.2-2.1,11.7c-1.4,3.5-3.8,6.4-7,8.6
				c-3.2,2.1-7.4,3.2-12.6,3.2c-1.7,0-3.4-0.3-5.2-0.8c-1.7-0.5-3.2-1.2-4.8-2.2c-1.4-1-2.6-2.2-3.6-3.5h0.1h-0.1v5.3L169.6,381.1
				L169.6,381.1z M204.5,358.8c0-4.8-1.2-8.9-3.4-12.1c-2.3-3.2-5.7-4.8-10.3-4.8c-2.8,0-5.3,0.8-7.3,2.4c-2.1,1.5-3.7,3.6-4.8,6.2
				c-1.1,2.6-1.6,5.4-1.6,8.3c0,4.9,1.1,8.9,3.4,12.1c2.3,3.2,5.7,4.8,10.3,4.8c4.7,0,8.1-1.6,10.3-4.8
				C203.3,367.7,204.5,363.6,204.5,358.8z"/>
			<path class="st3" d="M221.3,381.1v-66.4h7.6v66.4H221.3z"/>
			<path class="st3" d="M237.8,358.8c0-4.5,0.9-8.5,2.6-12.1c1.7-3.6,4.3-6.4,7.5-8.5c3.2-1.9,7.1-2.9,11.5-2.9c3.3,0,6.2,0.6,9,1.6
				c2.7,1.2,5,2.9,6.9,4.9c1.9,2.1,3.4,4.6,4.3,7.5c0.9,2.8,1.5,5.9,1.5,9.4c0,3.3-0.6,6.5-1.5,9.3c-0.9,2.8-2.4,5.3-4.3,7.4
				c-1.9,2.2-4.2,3.8-6.9,4.9c-2.8,1.2-5.7,1.8-9,1.8c-3.2,0-6.2-0.6-8.9-1.7c-2.7-1.1-5-2.8-6.9-5c-2-2.2-3.4-4.7-4.5-7.4
				C238.2,365.3,237.8,362.2,237.8,358.8z M245.8,358.8c0,2.9,0.4,5.6,1.2,8.2c0.8,2.7,2.2,4.8,4.3,6.7c2,1.7,4.7,2.6,8,2.6
				c3.3,0,6-0.9,8-2.6c2-1.8,3.5-4,4.3-6.7c0.8-2.6,1.2-5.3,1.2-8.2c0-2.2-0.2-4.3-0.6-6.3c-0.4-1.9-1.2-3.7-2.1-5.5
				c-1-1.6-2.4-3-4.1-4.1c-1.8-1.1-4-1.5-6.6-1.5c-2.6,0-4.7,0.5-6.5,1.5c-1.8,1.1-3.3,2.5-4.3,4.2c-1,1.7-1.7,3.6-2.1,5.7
				C246.1,354.7,245.8,356.8,245.8,358.8z"/>
			<path class="st3" d="M322.7,342.6v-6.1h7.6v45c0,5.4-1.3,10.2-4,14.3c-2.6,4.1-8,6.2-16.4,6.2c-5.8,0-10.6-1.3-14.3-3.9
				c-3.8-2.8-5.8-6.9-6.1-12.4h8.1c0,3.4,1.2,6,3.5,7.8c2.3,1.7,5.1,2.7,8.7,2.7c3,0,5.4-0.5,7.2-1.4c1.8-1,3.2-2.3,4-3.7
				c0.8-1.5,1.3-3.1,1.5-4.7c0.2-1.6,0.4-3.4,0.4-5.7v-6.4h-0.2c-2.2,2.7-4.5,4.8-6.8,6.1c-2.4,1.3-5.2,1.9-8.3,1.9
				c-2.2,0-4.4-0.3-6.7-1.1c-2.2-0.7-4.4-1.9-6.5-3.7c-2.1-1.8-3.9-4.3-5.1-7.3c-1.3-3-1.8-6.8-1.8-11.3c0-4.4,0.8-8.3,2.3-12
				c1.4-3.5,3.7-6.4,6.8-8.4c3-2.1,6.8-3.1,11.2-3.1c3.5,0,6.6,0.6,9.2,1.9c2.6,1.3,4.5,3,5.9,5.2L322.7,342.6z M308.5,341.8
				c-4.1,0-7.4,1.4-9.9,4.3c-2.5,2.8-3.7,7.1-3.7,12.6c0,2.3,0.3,4.5,0.9,6.6c0.6,2.1,1.5,3.9,2.7,5.5c1.2,1.5,2.7,2.8,4.4,3.5
				c1.6,0.9,3.5,1.3,5.6,1.3c2.8,0,5.3-0.8,7.5-2.4c2.1-1.6,3.8-3.7,5-6.2c1.1-2.7,1.7-5.4,1.7-8.6c-0.1-3.9-0.8-7.2-1.9-9.7
				c-1.2-2.5-2.8-4.2-4.9-5.3C313.9,342.4,311.4,341.8,308.5,341.8z"/>
		</g>
	</g>
</g>
<g id="レイヤー_3" class="st0">
	<g class="st2">
		<path class="st3" d="M312.1,401h-125c-48.4,0-87.9-39.5-87.9-87.9v-125c0-48.6,39.5-88,87.9-88h125c48.6,0,88,39.5,88,88v125
			C400.1,361.5,360.7,401,312.1,401z M187.1,128.1c-33,0-59.8,26.9-59.8,60v125c0,33,26.8,59.8,59.8,59.8h125
			c33.1,0,60-26.8,60-59.8v-125c0-33.1-26.9-60-60-60L187.1,128.1L187.1,128.1z"/>
		<path class="st3" d="M348.8,170.3c0,10.4-8.4,18.7-18.7,18.7c-10.4,0-18.8-8.3-18.8-18.7c0-10.4,8.4-18.8,18.8-18.8
			C340.4,151.5,348.8,159.9,348.8,170.3z"/>
		<path class="st3" d="M249.6,328.3c-42.9,0-77.7-34.9-77.7-77.7c0-42.9,34.9-77.8,77.7-77.8c42.9,0,77.8,34.8,77.8,77.8
			C327.4,293.5,292.6,328.3,249.6,328.3z M249.6,200.8c-27.4,0-49.7,22.3-49.7,49.8c0,27.4,22.3,49.7,49.7,49.7
			c27.5,0,49.8-22.3,49.8-49.7C299.4,223.1,277.1,200.8,249.6,200.8z"/>
	</g>
</g>
<g>
	<path class="st4" d="M166.6,173.1l15.8,0c6.3,0,12.9,0,12.9,8.1c0,7.9-6.8,7.9-12.9,7.9l-15.8,0l0,26.7c0,6.1,0,12.9-8.1,12.9
		c-7.9,0-7.9-6.9-7.9-12.9v-26.7l-16.4,0c-6.1,0-12.9,0-12.9-7.9c0-8.1,6.8-8.1,12.9-8.1l16.4,0v-43.8c-10,22.4-25,38.8-40.3,54.1
		c-6.3,6.3-13.2,12.2-18.7,12.2c-4.5,0-7.1-3.7-7.1-7.2c0-3.5,1.5-4.8,6.8-9.2c19.5-16.4,35.3-36.7,45.9-60.1h-36.6
		c-5.8,0-12.9,0-12.9-7.7c0-7.7,7.1-7.7,12.9-7.7h49.9l0-11.3c0-6.1,0-12.9,7.9-12.9c8.1,0,8.1,6.8,8.1,12.9v11.3h49.6
		c6,0,13.1,0,13.1,7.7c0,7.7-7.1,7.7-13.1,7.7h-38.2c5.2,12.2,19.5,36.3,46.9,58c8.1,6.4,8.9,7.3,8.9,10.5c0,4.7-3.1,8.1-7.6,8.1
		c-6.6,0-16.1-8.9-20.1-12.7c-20.8-19.5-33.2-38.5-39.5-53L166.6,173.1z"/>
	<path class="st4" d="M394.4,208.8c0,13.2-9.7,15.1-13.5,15.1h-87c-4.4,0-13.5-2.4-13.5-15.1V98.5c0-11.4,7.6-15.1,13.5-15.1l87,0
		c6.4,0,13.5,4,13.5,15.1L394.4,208.8z M377.2,143v-37.4c0-2.3,0-5.6-5.2-5.6l-71.1,0c-4,0-4.2,2.3-4.2,4.7l0,38.3H377.2z
		 M296.8,158.5v44.1c0,1.9,0.3,5.5,5.2,5.5h69.6c5,0,5.6-2.3,5.6-6.1v-43.5H296.8z"/>
	<path class="st4" d="M149.7,401.3l0-54.5l-37.5,0c-3.1,0-16.4-1-16.4-16.4l0-35.9c0-5.8,0-12.7,7.6-12.7c7.7,0,7.7,7.3,7.7,12.7
		l0,31.3c0,3.1,0.5,5.3,4.3,5.3h34.3l0-45c0-5.8,0-12.9,8.4-12.9c8.2,0,8.4,7.1,8.4,12.9v45l34.2,0c4.5,0,4.5-3.4,4.5-3.9v-33.7
		c0-6.3,0-12.9,8.2-12.9c8.1,0,8.2,6.6,8.2,12.9v39.2c0,13.2-10.8,14.2-14.3,14.2l-40.8,0v54.5h41.4c3.1,0,4.4-0.8,4.4-4.8l0-33.2
		c0-6.1,0-12.9,7.9-12.9c8.1,0,8.1,7.1,8.1,12.9l0,39.8c0,10.1-6.3,14.2-14.8,14.2H102.5c-4,0-13.9-1.6-13.9-15l0-38.5
		c0-5.6,0-12.7,7.9-12.7c7.9,0,7.9,6.4,7.9,12.7V396c0,2.7,0.3,5.3,4.5,5.3L149.7,401.3z"/>
	<path class="st4" d="M386.6,320.3c-1.5,30.9-2.6,54.9-15.8,78.6c-11.8,21.1-16.3,21.4-20.1,21.4c-2.4,0-4.7-1.9-5.5-2.7
		c-1.3-1.3-1.5-3.1-1.4-5c-20.6,3.7-56.2,6.6-65.3,6.6c-2.6,0-9.7,0-9.7-7.3c0-3.1,1.6-6,5-6.9c3.5-1,27.4-1.8,32.5-2.3l0-11.3H286
		c-6.6,0-12.9,0-12.9-6.8c0-6.8,6.3-6.8,12.9-6.8h20.3l0-8.4l-23.4,0c-6.3,0-12.9,0-12.9-7.1c0-7.1,6.6-7.1,12.9-7.1h23.4l0-8.4
		l-19,0c-7.3,0-11.6-6.1-11.6-9.5l0-23.2c0-3.2,4.2-9.5,11.6-9.5l8.2,0c-3.5-2.3-3.7-4.8-3.7-8.5l-8.1,0c-6.3,0-12.9,0-12.9-7.1
		c0-7.1,6.6-7.1,12.9-7.1h8.1c0-3.2,0-10.5,7.7-10.5c7.7,0,7.7,7.3,7.7,10.5l14.7,0c0-4.4,0-10.5,7.7-10.5c7.7,0,7.7,6.1,7.7,10.5
		h7.1c6.3,0,12.9,0,12.9,7.1c0,7.1-6.6,7.1-12.9,7.1l-7.1,0c0,4.5-0.3,6.6-3.1,8.5h9.2c2.3,0,7.3,0.8,10.3,6c1.6-6,5.6-6,12.6-6h5
		v-19.2c0-5.8,0-12.9,7.7-12.9c7.7,0,7.7,7.1,7.7,12.9l0,19.2l18.7,0c4,0,7.1,3.5,8.5,7.1c1.3,2.9,1.3,15.1,1.3,19.5
		c0,23-0.5,56.4-4,72.3c-2.9,12.6-11.8,16.8-20,16.8c-7.4,0-20-1.1-20-10c0-4.4,3.5-7.7,7.6-7.7c1.3,0,7.1,1.3,8.5,1.3
		c6,0,8.4-4.5,9.2-9.3c2.4-12.9,3.2-42.7,3.2-56.6c0-2.4,0-15.5-1-16.8c-0.6-0.8-1.6-1.1-3.7-1.1L386.6,320.3z M306.3,332.8V319
		h-12.9c-3.2,0-4.2,0.6-4.2,3.7v6.4c0,3.2,1,3.7,4.2,3.7L306.3,332.8z M307.3,296.2c0,3.7-0.2,6.3-3.5,8.5H325
		c-2.9-1.9-3.1-4-3.1-8.5L307.3,296.2z M366.4,320.3c-7.1,0-8.9,0-11.4-3.2l0,20.5c0,3.4-4.3,9.5-11.4,9.5l-21.6,0v8.4l20,0
		c6.3,0,12.9,0,12.9,7.1c0,7.1-6.6,7.1-12.9,7.1l-20,0v8.4h16.8c6.6,0,12.9,0,12.9,6.8c0,6.8-6.3,6.8-12.9,6.8l-16.8,0l0,9.7
		c3.7-0.3,21.6-2.9,23.5-2.9c2.9,0,4.2,1,5.6,2.3c11.3-15.9,16.8-35.1,18.9-54.6c0.5-4.5,0.6-6.6,1.1-25.6L366.4,320.3L366.4,320.3z
		 M321.9,319l0,13.9l14,0c3.4,0,4.4-0.5,4.3-3.7l0-6.4c0-3.2-1.1-3.7-4.3-3.7L321.9,319z"/>
</g>
<g>
	<g>
		<g>
			
				<radialGradient id="SVGID_1_" cx="29.5592" cy="367.3954" r="876.4918" gradientTransform="matrix(1 0 0 1 0 116)" gradientUnits="userSpaceOnUse">
				<stop  offset="0" style="stop-color:#F9ED32"/>
				<stop  offset="6.150000e-02" style="stop-color:#F8D939"/>
				<stop  offset="0.1874" style="stop-color:#F5A54D"/>
				<stop  offset="0.365" style="stop-color:#F0536C"/>
				<stop  offset="0.4486" style="stop-color:#EE2A7B"/>
				<stop  offset="0.5994" style="stop-color:#9E2AA7"/>
				<stop  offset="0.7418" style="stop-color:#5B2ACD"/>
				<stop  offset="0.86" style="stop-color:#2A2AE8"/>
				<stop  offset="0.9496" style="stop-color:#0B2AF9"/>
				<stop  offset="1" style="stop-color:#002AFF"/>
			</radialGradient>
			<circle class="st5" cx="250" cy="250" r="243.7"/>
		</g>
	</g>
	<g>
		<g>
			<path class="st4" d="M312.9,406.4H187.3c-55.8,0-101.2-45.4-101.2-101.2V194.6c0-55.8,45.4-101.2,101.2-101.2h125.6
				c55.8,0,101.2,45.4,101.2,101.2v110.7C413.9,361.1,368.5,406.4,312.9,406.4z M187.1,116c-43.4,0-78.7,35.3-78.7,78.7v110.7
				c0,43.4,35.3,78.7,78.7,78.7h125.6c43.4,0,78.7-35.3,78.7-78.7V194.7c0-43.4-35.3-78.7-78.7-78.7L187.1,116L187.1,116z"/>
		</g>
		<g>
			<path class="st4" d="M250,340c-49.7,0-90-40.4-90-90s40.4-90,90-90s90,40.4,90,90S299.7,340,250,340z M250,182.4
				c-37.2,0-67.6,30.3-67.6,67.6s30.3,67.6,67.6,67.6s67.6-30.3,67.6-67.6S287.2,182.4,250,182.4z"/>
		</g>
		<g>
			<path class="st4" d="M357.3,162.7c0,10.3-8.4,18.7-18.7,18.7s-18.7-8.4-18.7-18.7c0-10.3,8.4-18.7,18.7-18.7
				C348.9,144.1,357.3,152.5,357.3,162.7z"/>
		</g>
	</g>
</g>
</svg>
