<?xml version="1.0" encoding="utf-8"?>
<!-- Generator: Adobe Illustrator 22.0.1, SVG Export Plug-In . SVG Version: 6.00 Build 0)  -->
<svg version="1.1" id="レイヤー_1" xmlns="http://www.w3.org/2000/svg" xmlns:xlink="http://www.w3.org/1999/xlink" x="0px"
	 y="0px" viewBox="0 0 979.9 249.4" style="enable-background:new 0 0 979.9 249.4;" xml:space="preserve">
<style type="text/css">
	.st0{opacity:0.9;fill:url(#SVGID_1_);enable-background:new    ;}
	.st1{opacity:0.9;fill:url(#SVGID_2_);enable-background:new    ;}
	.st2{opacity:0.9;fill:url(#SVGID_3_);enable-background:new    ;}
	.st3{opacity:0.9;fill:url(#SVGID_4_);enable-background:new    ;}
	.st4{opacity:0.9;fill:url(#SVGID_5_);enable-background:new    ;}
	.st5{opacity:0.9;fill:url(#SVGID_6_);enable-background:new    ;}
	.st6{opacity:0.9;fill:url(#SVGID_7_);enable-background:new    ;}
	.st7{opacity:0.9;fill:url(#SVGID_8_);enable-background:new    ;}
	.st8{opacity:0.9;fill:url(#SVGID_9_);enable-background:new    ;}
	.st9{opacity:0.9;fill:url(#SVGID_10_);enable-background:new    ;}
	.st10{opacity:0.9;fill:url(#SVGID_11_);enable-background:new    ;}
	.st11{opacity:0.9;fill:url(#SVGID_12_);enable-background:new    ;}
	.st12{opacity:0.9;fill:url(#SVGID_13_);enable-background:new    ;}
	.st13{opacity:0.9;fill:url(#SVGID_14_);enable-background:new    ;}
	.st14{opacity:0.9;fill:url(#SVGID_15_);enable-background:new    ;}
	.st15{opacity:0.9;fill:url(#SVGID_16_);enable-background:new    ;}
	.st16{opacity:0.9;fill:url(#SVGID_17_);enable-background:new    ;}
	.st17{opacity:0.9;fill:url(#SVGID_18_);enable-background:new    ;}
	.st18{opacity:0.9;fill:url(#SVGID_19_);enable-background:new    ;}
	.st19{opacity:0.9;fill:url(#SVGID_20_);enable-background:new    ;}
	.st20{opacity:0.9;fill:url(#SVGID_21_);enable-background:new    ;}
	.st21{opacity:0.9;fill:url(#SVGID_22_);enable-background:new    ;}
	.st22{opacity:0.9;fill:url(#SVGID_23_);enable-background:new    ;}
	.st23{opacity:0.9;fill:url(#SVGID_24_);enable-background:new    ;}
	.st24{opacity:0.9;fill:url(#SVGID_25_);enable-background:new    ;}
	.st25{opacity:0.9;fill:url(#SVGID_26_);enable-background:new    ;}
	.st26{opacity:0.9;fill:url(#SVGID_27_);enable-background:new    ;}
	.st27{opacity:0.9;fill:url(#SVGID_28_);enable-background:new    ;}
	.st28{opacity:0.9;fill:url(#SVGID_29_);enable-background:new    ;}
	.st29{opacity:0.9;fill:url(#SVGID_30_);enable-background:new    ;}
	.st30{opacity:0.9;fill:url(#SVGID_31_);enable-background:new    ;}
	.st31{opacity:0.9;fill:url(#SVGID_32_);enable-background:new    ;}
	.st32{opacity:0.9;fill:url(#SVGID_33_);enable-background:new    ;}
	.st33{opacity:0.9;fill:url(#SVGID_34_);enable-background:new    ;}
	.st34{opacity:0.9;fill:url(#SVGID_35_);enable-background:new    ;}
	.st35{opacity:0.9;fill:url(#SVGID_36_);enable-background:new    ;}
	.st36{opacity:0.9;fill:url(#SVGID_37_);enable-background:new    ;}
	.st37{opacity:0.9;fill:url(#SVGID_38_);enable-background:new    ;}
	.st38{opacity:0.9;fill:url(#SVGID_39_);enable-background:new    ;}
	.st39{opacity:0.9;fill:url(#SVGID_40_);enable-background:new    ;}
	.st40{opacity:0.9;fill:url(#SVGID_41_);enable-background:new    ;}
	.st41{opacity:0.9;fill:url(#SVGID_42_);enable-background:new    ;}
	.st42{opacity:0.9;fill:url(#SVGID_43_);enable-background:new    ;}
	.st43{opacity:0.9;fill:url(#SVGID_44_);enable-background:new    ;}
	.st44{opacity:0.9;fill:url(#SVGID_45_);enable-background:new    ;}
	.st45{opacity:0.9;fill:url(#SVGID_46_);enable-background:new    ;}
	.st46{opacity:0.9;fill:url(#SVGID_47_);enable-background:new    ;}
	.st47{opacity:0.9;fill:url(#SVGID_48_);enable-background:new    ;}
	.st48{opacity:0.9;fill:url(#SVGID_49_);enable-background:new    ;}
	.st49{opacity:0.9;fill:url(#SVGID_50_);enable-background:new    ;}
	.st50{opacity:0.9;fill:url(#SVGID_51_);enable-background:new    ;}
	.st51{opacity:0.9;fill:url(#SVGID_52_);enable-background:new    ;}
	.st52{opacity:0.9;fill:url(#SVGID_53_);enable-background:new    ;}
	.st53{opacity:0.9;fill:url(#SVGID_54_);enable-background:new    ;}
	.st54{opacity:0.9;fill:url(#SVGID_55_);enable-background:new    ;}
	.st55{opacity:0.9;fill:url(#SVGID_56_);enable-background:new    ;}
	.st56{opacity:0.9;fill:url(#SVGID_57_);enable-background:new    ;}
	.st57{opacity:0.9;fill:url(#SVGID_58_);enable-background:new    ;}
	.st58{opacity:0.9;fill:url(#SVGID_59_);enable-background:new    ;}
	.st59{opacity:0.9;fill:url(#SVGID_60_);enable-background:new    ;}
	.st60{opacity:0.9;fill:url(#SVGID_61_);enable-background:new    ;}
	.st61{opacity:0.9;fill:url(#SVGID_62_);enable-background:new    ;}
	.st62{opacity:0.9;fill:url(#SVGID_63_);enable-background:new    ;}
	.st63{opacity:0.9;fill:url(#SVGID_64_);enable-background:new    ;}
	.st64{opacity:0.9;fill:url(#SVGID_65_);enable-background:new    ;}
	.st65{fill:#999999;}
</style>
<g>
	
		<linearGradient id="SVGID_1_" gradientUnits="userSpaceOnUse" x1="-1997.7225" y1="-1079.6272" x2="-1987.5021" y2="-1087.9894" gradientTransform="matrix(-0.605 0.7962 0.7962 0.605 -110.3098 2352.3149)">
		<stop  offset="0" style="stop-color:#BABABA"/>
		<stop  offset="1" style="stop-color:#BEBEBE"/>
	</linearGradient>
	<polygon class="st0" points="237.9,105.3 225.1,108.4 233.1,113.3 	"/>
	
		<linearGradient id="SVGID_2_" gradientUnits="userSpaceOnUse" x1="-2066.9014" y1="-1128.8153" x2="-1983.2998" y2="-1169.3495" gradientTransform="matrix(-0.605 0.7962 0.7962 0.605 -110.3098 2352.3149)">
		<stop  offset="0" style="stop-color:#8A8A8A"/>
		<stop  offset="1" style="stop-color:#848484"/>
	</linearGradient>
	<polygon class="st1" points="230.9,3 148,45 210.5,65.4 	"/>
	
		<linearGradient id="SVGID_3_" gradientUnits="userSpaceOnUse" x1="-2014.1208" y1="-1099.67" x2="-2003.8948" y2="-1108.0366" gradientTransform="matrix(-0.605 0.7962 0.7962 0.605 -110.3098 2352.3149)">
		<stop  offset="0" style="stop-color:#BABABA"/>
		<stop  offset="1" style="stop-color:#BEBEBE"/>
	</linearGradient>
	<polygon class="st2" points="237.9,105.3 225.1,108.4 210.5,65.4 	"/>
	
		<linearGradient id="SVGID_4_" gradientUnits="userSpaceOnUse" x1="-2001.5348" y1="-1090.0782" x2="-2005.379" y2="-1189.7843" gradientTransform="matrix(-0.605 0.7962 0.7962 0.605 -110.3098 2352.3149)">
		<stop  offset="0" style="stop-color:#BEBEBE"/>
		<stop  offset="1" style="stop-color:#858585"/>
	</linearGradient>
	<polygon class="st3" points="225.1,108.4 148,45 210.5,65.4 	"/>
	
		<linearGradient id="SVGID_5_" gradientUnits="userSpaceOnUse" x1="-2068.9336" y1="-1158.9849" x2="-1991.699" y2="-1091.4609" gradientTransform="matrix(-0.605 0.7962 0.7962 0.605 -110.3098 2352.3149)">
		<stop  offset="0" style="stop-color:#8A8A8A"/>
		<stop  offset="1" style="stop-color:#BABABA"/>
	</linearGradient>
	<polygon class="st4" points="230.9,3 237.9,105.3 210.5,65.4 	"/>
	
		<linearGradient id="SVGID_6_" gradientUnits="userSpaceOnUse" x1="-1961.0345" y1="-1131.1426" x2="-2042.5524" y2="-1086.5415" gradientTransform="matrix(-0.605 0.7962 0.7962 0.605 -110.3098 2352.3149)">
		<stop  offset="0" style="stop-color:#D3D3D3"/>
		<stop  offset="1" style="stop-color:#AFAFAF"/>
	</linearGradient>
	<polygon class="st5" points="185,127.8 269.8,89.9 208.4,66.4 	"/>
	
		<linearGradient id="SVGID_7_" gradientUnits="userSpaceOnUse" x1="-2066.9133" y1="-1128.84" x2="-1983.3118" y2="-1169.3741" gradientTransform="matrix(-0.605 0.7962 0.7962 0.605 -110.3098 2352.3149)">
		<stop  offset="0" style="stop-color:#8A8A8A"/>
		<stop  offset="1" style="stop-color:#848484"/>
	</linearGradient>
	<polygon class="st6" points="230.9,3 148,45 208.4,66.4 	"/>
	
		<linearGradient id="SVGID_8_" gradientUnits="userSpaceOnUse" x1="-1993.8094" y1="-1190.3607" x2="-2031.7723" y2="-1066.2759" gradientTransform="matrix(-0.605 0.7962 0.7962 0.605 -110.3098 2352.3149)">
		<stop  offset="0" style="stop-color:#848484"/>
		<stop  offset="1" style="stop-color:#B0B0B0"/>
	</linearGradient>
	<polygon class="st7" points="148,45 269.8,89.9 208.4,66.4 	"/>
	
		<linearGradient id="SVGID_9_" gradientUnits="userSpaceOnUse" x1="-1950.0015" y1="-1110.3842" x2="-2077.155" y2="-1149.3281" gradientTransform="matrix(-0.605 0.7962 0.7962 0.605 -110.3098 2352.3149)">
		<stop  offset="0" style="stop-color:#CACACA"/>
		<stop  offset="1" style="stop-color:#8C8C8C"/>
	</linearGradient>
	<polygon class="st8" points="185,127.8 230.9,3 208.4,66.4 	"/>
	
		<linearGradient id="SVGID_10_" gradientUnits="userSpaceOnUse" x1="-1914.9658" y1="-1125.2504" x2="-1939.6764" y2="-1031.0692" gradientTransform="matrix(-0.605 0.7962 0.7962 0.605 -110.3098 2352.3149)">
		<stop  offset="0" style="stop-color:#CACACA"/>
		<stop  offset="1" style="stop-color:#DCDCDC"/>
	</linearGradient>
	<polygon class="st9" points="152.9,145.5 234.1,203.8 211.1,148.2 	"/>
	
		<linearGradient id="SVGID_11_" gradientUnits="userSpaceOnUse" x1="-1942.8667" y1="-1097.9371" x2="-2024.3845" y2="-1053.3361" gradientTransform="matrix(-0.605 0.7962 0.7962 0.605 -110.3098 2352.3149)">
		<stop  offset="0" style="stop-color:#D3D3D3"/>
		<stop  offset="1" style="stop-color:#AFAFAF"/>
	</linearGradient>
	<polygon class="st10" points="185,127.8 269.8,89.9 211.1,148.2 	"/>
	
		<linearGradient id="SVGID_12_" gradientUnits="userSpaceOnUse" x1="-2024.8588" y1="-1084.3156" x2="-1912.5337" y2="-1043.8253" gradientTransform="matrix(-0.605 0.7962 0.7962 0.605 -110.3098 2352.3149)">
		<stop  offset="0" style="stop-color:#ABABAB"/>
		<stop  offset="1" style="stop-color:#D8D8D8"/>
	</linearGradient>
	<polygon class="st11" points="269.8,89.9 234.1,203.8 211.1,148.2 	"/>
	
		<linearGradient id="SVGID_13_" gradientUnits="userSpaceOnUse" x1="-1917.6957" y1="-1100.849" x2="-1950.3131" y2="-1102.5488" gradientTransform="matrix(-0.605 0.7962 0.7962 0.605 -110.3098 2352.3149)">
		<stop  offset="0" style="stop-color:#CACACA"/>
		<stop  offset="1" style="stop-color:#D8D8D8"/>
	</linearGradient>
	<polygon class="st12" points="152.9,145.5 185,127.8 211.1,148.2 	"/>
	
		<linearGradient id="SVGID_14_" gradientUnits="userSpaceOnUse" x1="-1918.343" y1="-1149.9971" x2="-1814.8213" y2="-1097.7238" gradientTransform="matrix(-0.605 0.7962 0.7962 0.605 -110.3098 2352.3149)">
		<stop  offset="0" style="stop-color:#9B9B9B"/>
		<stop  offset="1" style="stop-color:#A4A4A4"/>
	</linearGradient>
	<polygon class="st13" points="111.8,125 130.9,246.4 149.1,179.1 	"/>
	
		<linearGradient id="SVGID_15_" gradientUnits="userSpaceOnUse" x1="-1901.484" y1="-1118.4445" x2="-1925.3915" y2="-1027.3241" gradientTransform="matrix(-0.605 0.7962 0.7962 0.605 -110.3098 2352.3149)">
		<stop  offset="0" style="stop-color:#CACACA"/>
		<stop  offset="1" style="stop-color:#DCDCDC"/>
	</linearGradient>
	<polygon class="st14" points="152.9,145.5 234.1,203.8 149.1,179.1 	"/>
	
		<linearGradient id="SVGID_16_" gradientUnits="userSpaceOnUse" x1="-1918.7516" y1="-1025.3656" x2="-1846.8909" y2="-1104.1108" gradientTransform="matrix(-0.605 0.7962 0.7962 0.605 -110.3098 2352.3149)">
		<stop  offset="0" style="stop-color:#DADADA"/>
		<stop  offset="1" style="stop-color:#A5A5A5"/>
	</linearGradient>
	<polygon class="st15" points="234.1,203.8 130.9,246.4 149.1,179.1 	"/>
	
		<linearGradient id="SVGID_17_" gradientUnits="userSpaceOnUse" x1="-1910.7034" y1="-1170.2659" x2="-1900.3091" y2="-1107.5498" gradientTransform="matrix(-0.605 0.7962 0.7962 0.605 -110.3098 2352.3149)">
		<stop  offset="0" style="stop-color:#9D9D9D"/>
		<stop  offset="1" style="stop-color:#CACACA"/>
	</linearGradient>
	<polygon class="st16" points="111.8,125 152.9,145.5 149.1,179.1 	"/>
	
		<linearGradient id="SVGID_18_" gradientUnits="userSpaceOnUse" x1="-1876.4453" y1="-1232.9331" x2="-1827.8801" y2="-1208.4102" gradientTransform="matrix(-0.605 0.7962 0.7962 0.605 -110.3098 2352.3149)">
		<stop  offset="0" style="stop-color:#505050"/>
		<stop  offset="1" style="stop-color:#6D6D6D"/>
	</linearGradient>
	<polygon class="st17" points="20.4,108.2 11.8,161.9 57.7,162.2 	"/>
	
		<linearGradient id="SVGID_19_" gradientUnits="userSpaceOnUse" x1="-1906.5916" y1="-1173.2698" x2="-1803.0698" y2="-1120.9965" gradientTransform="matrix(-0.605 0.7962 0.7962 0.605 -110.3098 2352.3149)">
		<stop  offset="0" style="stop-color:#9B9B9B"/>
		<stop  offset="1" style="stop-color:#A4A4A4"/>
	</linearGradient>
	<polygon class="st18" points="111.8,125 130.9,246.4 57.7,162.2 	"/>
	
		<linearGradient id="SVGID_20_" gradientUnits="userSpaceOnUse" x1="-1853.7528" y1="-1097.7271" x2="-1794.046" y2="-1215.9702" gradientTransform="matrix(-0.605 0.7962 0.7962 0.605 -110.3098 2352.3149)">
		<stop  offset="0" style="stop-color:#A4A4A4"/>
		<stop  offset="1" style="stop-color:#6E6E6E"/>
	</linearGradient>
	<polygon class="st19" points="130.9,246.4 11.8,161.9 57.7,162.2 	"/>
	
		<linearGradient id="SVGID_21_" gradientUnits="userSpaceOnUse" x1="-1845.2518" y1="-1243.2058" x2="-1887.1335" y2="-1160.2637" gradientTransform="matrix(-0.605 0.7962 0.7962 0.605 -110.3098 2352.3149)">
		<stop  offset="0" style="stop-color:#4E4E4E"/>
		<stop  offset="1" style="stop-color:#9C9C9C"/>
	</linearGradient>
	<polygon class="st20" points="20.4,108.2 111.8,125 57.7,162.2 	"/>
	
		<linearGradient id="SVGID_22_" gradientUnits="userSpaceOnUse" x1="-1870.2961" y1="-1162.6107" x2="-1906.8628" y2="-1248.0159" gradientTransform="matrix(-0.605 0.7962 0.7962 0.605 -110.3098 2352.3149)">
		<stop  offset="0" style="stop-color:#ABABAB"/>
		<stop  offset="1" style="stop-color:#535353"/>
	</linearGradient>
	<polygon class="st21" points="115.7,148.3 69.9,67.6 52.4,130.9 	"/>
	
		<linearGradient id="SVGID_23_" gradientUnits="userSpaceOnUse" x1="-1873.9924" y1="-1237.7906" x2="-1825.4274" y2="-1213.2677" gradientTransform="matrix(-0.605 0.7962 0.7962 0.605 -110.3098 2352.3149)">
		<stop  offset="0" style="stop-color:#505050"/>
		<stop  offset="1" style="stop-color:#6D6D6D"/>
	</linearGradient>
	<polygon class="st22" points="20.4,108.2 11.8,161.9 52.4,130.9 	"/>
	
		<linearGradient id="SVGID_24_" gradientUnits="userSpaceOnUse" x1="-1820.0183" y1="-1217.0352" x2="-1928.5148" y2="-1237.2719" gradientTransform="matrix(-0.605 0.7962 0.7962 0.605 -110.3098 2352.3149)">
		<stop  offset="0" style="stop-color:#6C6C6C"/>
		<stop  offset="1" style="stop-color:#636363"/>
	</linearGradient>
	<polygon class="st23" points="11.8,161.9 69.9,67.6 52.4,130.9 	"/>
	
		<linearGradient id="SVGID_25_" gradientUnits="userSpaceOnUse" x1="-1887.5107" y1="-1152.4105" x2="-1861.8549" y2="-1252.615" gradientTransform="matrix(-0.605 0.7962 0.7962 0.605 -110.3098 2352.3149)">
		<stop  offset="0" style="stop-color:#ADADAD"/>
		<stop  offset="1" style="stop-color:#4F4F4F"/>
	</linearGradient>
	<polygon class="st24" points="115.7,148.3 20.4,108.2 52.4,130.9 	"/>
	
		<linearGradient id="SVGID_26_" gradientUnits="userSpaceOnUse" x1="-1955.7112" y1="-1126.0316" x2="-1992.2811" y2="-1211.4448" gradientTransform="matrix(-0.605 0.7962 0.7962 0.605 -110.3098 2352.3149)">
		<stop  offset="0" style="stop-color:#BBBBBB"/>
		<stop  offset="1" style="stop-color:#848484"/>
	</linearGradient>
	<polygon class="st25" points="196.5,102.5 150.7,21.7 133.2,85 	"/>
	
		<linearGradient id="SVGID_27_" gradientUnits="userSpaceOnUse" x1="-1913.0052" y1="-1144.3246" x2="-1949.5718" y2="-1229.7297" gradientTransform="matrix(-0.605 0.7962 0.7962 0.605 -110.3098 2352.3149)">
		<stop  offset="0" style="stop-color:#ABABAB"/>
		<stop  offset="1" style="stop-color:#535353"/>
	</linearGradient>
	<polygon class="st26" points="115.7,148.3 69.9,67.6 133.2,85 	"/>
	
		<linearGradient id="SVGID_28_" gradientUnits="userSpaceOnUse" x1="-1919.0737" y1="-1217.5206" x2="-2004.4886" y2="-1180.95" gradientTransform="matrix(-0.605 0.7962 0.7962 0.605 -110.3098 2352.3149)">
		<stop  offset="0" style="stop-color:#555555"/>
		<stop  offset="1" style="stop-color:#838383"/>
	</linearGradient>
	<polygon class="st27" points="69.9,67.6 150.7,21.7 133.2,85 	"/>
	
		<linearGradient id="SVGID_29_" gradientUnits="userSpaceOnUse" x1="-1986.1981" y1="-1138.2457" x2="-1900.7858" y2="-1174.8153" gradientTransform="matrix(-0.605 0.7962 0.7962 0.605 -110.3098 2352.3149)">
		<stop  offset="0" style="stop-color:#BCBCBC"/>
		<stop  offset="1" style="stop-color:#AAAAAA"/>
	</linearGradient>
	<polygon class="st28" points="196.5,102.5 115.7,148.3 133.2,85 	"/>
	
		<linearGradient id="SVGID_30_" gradientUnits="userSpaceOnUse" x1="-1983.3405" y1="-1151.6895" x2="-1998.0332" y2="-1145.4563" gradientTransform="matrix(-0.605 0.7962 0.7962 0.605 -110.3098 2352.3149)">
		<stop  offset="0" style="stop-color:#989898"/>
		<stop  offset="1" style="stop-color:#949494"/>
	</linearGradient>
	<polygon class="st29" points="174.6,79.9 188.5,71.9 177.6,69 	"/>
	
		<linearGradient id="SVGID_31_" gradientUnits="userSpaceOnUse" x1="-1977.0732" y1="-1116.8854" x2="-2013.6432" y2="-1202.2986" gradientTransform="matrix(-0.605 0.7962 0.7962 0.605 -110.3098 2352.3149)">
		<stop  offset="0" style="stop-color:#BBBBBB"/>
		<stop  offset="1" style="stop-color:#848484"/>
	</linearGradient>
	<polygon class="st30" points="196.5,102.5 150.7,21.7 177.6,69 	"/>
	
		<linearGradient id="SVGID_32_" gradientUnits="userSpaceOnUse" x1="-2010.3114" y1="-1203.2457" x2="-1993.1387" y2="-1142.7296" gradientTransform="matrix(-0.605 0.7962 0.7962 0.605 -110.3098 2352.3149)">
		<stop  offset="0" style="stop-color:#848484"/>
		<stop  offset="1" style="stop-color:#949494"/>
	</linearGradient>
	<polygon class="st31" points="150.7,21.7 188.5,71.9 177.6,69 	"/>
	
		<linearGradient id="SVGID_33_" gradientUnits="userSpaceOnUse" x1="-1986.5702" y1="-1147.2982" x2="-1981.8632" y2="-1116.1682" gradientTransform="matrix(-0.605 0.7962 0.7962 0.605 -110.3098 2352.3149)">
		<stop  offset="0" style="stop-color:#989898"/>
		<stop  offset="1" style="stop-color:#BBBBBB"/>
	</linearGradient>
	<polygon class="st32" points="174.6,79.9 196.5,102.5 177.6,69 	"/>
	
		<linearGradient id="SVGID_34_" gradientUnits="userSpaceOnUse" x1="-1964.2598" y1="-1199.7184" x2="-1928.9572" y2="-1143.0486" gradientTransform="matrix(-0.605 0.7962 0.7962 0.605 -110.3098 2352.3149)">
		<stop  offset="0" style="stop-color:#666666"/>
		<stop  offset="1" style="stop-color:#C1C1C1"/>
	</linearGradient>
	<polygon class="st33" points="107.2,68.5 131,130.9 150.3,87.8 	"/>
	
		<linearGradient id="SVGID_35_" gradientUnits="userSpaceOnUse" x1="-1982.7913" y1="-1150.4039" x2="-1997.4858" y2="-1144.17" gradientTransform="matrix(-0.605 0.7962 0.7962 0.605 -110.3098 2352.3149)">
		<stop  offset="0" style="stop-color:#9B9B9B"/>
		<stop  offset="1" style="stop-color:#969696"/>
	</linearGradient>
	<polygon class="st34" points="174.6,79.9 188.5,71.9 150.3,87.8 	"/>
	
		<linearGradient id="SVGID_36_" gradientUnits="userSpaceOnUse" x1="-1997.4702" y1="-1149.8446" x2="-1915.7856" y2="-1159.9303" gradientTransform="matrix(-0.605 0.7962 0.7962 0.605 -110.3098 2352.3149)">
		<stop  offset="0" style="stop-color:#9C9C9C"/>
		<stop  offset="1" style="stop-color:#BABABA"/>
	</linearGradient>
	<polygon class="st35" points="188.5,71.9 131,130.9 150.3,87.8 	"/>
	
		<linearGradient id="SVGID_37_" gradientUnits="userSpaceOnUse" x1="-1944.8446" y1="-1205.8021" x2="-1976.5269" y2="-1145.2644" gradientTransform="matrix(-0.605 0.7962 0.7962 0.605 -110.3098 2352.3149)">
		<stop  offset="0" style="stop-color:#646464"/>
		<stop  offset="1" style="stop-color:#9B9B9B"/>
	</linearGradient>
	<polygon class="st36" points="107.2,68.5 174.6,79.9 150.3,87.8 	"/>
	
		<linearGradient id="SVGID_38_" gradientUnits="userSpaceOnUse" x1="-1909.6711" y1="-1191.3572" x2="-1913.3871" y2="-1163.4874" gradientTransform="matrix(-0.605 0.7962 0.7962 0.605 -110.3098 2352.3149)">
		<stop  offset="0" style="stop-color:#707070"/>
		<stop  offset="1" style="stop-color:#ADADAD"/>
	</linearGradient>
	<polygon class="st37" points="93,117.2 117.4,131.1 112.2,111.9 	"/>
	
		<linearGradient id="SVGID_39_" gradientUnits="userSpaceOnUse" x1="-1945.4894" y1="-1211.4115" x2="-1910.1868" y2="-1154.7417" gradientTransform="matrix(-0.605 0.7962 0.7962 0.605 -110.3098 2352.3149)">
		<stop  offset="0" style="stop-color:#646464"/>
		<stop  offset="1" style="stop-color:#C1C1C1"/>
	</linearGradient>
	<polygon class="st38" points="107.2,68.5 131,130.9 112.2,111.9 	"/>
	
		<linearGradient id="SVGID_40_" gradientUnits="userSpaceOnUse" x1="-1922.3627" y1="-1157.7993" x2="-1914.0001" y2="-1168.4847" gradientTransform="matrix(-0.605 0.7962 0.7962 0.605 -110.3098 2352.3149)">
		<stop  offset="0" style="stop-color:#C2C2C2"/>
		<stop  offset="1" style="stop-color:#ADADAD"/>
	</linearGradient>
	<polygon class="st39" points="131,130.9 117.4,131.1 112.2,111.9 	"/>
	
		<linearGradient id="SVGID_41_" gradientUnits="userSpaceOnUse" x1="-1905.7213" y1="-1182.524" x2="-1953.1101" y2="-1200.6434" gradientTransform="matrix(-0.605 0.7962 0.7962 0.605 -110.3098 2352.3149)">
		<stop  offset="0" style="stop-color:#6F6F6F"/>
		<stop  offset="1" style="stop-color:#676767"/>
	</linearGradient>
	<polygon class="st40" points="93,117.2 107.2,68.5 112.2,111.9 	"/>
	
		<linearGradient id="SVGID_42_" gradientUnits="userSpaceOnUse" x1="-1880.4058" y1="-1170.4462" x2="-1900.8516" y2="-1151.8589" gradientTransform="matrix(-0.605 0.7962 0.7962 0.605 -110.3098 2352.3149)">
		<stop  offset="0" style="stop-color:#969696"/>
		<stop  offset="1" style="stop-color:#B7B7B7"/>
	</linearGradient>
	<polygon class="st41" points="96.7,153.8 123.9,148.8 107.8,137.7 	"/>
	
		<linearGradient id="SVGID_43_" gradientUnits="userSpaceOnUse" x1="-1897.4667" y1="-1189.7299" x2="-1901.1826" y2="-1161.8602" gradientTransform="matrix(-0.605 0.7962 0.7962 0.605 -110.3098 2352.3149)">
		<stop  offset="0" style="stop-color:#707070"/>
		<stop  offset="1" style="stop-color:#ADADAD"/>
	</linearGradient>
	<polygon class="st42" points="93,117.2 117.4,131.1 107.8,137.7 	"/>
	
		<linearGradient id="SVGID_44_" gradientUnits="userSpaceOnUse" x1="-1901.6482" y1="-1165.6395" x2="-1891.4276" y2="-1149.844" gradientTransform="matrix(-0.605 0.7962 0.7962 0.605 -110.3098 2352.3149)">
		<stop  offset="0" style="stop-color:#ADADAD"/>
		<stop  offset="1" style="stop-color:#B7B7B7"/>
	</linearGradient>
	<polygon class="st43" points="117.4,131.1 123.9,148.8 107.8,137.7 	"/>
	
		<linearGradient id="SVGID_45_" gradientUnits="userSpaceOnUse" x1="-1880.0585" y1="-1160.7244" x2="-1907.0004" y2="-1185.8081" gradientTransform="matrix(-0.605 0.7962 0.7962 0.605 -110.3098 2352.3149)">
		<stop  offset="0" style="stop-color:#959595"/>
		<stop  offset="1" style="stop-color:#6E6E6E"/>
	</linearGradient>
	<polygon class="st44" points="96.7,153.8 93,117.2 107.8,137.7 	"/>
	
		<linearGradient id="SVGID_46_" gradientUnits="userSpaceOnUse" x1="-1885.9741" y1="-1146.9846" x2="-1894.3348" y2="-1152.5586" gradientTransform="matrix(-0.605 0.7962 0.7962 0.605 -110.3098 2352.3149)">
		<stop  offset="0" style="stop-color:#B3B3B3"/>
		<stop  offset="1" style="stop-color:#B3B3B3"/>
	</linearGradient>
	<polygon class="st45" points="120,156.9 120.6,146.9 115.3,151.6 	"/>
	
		<linearGradient id="SVGID_47_" gradientUnits="userSpaceOnUse" x1="-1875.353" y1="-1164.8881" x2="-1895.7988" y2="-1146.3009" gradientTransform="matrix(-0.605 0.7962 0.7962 0.605 -110.3098 2352.3149)">
		<stop  offset="0" style="stop-color:#969696"/>
		<stop  offset="1" style="stop-color:#B7B7B7"/>
	</linearGradient>
	<polygon class="st46" points="96.7,153.8 123.9,148.8 115.3,151.6 	"/>
	
		<linearGradient id="SVGID_48_" gradientUnits="userSpaceOnUse" x1="-1892.8594" y1="-1146.3323" x2="-1892.394" y2="-1150.0552" gradientTransform="matrix(-0.605 0.7962 0.7962 0.605 -110.3098 2352.3149)">
		<stop  offset="0" style="stop-color:#B7B7B7"/>
		<stop  offset="1" style="stop-color:#B3B3B3"/>
	</linearGradient>
	<polygon class="st47" points="123.9,148.8 120.6,146.9 115.3,151.6 	"/>
	
		<linearGradient id="SVGID_49_" gradientUnits="userSpaceOnUse" x1="-1889.3969" y1="-1146.0426" x2="-1877.7815" y2="-1166.4857" gradientTransform="matrix(-0.605 0.7962 0.7962 0.605 -110.3098 2352.3149)">
		<stop  offset="0" style="stop-color:#B3B3B3"/>
		<stop  offset="1" style="stop-color:#959595"/>
	</linearGradient>
	<polygon class="st48" points="120,156.9 96.7,153.8 115.3,151.6 	"/>
	
		<linearGradient id="SVGID_50_" gradientUnits="userSpaceOnUse" x1="-1915.2498" y1="-1116.7925" x2="-1929.186" y2="-1157.6721" gradientTransform="matrix(-0.605 0.7962 0.7962 0.605 -110.3098 2352.3149)">
		<stop  offset="0" style="stop-color:#DADADA"/>
		<stop  offset="1" style="stop-color:#D8D8D8"/>
	</linearGradient>
	<polygon class="st49" points="168.2,145.7 144.1,109.9 138.2,139.9 	"/>
	
		<linearGradient id="SVGID_51_" gradientUnits="userSpaceOnUse" x1="-1892.1198" y1="-1137.7665" x2="-1900.485" y2="-1143.3434" gradientTransform="matrix(-0.605 0.7962 0.7962 0.605 -110.3098 2352.3149)">
		<stop  offset="0" style="stop-color:#B3B3B3"/>
		<stop  offset="1" style="stop-color:#B3B3B3"/>
	</linearGradient>
	<polygon class="st50" points="120,156.9 120.6,146.9 138.2,139.9 	"/>
	
		<linearGradient id="SVGID_52_" gradientUnits="userSpaceOnUse" x1="-1896.201" y1="-1144.9431" x2="-1939.8849" y2="-1148.6609" gradientTransform="matrix(-0.605 0.7962 0.7962 0.605 -110.3098 2352.3149)">
		<stop  offset="0" style="stop-color:#B1B1B1"/>
		<stop  offset="1" style="stop-color:#CECECE"/>
	</linearGradient>
	<polygon class="st51" points="120.6,146.9 144.1,109.9 138.2,139.9 	"/>
	
		<linearGradient id="SVGID_53_" gradientUnits="userSpaceOnUse" x1="-1929.4536" y1="-1118.1167" x2="-1891.3619" y2="-1149.7048" gradientTransform="matrix(-0.605 0.7962 0.7962 0.605 -110.3098 2352.3149)">
		<stop  offset="0" style="stop-color:#D9D9D9"/>
		<stop  offset="1" style="stop-color:#B2B2B2"/>
	</linearGradient>
	<polygon class="st52" points="168.2,145.7 120,156.9 138.2,139.9 	"/>
	
		<linearGradient id="SVGID_54_" gradientUnits="userSpaceOnUse" x1="-2001.2709" y1="-1086.0295" x2="-2002.9602" y2="-1178.9392" gradientTransform="matrix(-0.605 0.7962 0.7962 0.605 -110.3098 2352.3149)">
		<stop  offset="0" style="stop-color:#ACACAC"/>
		<stop  offset="1" style="stop-color:#888888"/>
	</linearGradient>
	<polygon class="st53" points="250.1,83.6 177.2,26.1 184.9,91.3 	"/>
	
		<linearGradient id="SVGID_55_" gradientUnits="userSpaceOnUse" x1="-1946.4086" y1="-1106.1702" x2="-1960.3448" y2="-1147.0498" gradientTransform="matrix(-0.605 0.7962 0.7962 0.605 -110.3098 2352.3149)">
		<stop  offset="0" style="stop-color:#D8D8D8"/>
		<stop  offset="1" style="stop-color:#C7C7C7"/>
	</linearGradient>
	<polygon class="st54" points="168.2,145.7 144.1,109.9 184.9,91.3 	"/>
	
		<linearGradient id="SVGID_56_" gradientUnits="userSpaceOnUse" x1="-1943.615" y1="-1139.198" x2="-2030.3815" y2="-1163.515" gradientTransform="matrix(-0.605 0.7962 0.7962 0.605 -110.3098 2352.3149)">
		<stop  offset="0" style="stop-color:#B5B5B5"/>
		<stop  offset="1" style="stop-color:#888888"/>
	</linearGradient>
	<polygon class="st55" points="144.1,109.9 177.2,26.1 184.9,91.3 	"/>
	
		<linearGradient id="SVGID_57_" gradientUnits="userSpaceOnUse" x1="-2028.9691" y1="-1101.6274" x2="-1929.9467" y2="-1129.3247" gradientTransform="matrix(-0.605 0.7962 0.7962 0.605 -110.3098 2352.3149)">
		<stop  offset="0" style="stop-color:#ACACAC"/>
		<stop  offset="1" style="stop-color:#D3D3D3"/>
	</linearGradient>
	<polygon class="st56" points="250.1,83.6 168.2,145.7 184.9,91.3 	"/>
	
		<linearGradient id="SVGID_58_" gradientUnits="userSpaceOnUse" x1="-1984.818" y1="-1205.3668" x2="-1942.0964" y2="-1122.8542" gradientTransform="matrix(-0.605 0.7962 0.7962 0.605 -110.3098 2352.3149)">
		<stop  offset="0" style="stop-color:#707070"/>
		<stop  offset="1" style="stop-color:#D1D1D1"/>
	</linearGradient>
	<polygon class="st57" points="109.8,52.7 149.7,136.6 171.7,74.8 	"/>
	
		<linearGradient id="SVGID_59_" gradientUnits="userSpaceOnUse" x1="-2003.6779" y1="-1085.9857" x2="-2005.3671" y2="-1178.8955" gradientTransform="matrix(-0.605 0.7962 0.7962 0.605 -110.3098 2352.3149)">
		<stop  offset="0" style="stop-color:#ACACAC"/>
		<stop  offset="1" style="stop-color:#888888"/>
	</linearGradient>
	<polygon class="st58" points="250.1,83.6 177.2,26.1 171.7,74.8 	"/>
	
		<linearGradient id="SVGID_60_" gradientUnits="userSpaceOnUse" x1="-2027.4482" y1="-1175.5577" x2="-1922.7493" y2="-1130.5807" gradientTransform="matrix(-0.605 0.7962 0.7962 0.605 -110.3098 2352.3149)">
		<stop  offset="0" style="stop-color:#888888"/>
		<stop  offset="1" style="stop-color:#C6C6C6"/>
	</linearGradient>
	<polygon class="st59" points="177.2,26.1 149.7,136.6 171.7,74.8 	"/>
	
		<linearGradient id="SVGID_61_" gradientUnits="userSpaceOnUse" x1="-1960.4562" y1="-1214.3241" x2="-2020.7675" y2="-1083.8871" gradientTransform="matrix(-0.605 0.7962 0.7962 0.605 -110.3098 2352.3149)">
		<stop  offset="0" style="stop-color:#707070"/>
		<stop  offset="1" style="stop-color:#ACACAC"/>
	</linearGradient>
	<polygon class="st60" points="109.8,52.7 250.1,83.6 171.7,74.8 	"/>
	
		<linearGradient id="SVGID_62_" gradientUnits="userSpaceOnUse" x1="-1866.7793" y1="-1209.8708" x2="-1881.1749" y2="-1118.0835" gradientTransform="matrix(-0.605 0.7962 0.7962 0.605 -110.3098 2352.3149)">
		<stop  offset="0" style="stop-color:#6A6A6A"/>
		<stop  offset="1" style="stop-color:#B7B7B7"/>
	</linearGradient>
	<polygon class="st61" points="44.8,154.5 126.6,198.5 107.7,135.6 	"/>
	
		<linearGradient id="SVGID_63_" gradientUnits="userSpaceOnUse" x1="-1947.5732" y1="-1224.6506" x2="-1904.8516" y2="-1142.1381" gradientTransform="matrix(-0.605 0.7962 0.7962 0.605 -110.3098 2352.3149)">
		<stop  offset="0" style="stop-color:#6F6F6F"/>
		<stop  offset="1" style="stop-color:#D0D0D0"/>
	</linearGradient>
	<polygon class="st62" points="109.8,52.7 149.7,136.6 107.7,135.6 	"/>
	
		<linearGradient id="SVGID_64_" gradientUnits="userSpaceOnUse" x1="-1915.7645" y1="-1152.5234" x2="-1852.5121" y2="-1133.4808" gradientTransform="matrix(-0.605 0.7962 0.7962 0.605 -110.3098 2352.3149)">
		<stop  offset="0" style="stop-color:#D0D0D0"/>
		<stop  offset="1" style="stop-color:#B7B7B7"/>
	</linearGradient>
	<polygon class="st63" points="149.7,136.6 126.6,198.5 107.7,135.6 	"/>
	
		<linearGradient id="SVGID_65_" gradientUnits="userSpaceOnUse" x1="-1845.5586" y1="-1184.9204" x2="-1965.9189" y2="-1194.6765" gradientTransform="matrix(-0.605 0.7962 0.7962 0.605 -110.3098 2352.3149)">
		<stop  offset="0" style="stop-color:#6D6D6D"/>
		<stop  offset="1" style="stop-color:#747474"/>
	</linearGradient>
	<polygon class="st64" points="44.8,154.5 109.8,52.7 107.7,135.6 	"/>
</g>
<g>
	<g>
		<path class="st65" d="M310.3,50.8c0,2.2,0.1,5.7-0.1,6.5c-0.4,1.4-2.1,2.8-5.7,3.1c-0.1-1.3-0.2-3.2-3.3-5.1v-0.2
			c1,0.1,2.6,0.2,3.3,0.2c1,0,1.3-0.1,1.4-0.5c0.1-0.5,0.1-2.2,0.1-2.8c-1.7,0.4-4.6,1.1-6.6,1.4c-0.1,0.7-0.3,1.2-0.8,1.2
			c-0.3,0-0.6-0.3-0.8-0.6l-2.3-5c1.7,0.4,2.3,0.4,3.3,0.4c2.2,0,4.9-0.2,7.1-0.4c0-1.2-0.1-1.9-0.4-3.4l3.6,0.8
			c1.2-1.5,1.3-1.7,1.5-2.1h-8.1c-2.7,0-3.9,0.2-4.4,0.3l-0.8-1.8c2.3,0.2,4.7,0.3,5.8,0.3h7.5l1.3-1.2c0.1-0.1,0.3-0.3,0.5-0.4
			c-0.5-0.3-0.5-0.5-0.5-1.4h-7.2c0.1,2.1-2.7,2.2-2.8,2.2c-0.9,0-1.7-0.3-1.7-1.4c0-0.6,0.1-3.1,0.1-3.7c0-2.7-0.1-3.7-0.2-4.6
			l4.5,1.5h6.9l1.2-1.4c0.2-0.2,0.4-0.5,0.7-0.5c0.3,0,0.7,0.3,0.9,0.5l2.6,1.9c0.2,0.1,0.4,0.4,0.4,0.7c0,0.5-0.6,0.9-1.3,1.4
			c0,0.5,0,3-0.1,3.5c-0.1,0.9-1.4,1.3-2.3,1.4c0.1,0,0.3,0.1,0.4,0.2l2.6,1.8c0.2,0.1,0.4,0.4,0.4,0.7c0,0.7-0.7,0.9-1.6,0.8
			c-0.9,0.3-3.6,1.2-4.7,1.6c0,0.1,0.1,0.2,0.1,0.4c0,0.3-0.5,0.7-0.8,0.8c0,0.2,0,0.4,0,0.6c1.8-0.1,5.8-0.5,7.3-0.8v0.3
			C315.9,49.2,311.8,50.4,310.3,50.8z M318.9,31.2h-16.4c-2.9,0-4,0.1-5.2,0.3l-0.8-1.8c2.9,0.2,6.3,0.3,6.9,0.3h2.8
			c0-2.2,0-2.5-0.7-5.8l5.8,1.4c0.2,0,0.7,0.2,0.7,0.7c0,0.5-0.6,1-1.3,1.4c0,0.7,0,1.8,0,2.4h2.4l1.5-2.5c0.1-0.1,0.3-0.6,0.7-0.6
			c0.3,0,0.7,0.3,0.9,0.5l3,2.5c0.2,0.2,0.5,0.4,0.5,0.7C319.6,31.1,319.1,31.2,318.9,31.2z M299.7,69.3c-2,0-2.8-1.5-2.8-2.6
			c0-1.3,0.9-1.9,2.2-2.7c0.9-0.5,3.2-2.8,3.8-4.6h0.4c0.2,0.7,0.5,1.9,0.5,3.6C303.8,63.9,303.8,69.3,299.7,69.3z M311.9,35.2h-7.2
			v3.7h7.2V35.2z M314.6,68.9c-2.5,0-2.7-2.1-2.9-3.5c-0.2-1.7-0.3-3-1.7-5.7l0.2-0.3c5.7,2.5,7.1,4.5,7.1,6.7
			C317.2,68.1,315.8,68.9,314.6,68.9z M339.9,53.7c0,1,0.2,1.3,0.5,2c0.1,0.3,0.2,0.7,0.2,1.2c0,1-0.8,1.6-1.9,1.6
			c-1.6,0-5.5-1.4-7.2-7.4c-1-3.7-1.8-8.4-1.5-15.9h-3.2c-0.3,3.4-0.9,6.1-1.5,8.6c2.4,1.6,3.8,3.4,3.8,4.7c0,0.2,0,2.8-2.4,2.8
			c-1.5,0-1.8-0.9-2.1-1.6c-0.2-0.5-0.5-1.1-0.6-1.4c-1.3,3.2-4.3,8.3-11.6,10.3l-0.1-0.3c4.5-3.4,7.6-8.3,9-13.8
			c-1.6-2.1-2.6-2.9-3.2-3.4l0.2-0.3c1.5,0.4,2.4,0.7,3.6,1.2c0.7-3.8,0.8-5.7,0.8-6.7c-1.6,0-2.3,0.1-3.5,0.3l-0.8-1.8
			c1.3,0.1,2.2,0.2,4.3,0.3c0.1-5.4-0.4-8.1-0.6-9.3l5.6,1.2c0.4,0.1,0.9,0.4,0.9,0.8c0,0.6-1,1.1-1.4,1.3c0,1.4,0,3.2-0.2,6h2.8
			l1.6-1.8c0.1-0.1,0.4-0.5,0.7-0.5c0.2,0,0.6,0.3,0.9,0.5l2.8,2.1c0.2,0.2,0.5,0.5,0.5,0.8c0,0.6-0.8,1.1-1.7,1.6
			c-0.1,0.9-0.2,1.9-0.2,3.4c0,5.5,1.7,11.5,3,11.5c0.7,0,2.5-2.6,3.2-3.6l0.3,0.2C340.4,49.4,339.9,52.9,339.9,53.7z M324.9,68.4
			c-2.2,0-2.5-2-2.7-3c-0.6-3.5-1.9-5.2-2.6-6.2l0.1-0.2c6.6,1.5,7.9,5.3,7.9,6.5C327.6,67.1,326.5,68.4,324.9,68.4z M336.9,68.9
			c-1.5,0-2.5-1-3.3-3c-1-2.3-3.3-5.6-4.4-6.6v-0.3c4.8,0.8,10.3,3.5,10.3,7.1C339.5,67.2,338.8,68.9,336.9,68.9z"/>
		<path class="st65" d="M398.8,39.1h-11.4l3.1,1.8c0.3,0.2,0.6,0.3,0.6,0.7c0,0.5-1,0.9-2.2,1.2c-2.5,7.1-4.5,10.5-6,12.7
			c4,1.5,6.3,2.4,8.8,4.3c0.6,0.4,3.7,2.8,3.7,5.5c0,1.5-1.2,2.8-2.9,2.8c-1.1,0-2-0.7-2.7-1.4c-1.9-2.3-3.1-3.8-9.4-8
			c-5.7,6.6-14.9,9.5-23.3,10.1v-0.4c8.9-2.5,14.8-6.7,18.8-11.2c0.2-0.2,0.5-0.6,0.7-0.8c-4-2-6.7-3-7.9-3.4
			c-1.1,2.3-1.5,3.4-3.4,3.4c-1.4,0-3-0.6-3-2.1c0-0.6,1.3-2.9,1.5-3.3c0.1-0.3,3.7-8.5,5-11.9h-6.8c-2.9,0-4,0.1-5.2,0.3l-0.8-1.8
			c2.9,0.3,6.4,0.3,6.9,0.3h6.3c1.3-3.7,3.5-9.9,3.3-13.3l6.5,2.7c0.3,0.1,0.7,0.3,0.7,0.7c0,0.6-0.8,0.9-1.9,1.3
			c-0.5,1.4-2.8,7.4-3.2,8.6h16l2.4-3.6c0.1-0.2,0.4-0.6,0.7-0.6c0.2,0,0.6,0.3,0.9,0.5l4.6,3.5c0.3,0.2,0.5,0.5,0.5,0.7
			C399.5,39,399.1,39.1,398.8,39.1z M374.1,39.1c-0.6,1.6-0.7,1.8-1.1,2.9c-0.8,2-3.3,8.9-3.8,10c3.8,0.6,6.6,1.3,9.1,2
			c3.4-5.6,4.9-12,5.5-14.9H374.1z"/>
		<path class="st65" d="M425.1,37.8c0.4,0.1,0.8,0.5,0.8,0.8c0,0.6-0.7,1-1.8,1.4c0,3.2-0.1,12.1-0.1,15.3c0,1.5,0.2,8.6,0.2,10.6
			c0,2.1-1.8,2.9-3.2,2.9c-1.7,0-1.7-0.8-1.7-2.4c0-1.1,0.1-5.9,0.1-7c0-2.4,0.1-4.8,0.1-14.5v-1.5c-2.1,3-4.3,5-5.5,6.2l-0.1-0.2
			c4.2-7.3,8.6-19.7,8.6-23c0-0.6-0.2-1.6-0.3-2l5.7,2.6c0.3,0.1,0.7,0.3,0.7,0.9c0,0.5-0.5,0.7-1.5,1.2c-0.6,1.6-1.6,4.2-3.6,8.2
			L425.1,37.8z M425.1,68.4c4-3,9-8.8,9.6-9.9c0.4-0.8,0.4-1.6,0.4-2.1l4.9,3.3c0.3,0.2,0.5,0.5,0.5,0.9c0,0.8-0.7,0.9-2.4,1.2
			c-2.9,2.7-8,5.5-12.8,6.9L425.1,68.4z M451.3,54.4l1.9-3.2c0.2-0.3,0.5-0.7,0.7-0.7c0.2,0,0.7,0.3,0.9,0.5l3.8,3.2
			c0.2,0.2,0.5,0.4,0.5,0.8c0,0.4-0.4,0.5-0.8,0.5h-27.1c-2.8,0-3.8,0.1-5,0.3l-0.8-1.7c2,0.1,4.6,0.2,6.7,0.2H451.3z M447.5,28.4
			l1.7-1.9c0.2-0.2,0.5-0.5,0.8-0.5c0.2,0,0.5,0.2,0.9,0.5l3,2.4c0.2,0.2,0.4,0.5,0.4,0.8c0,0.6-0.3,1-1.9,1.7v8.7
			c0,1.4,0.3,7.8,0.3,9.1c0,1.6-1.6,2.6-3.3,2.6c-0.5,0-1.7,0-1.6-1.5c0,0,0-0.6,0-0.7h-12.7c0,0.7,0,1.2-0.2,1.5
			c-0.5,0.8-1.8,1.3-3,1.3c-1.4,0-1.6-1-1.6-1.9c0-0.5,0.1-2.4,0.1-2.8c0-1.8,0.2-7.2,0.2-12.8c0-5.3-0.2-6.9-0.7-9l5.6,2.5H447.5z
			 M435.2,29.6V35h12.7v-5.5H435.2z M435.2,36.2v5.4h12.7v-5.4H435.2z M435.2,42.8v5.7h12.7v-5.7H435.2z M443.7,57.3
			c6.5,1.6,12.4,6.2,12.4,9.2c0,1.4-1.3,2.5-2.5,2.5c-1.5,0-2-0.9-3.5-3.5c-1.7-3-4.6-6.7-6.4-7.9V57.3z"/>
		<path class="st65" d="M479.4,47.6c-0.5,1.3-0.5,1.4-0.8,1.4c-0.4,0-0.4-0.1-0.7-0.6l-3.1-5.3c2.9,0,9.8-2.6,12.6-4.2l0.1,0.3
			C486,41.3,484.9,42.3,479.4,47.6z M513.4,67.2c-8.2-3.4-12.6-9.7-14.4-13.6h-0.1c0,3.5,0.1,9.2,0.1,12.7c0,0.8,0,2.9-2.9,2.9
			c-2.1,0-2.1-0.8-2.1-1.8c0-0.4,0.2-8.4,0.2-10c-5.6,5.4-13.8,8.6-18.7,10.1l-0.1-0.3c6.5-3.9,12.8-10,15.2-13.7h-9.1
			c-3.3,0-4.3,0.1-5.2,0.3l-0.8-1.7c2.3,0.2,4.6,0.3,6.9,0.3h11.7c0-2.5-0.1-3.3-0.4-5l5.2,1.1c0.9,0.2,1,0.4,1,0.8
			c0,0.2,0,0.3-0.2,0.5c-0.1,0.1-0.7,0.8-0.8,0.9v1.8h10.9l2.2-3c0.2-0.3,0.5-0.6,0.8-0.6c0.2,0,0.6,0.3,0.9,0.5l3.3,2.9
			c0.2,0.2,0.5,0.4,0.5,0.7c0,0.5-0.5,0.5-0.8,0.5h-16.5c3.6,3.5,11,7.4,17.9,8v0.3C516.1,62.8,514.7,64,513.4,67.2z M482.5,36.6
			c-1.4,0-2.2-1.1-3.1-3.4c-1-2.6-1.4-3.2-2.9-5l0.1-0.3c2.1,0.4,8.7,1.8,8.7,5.7C485.3,34.7,484.4,36.6,482.5,36.6z M505,34
			c0,1.8,0.2,9.9,0.2,11.5c0,1.4-0.6,2.8-3,2.8c-1.8,0-1.8-1.1-1.8-2.4h-8c0,1.4,0,1.6-0.1,1.9c-0.3,0.9-1.6,1.4-2.8,1.4
			c-1.8,0-1.8-1.3-1.8-1.7c0-1.6,0.2-8.7,0.2-10.2c0-5.3-0.3-7.3-0.5-8.6l5.1,2.3h0.5c0.1-0.9,0.4-2.3,0.4-4.7c0-1,0-1.6-0.1-2.1
			l6.4,2c0.3,0.1,0.6,0.2,0.6,0.5c0,0.5-0.8,0.8-1.6,1c-0.6,0.5-3.4,2.9-3.9,3.3h5.5l1.3-1.6c0.2-0.3,0.4-0.4,0.8-0.4
			s0.5,0.1,0.9,0.4l2.8,2.3c0.2,0.2,0.5,0.4,0.5,0.8C506.4,32.9,506.3,33,505,34z M500.5,32.1h-8v5.4h8V32.1z M500.5,38.6h-8v6.1h8
			V38.6z M514.4,47.3c-1.4,0-1.9-0.7-3.3-2.9c-0.7-1.2-3.1-3.9-5-5.3v-0.3c6.5,1.2,7.2,1.6,8.2,2.2c0.7,0.4,2.7,1.7,2.7,3.6
			C517,45.9,516.1,47.3,514.4,47.3z M515.1,32.4c-2.5,1.5-7.7,4-8.7,4.5l-0.2-0.3c3.4-4.2,5.1-9.1,5.2-9.6l5.2,4
			c0.3,0.2,0.4,0.5,0.4,0.8C517,32.5,516.4,32.5,515.1,32.4z"/>
		<path class="st65" d="M559.9,46.3h-19.1c-2.9,0-4,0.1-5.2,0.3l-0.8-1.8c2.9,0.3,6.3,0.3,6.9,0.3h6.1c1.4-3.5,2.3-7.2,2.5-11
			l5.5,2.1c0.3,0.1,0.7,0.3,0.7,0.9c0,0.5-0.5,0.8-1.6,1.1c-1.7,2.3-4.3,5.3-5.8,6.9h4.4l2.1-2.7c0.3-0.4,0.5-0.6,0.7-0.6
			c0.3,0,0.6,0.2,0.9,0.5l2.9,2.7c0.3,0.3,0.5,0.5,0.5,0.8C560.6,46.3,560.2,46.3,559.9,46.3z M558.4,33.5h-16.6
			c-2.9,0-4,0.1-5.2,0.3l-0.8-1.8c2.9,0.2,6.3,0.3,6.9,0.3h2.1c0.1-4.2-0.4-5.7-0.9-7.3l6.7,1.5c0.4,0.1,1,0.2,1,0.8
			c0,0.5-0.2,0.6-1.9,1.4c0,0.9,0,2.1-0.1,3.6h2.7l1.9-2.6c0.2-0.3,0.4-0.6,0.7-0.6c0.3,0,0.5,0.2,0.9,0.5l2.9,2.6
			c0.2,0.2,0.5,0.4,0.5,0.7C559.2,33.4,558.8,33.5,558.4,33.5z M556.1,54.5c0,1.6,0.1,8.9,0.1,10.4c0,2.7-2.6,2.7-2.9,2.7
			c-2,0-2-1.3-1.9-2.9h-8.2c0,0.1,0.1,1,0.1,1.1c0,2.6-3.1,2.6-3.3,2.6c-1.8,0-1.8-1.2-1.8-2c0-1.8,0.2-9.9,0.2-11.5
			c0-1.8,0-2.9-0.4-5.5l5.6,2.2h7.4l1.4-1.6c0.2-0.3,0.6-0.7,0.8-0.7c0.1,0,0.3,0.1,0.8,0.5l3.1,2.3c0.3,0.2,0.6,0.4,0.6,0.9
			C557.7,53.3,556.8,54,556.1,54.5z M543.5,44.2c-2,0-2.3-1.5-2.6-3c-0.1-0.4-0.7-3.4-2.1-5.9l0.2-0.2c3.2,1.1,7.1,2.6,7.1,6.2
			C546.1,43.2,544.9,44.2,543.5,44.2z M551.4,52.6h-8.2v10.9h8.2V52.6z M569.7,65.3c0-0.6-0.4-4.3-3.8-6c0,1.2,0,8-0.1,8.5
			c-0.3,1-1.6,1.6-2.9,1.6c-2.2,0-2.2-1.2-2.2-2.1c0-1.4,0.2-3.5,0.2-4.9c0.1-3.6,0.2-5,0.2-19c0-4.7,0-12.8-0.7-16.9l5.9,2.5h4.4
			l1.3-1.3c0.3-0.3,0.7-0.7,0.9-0.7c0.2,0,0.5,0.2,0.8,0.4l3.3,2.8c0.2,0.2,0.6,0.5,0.6,0.9c0,0.6-0.2,0.7-1.8,1.5
			c-0.9,1.9-6.3,10.2-6.9,11c3,1.9,9.2,5.7,9.2,13.1C578.1,57.5,578.1,63.8,569.7,65.3z M567.7,44.1c1.4-4,2.8-11,3-14h-4.9
			c0,0.9,0,26.4,0,28.7c1,0.1,1.6,0.1,2.4,0.1c3.3,0,4.7-0.9,4.7-3.9C573,50.1,570.2,46.5,567.7,44.1z"/>
	</g>
	<g>
		<g>
			<path class="st65" d="M347.5,99.2h1.5v28.7h-1.5c-1.8-6.9-3.8-12.3-6-16.2c-1.6-2.7-3.7-5.1-6.1-7.2c-2.4-2.1-5.2-3.7-8.2-4.8
				c-3-1.2-6.1-1.8-9.2-1.8c-2.3,0-4.4,0.5-6.2,1.4c-1.8,0.9-3.4,2.3-4.6,4.1c-0.9,1.3-1.6,2.7-2.1,4.3s-0.8,3.1-0.8,4.6
				c0,2.8,0.8,5.2,2.3,7.2c0.7,1,1.7,2,3,2.9c1.3,0.9,3,1.8,5,2.7c2.1,0.9,4.9,2,8.6,3.2c1,0.4,1.7,0.7,2.1,0.8l2.1,0.7l3.3,1.2
				c5.5,2,9.6,3.8,12.1,5.4c2.5,1.6,4.7,3.6,6.5,6.2c1.4,1.9,2.5,4.1,3.2,6.6c0.8,2.5,1.2,5.2,1.2,8.1c0,2.9-0.4,5.8-1.3,8.6
				c-0.9,2.9-2.1,5.4-3.7,7.6c-2.1,3-4.6,5.3-7.6,6.8c-3,1.5-6.5,2.3-10.4,2.3c-2.7,0-5.3-0.4-7.6-1.2c-2.4-0.8-5.3-2.2-8.7-4.3
				c-2.2-1.3-3.9-2.1-5.1-2.6s-2.3-0.7-3.3-0.7c-2,0-3.7,0.7-5,2.2c-1.4,1.5-2.3,3.6-2.7,6.4h-1.5v-38.7h1.5
				c0.6,6.9,2.5,13.1,5.8,18.7c2,3.3,4.5,6.3,7.6,9.1c3.1,2.8,6.3,5,9.7,6.6c3.4,1.6,6.6,2.3,9.6,2.3c2.7,0,5.2-0.6,7.4-1.9
				s4-3.1,5.3-5.3c1.3-2.3,1.9-4.8,1.9-7.7c0-3-0.9-5.8-2.6-8.2c-0.8-1.1-1.8-2.1-3-3s-2.8-1.9-4.8-2.8c-2-1-4.7-2.1-8.1-3.4
				l-4.2-1.6c-6.5-2.5-11.1-4.5-13.6-5.9c-2.8-1.5-5-3-6.6-4.4c-1.6-1.5-3-3.4-4.2-5.6c-1.7-3.2-2.6-6.7-2.6-10.5
				c0-4.6,1-8.8,2.9-12.5c1.9-3.7,4.6-6.6,8.1-8.6c3.5-2.1,7.3-3.1,11.5-3.1c6.4,0,13,2.5,19.8,7.6c2.4,1.7,4,2.6,4.9,2.6
				C345,106.1,346.5,103.8,347.5,99.2z"/>
			<path class="st65" d="M378.3,178.8h1.9c3.6,0,6.3-1.2,8-3.7c1.7-2.5,2.6-6.3,2.6-11.5c0.4-2.8,0.6-5.5,0.7-8
				c0.1-2.5,0.1-6.3,0.1-11.4c-0.1-5.4-0.2-11.4-0.4-18c-0.2-6.6-0.4-10.9-0.5-12.8c-0.2-2.9-0.5-5.1-0.9-6.6
				c-0.4-1.5-1.1-2.8-2.1-3.8c-1.7-2.1-4.2-3.2-7.5-3.2h-2v-2.2h36.9v2.2h-1.3c-3.6,0-6.3,1.2-8,3.7c-1.7,2.5-2.6,6.3-2.6,11.5v22.4
				h31.5V115c0-5.2-0.9-9-2.6-11.5c-1.7-2.5-4.4-3.7-8-3.7h-1.2v-2.2h36.6v2.2h-1.7c-3.6,0-6.2,1.2-8,3.7c-1.8,2.5-2.6,6.3-2.6,11.5
				v48.7c0,5.1,0.9,8.9,2.7,11.4c1.8,2.5,4.4,3.8,8,3.8h1.7v2.3h-36.6v-2.3h1.2c3.6,0,6.3-1.2,8-3.7c1.7-2.5,2.6-6.3,2.6-11.5v-23.8
				h-31.5v23.8c0,5.1,0.9,8.9,2.7,11.4c1.8,2.5,4.4,3.8,8,3.8h1.3v2.3h-36.8V178.8z"/>
			<path class="st65" d="M517.1,95.9h1.6l23.5,73.1c0.8,2.3,1.6,4.1,2.5,5.6c0.9,1.5,2,2.5,3.2,3.2s2.6,1,4.1,1h1.6v2.3h-34v-2.3
				h4.4c2.2,0,3.8-0.4,4.8-1.3c1-0.9,1.5-2.2,1.5-4c0-1.1-0.2-2.5-0.6-4.1c-0.4-1.6-1.3-4.5-2.7-8.7c-0.1-0.2-0.2-0.6-0.4-1.2
				c-0.2-0.6-0.3-1.1-0.5-1.6l-1-3.1h-24.8l-1.9,6.2c-0.6,2.1-0.9,4.3-0.9,6.4c0,1.8,0.4,3.6,1.1,5.4c0.7,1.8,1.6,3.2,2.8,4.1
				c0.8,0.6,1.4,1.1,2,1.3c0.6,0.2,1.5,0.4,2.6,0.4v2.3h-23.8v-2.3c1.7-0.3,3.1-0.7,4.1-1.3c1-0.6,2.2-1.6,3.4-3
				c3-3.3,5.9-9.4,8.7-18.5L517.1,95.9z M512.7,115.5l-11.5,37.3h23.3L512.7,115.5z"/>
			<path class="st65" d="M617,140.2h-13.2v23.4c0,5.1,0.9,8.9,2.6,11.4c1.8,2.5,4.4,3.8,8,3.8h1.7v2.3h-36.9v-2.3h1.6
				c3.6,0,6.3-1.2,8-3.7c1.7-2.5,2.6-6.3,2.6-11.5V115c0-5.2-0.9-9-2.6-11.5c-1.7-2.5-4.4-3.7-8-3.7h-1.6v-2.2h45.4
				c6.1,0,11,0.6,14.6,1.9s6.4,3.4,8.5,6.5c1.2,1.7,2.2,3.8,2.9,6.1c0.7,2.4,1.1,4.7,1.1,7c0,6.3-2.3,11.4-6.9,15.2
				c-1.7,1.3-4,2.5-7,3.5c-2.9,1-5.8,1.7-8.8,2.1c-2.2,0.2-5.6,0.4-10.1,0.4v0.2c2.2,2.1,4.3,3.8,6.1,5.1c1.8,1.4,3.6,2.5,5.5,3.4
				c1.8,0.9,3.9,1.8,6.3,2.5l1.4,3c0.9,1.9,1.6,3.4,2.1,4.3c0.4,1,1,2.1,1.6,3.3c1.6,3.4,3.1,6.3,4.5,8.8c1.4,2.5,2.6,4.2,3.5,5.2
				c1.8,1.7,4.4,2.6,7.8,2.6h1.6v2.3h-22L617,140.2z M603.9,138h16.7c3.9,0,7.2-0.7,9.7-2.1c2.5-1.4,4.4-3.5,5.7-6.3
				s1.9-6.4,1.9-10.9c0-12.7-5.7-19-17-19h-16.9V138z"/>
			<path class="st65" d="M683.2,97.6h40.6v2.2h-4.6c-3.6,0-6.2,1.2-8,3.7c-1.8,2.5-2.6,6.3-2.6,11.5v42.4c0,4.8,0.8,9,2.3,12.4
				c1.6,3.5,3.8,6.1,6.7,8c2.9,1.9,6.4,2.8,10.5,2.8c3.5,0,6.9-0.7,9.9-2.2c3.1-1.5,5.5-3.5,7.3-6c3.3-4.9,5-11.7,5-20.5v-29.9
				c0-9.6-2-16.1-5.9-19.5c-1.1-1-2.3-1.7-3.5-2.1c-1.2-0.4-3-0.6-5.3-0.7v-2.2H764v2.2c-1.8,0.2-3.2,0.5-4.2,1
				c-1,0.5-2.1,1.3-3.2,2.4c-1.6,1.7-2.8,4-3.6,6.9c-0.8,2.9-1.3,6.2-1.3,10.1v33.3c0,8.9-1.7,15.6-5.1,20.3c-1.9,2.6-3.9,4.4-6,5.5
				c-4.5,2.4-9.8,3.6-16,3.6c-4.6,0-8.7-0.6-12.4-1.9c-3.7-1.3-6.8-3.1-9.2-5.4c-4.6-4.5-6.9-11-6.9-19.4V115
				c0-10.1-3.5-15.2-10.6-15.2h-2.4V97.6z"/>
			<path class="st65" d="M826.9,140.2h-13.2v23.4c0,5.1,0.9,8.9,2.6,11.4c1.8,2.5,4.4,3.8,8,3.8h1.7v2.3h-36.9v-2.3h1.6
				c3.6,0,6.3-1.2,8-3.7c1.7-2.5,2.6-6.3,2.6-11.5V115c0-5.2-0.9-9-2.6-11.5c-1.7-2.5-4.4-3.7-8-3.7h-1.6v-2.2h45.4
				c6.1,0,11,0.6,14.6,1.9s6.4,3.4,8.5,6.5c1.2,1.7,2.2,3.8,2.9,6.1c0.7,2.4,1.1,4.7,1.1,7c0,6.3-2.3,11.4-6.9,15.2
				c-1.7,1.3-4,2.5-7,3.5c-2.9,1-5.8,1.7-8.8,2.1c-2.2,0.2-5.6,0.4-10.1,0.4v0.2c2.2,2.1,4.3,3.8,6.1,5.1c1.8,1.4,3.6,2.5,5.5,3.4
				c1.8,0.9,3.9,1.8,6.3,2.5l1.4,3c0.9,1.9,1.6,3.4,2.1,4.3c0.4,1,1,2.1,1.6,3.3c1.6,3.4,3.1,6.3,4.5,8.8c1.4,2.5,2.6,4.2,3.5,5.2
				c1.8,1.7,4.4,2.6,7.8,2.6h1.6v2.3h-22L826.9,140.2z M813.8,138h16.7c3.9,0,7.2-0.7,9.7-2.1c2.5-1.4,4.4-3.5,5.7-6.3
				s1.9-6.4,1.9-10.9c0-12.7-5.7-19-17-19h-16.9V138z"/>
			<path class="st65" d="M893.1,97.6h40.6v2.2H929c-3.6,0-6.2,1.2-8,3.7c-1.8,2.5-2.6,6.3-2.6,11.5v42.4c0,4.8,0.8,9,2.3,12.4
				c1.6,3.5,3.8,6.1,6.7,8c2.9,1.9,6.4,2.8,10.5,2.8c3.5,0,6.9-0.7,9.9-2.2c3.1-1.5,5.5-3.5,7.3-6c3.3-4.9,5-11.7,5-20.5v-29.9
				c0-9.6-2-16.1-5.9-19.5c-1.1-1-2.3-1.7-3.5-2.1s-3-0.6-5.3-0.7v-2.2h28.4v2.2c-1.8,0.2-3.2,0.5-4.2,1c-1,0.5-2.1,1.3-3.2,2.4
				c-1.6,1.7-2.8,4-3.6,6.9c-0.8,2.9-1.3,6.2-1.3,10.1v33.3c0,8.9-1.7,15.6-5.1,20.3c-1.9,2.6-3.9,4.4-6,5.5
				c-4.5,2.4-9.8,3.6-16,3.6c-4.6,0-8.7-0.6-12.4-1.9c-3.7-1.3-6.8-3.1-9.2-5.4c-4.6-4.5-6.9-11-6.9-19.4V115
				c0-10.1-3.5-15.2-10.6-15.2h-2.4V97.6z"/>
		</g>
		<g>
			<path class="st65" d="M853.6,211.1c-0.5,0-0.8-0.2-1.6-0.9c-3.3-2.3-4.9-2.9-6.5-3.4c0.9-0.1,1.7-0.2,2.9-0.2
				c4.1,0,6.1,1.6,6.1,3.2C854.6,210.7,854.2,211.1,853.6,211.1z M856.4,203.7c-0.4,0-0.7-0.3-1.2-0.7c-3.3-3-5.2-3.6-6.2-3.9
				c0.7-0.1,1.3-0.2,2.1-0.2c4.4,0,6.3,1.9,6.3,3.5C857.4,202.9,857.2,203.7,856.4,203.7z M855.6,221.4c-1.3,1-1.4,1.1-2.3,2
				c-0.2,0.3-0.6,0.5-0.9,0.5c-0.7,0-3.3-1.9-3.3-4.6c0-0.3,0-0.5,0.1-0.8c0.7,0.9,2.2,2,2.7,2c2.2,0,12.8-8.6,18.3-15.7l0.2,0.1
				C869.3,207.9,865.3,214.4,855.6,221.4z"/>
			<path class="st65" d="M901.2,209.8c-0.5,0.1-0.7,0.2-2.1,1.9c-0.4,0.5-2.1,2.4-3.6,3.7l-0.2-0.2c2.2-3.7,2.8-5.3,3.3-6.5
				c-2,0.6-2.4,0.7-7.5,2.3c0.9,3.9,2.1,7.8,3.4,11.7c0.2,0.7,0.4,1.1,0.4,1.6c0,0.5-0.2,1.1-0.7,1.1c-1,0-1.9-1.3-2.1-2.7
				c-0.3-3.2-1.7-8.2-2.5-11.2c-2,0.6-4.4,1.4-5.1,2c-0.7,0.6-0.7,0.6-0.9,0.6c-0.5,0-2.6-1.8-2.6-3.3c0-0.4,0.1-0.6,0.1-0.9
				c0.9,1.1,1.4,1.6,2.1,1.6c0.4,0,1-0.1,1.3-0.2c2.7-0.7,3-0.8,4.7-1.2c-1.4-5.1-1.4-5.1-4.1-5.1c0.8-1.3,2.3-1.4,2.5-1.4
				c0.6,0,2.8,0.4,2.8,1.1c0,0.2-0.1,0.8-0.1,1c0,1.2,0.3,2.8,0.6,3.9c5.1-1.3,7.1-1.8,7.8-2.3c0.8-0.7,0.9-0.7,1-0.7
				c0.2,0,2.8,1.9,2.8,2.5C902.4,209.5,902.4,209.5,901.2,209.8z"/>
			<path class="st65" d="M921,205.6c-0.1,0.8-0.3,4.3-0.4,5c-0.9,7.3-5.3,11.2-8.2,12.4l-0.2-0.2c6.3-5.9,6.3-13.3,6.3-16.1
				c0-2.8,0-2.8-2.6-3.5c0.5-0.4,1.3-0.9,2.2-0.9c0.9,0,3.2,0.7,3.2,1.7C921.4,204.2,921.1,205.3,921,205.6z M929.3,219.6
				c-1.2,0.8-1.3,1-2.1,1.9c-0.2,0.2-0.5,0.5-0.7,0.5c-0.6,0-2.2-2.8-2.2-3.2c0-0.2,0.4-1.3,0.4-1.5c0.3-1.4,0.3-5.9,0.3-6.8
				c0-1.3,0-7.6-0.2-8.4c-0.1-0.6-0.8-1.1-2.4-1.6c0.4-0.3,1.1-0.7,1.9-0.7c1,0,3.7,1,3.7,2c0,0.3-0.4,1.7-0.5,1.9
				c-0.3,1.7-0.5,11.3-0.5,13.3c0,0.1,0,0.6,0.2,0.6c0.8,0,7-3.9,12.3-10.7l0.3,0.2C937.5,212.8,932.6,217.3,929.3,219.6z"/>
			<path class="st65" d="M955.1,205.6c-0.1,0.8-0.3,4.3-0.4,5c-0.9,7.3-5.3,11.2-8.2,12.4l-0.2-0.2c6.3-5.9,6.3-13.3,6.3-16.1
				c0-2.8,0-2.8-2.6-3.5c0.5-0.4,1.3-0.9,2.2-0.9c0.9,0,3.2,0.7,3.2,1.7C955.5,204.2,955.1,205.3,955.1,205.6z M963.4,219.6
				c-1.2,0.8-1.3,1-2.1,1.9c-0.2,0.2-0.5,0.5-0.7,0.5c-0.6,0-2.2-2.8-2.2-3.2c0-0.2,0.4-1.3,0.4-1.5c0.3-1.4,0.3-5.9,0.3-6.8
				c0-1.3,0-7.6-0.2-8.4c-0.1-0.6-0.8-1.1-2.4-1.6c0.4-0.3,1.1-0.7,1.9-0.7c1,0,3.7,1,3.7,2c0,0.3-0.4,1.7-0.5,1.9
				c-0.3,1.7-0.5,11.3-0.5,13.3c0,0.1,0,0.6,0.2,0.6c0.8,0,7-3.9,12.3-10.7l0.3,0.2C971.6,212.8,966.7,217.3,963.4,219.6z"/>
		</g>
	</g>
</g>
</svg>
