<?xml version="1.0" encoding="utf-8"?>
<!-- Generator: Adobe Illustrator 16.0.0, SVG Export Plug-In . SVG Version: 6.00 Build 0)  -->
<!DOCTYPE svg PUBLIC "-//W3C//DTD SVG 1.1//EN" "http://www.w3.org/Graphics/SVG/1.1/DTD/svg11.dtd">
<svg version="1.1" id="レイヤー_1" xmlns="http://www.w3.org/2000/svg" xmlns:xlink="http://www.w3.org/1999/xlink" x="0px"
	 y="0px" width="969.341px" height="323.979px" viewBox="15.329 338.011 969.341 323.979"
	 enable-background="new 15.329 338.011 969.341 323.979" xml:space="preserve">
<g>
	<g>
		<path fill="#999999" d="M782.237,409.188c0-33.533-22.233-55.879-62.169-55.879c-30.708,0-56.975,20.358-67.706,51.791
			c-2.156,6.305-5.168,17.407-5.921,24.036h-2.569c0.369-3.307,0.739-32.923,0.739-38.83v-48.498h-2.98v1.506
			c0,15.148-12.565,24.05-27.387,27.03l-28.438,5.893l0.327,2.228l21.85-1.845c0.481-0.027,0.963-0.057,1.433-0.057
			c7.34,0,12.238,5.224,12.238,11.897v84.728c0,17.747-1.832,19.606-19.578,19.606H589.1v3.293h33.749
			c20.525,1.719,33.844,15.318,33.844,35.296c0,23.015-22.006,41.669-49.095,41.669c-33.689,0-61.033-34.954-61.033-78.057V377.358
			c0-6.672,0.369-12.946,1.478-19.621v-2.952l-57.33,1.506v3.293h6.306c17.745,0,19.959,1.874,19.959,19.621v96.938
			c0,56.588-26.463,94.34-66.188,94.34c-21.464,0-36.258-18.129-36.258-52.542V377.358v-31.459h-2.982v1.49
			c0,15.148-18.868,19.635-34.045,19.635h-21.069v3.321h17.378c7.212,0,11.129,4.06,11.129,11.104v139.827
			c0,36.244,26.265,55.851,62.497,55.851c34.784,0,65.845-22.188,73.57-75.458l1.519-18.867h1.833
			c0,54.731,35.662,99.139,79.561,99.139c30.95,0,56.093-22.658,56.093-50.556c0-16.654-8.677-29.432-22.815-35.296h46.254v-3.293
			H670.49c-17.745,0-19.962-1.858-19.962-19.606v-23.324c0-53.993,28.837-90.281,66.586-90.281
			c25.967,0,36.216,19.563,36.216,55.879c0,0,0.086,154.097,0.144,154.893l29.646-7.326
			C782.464,560.189,782.237,409.188,782.237,409.188z"/>
		<path fill="#999999" d="M961.165,463.307c-7.568-6.444-17.479-9.853-28.609-9.853c-3.065,0-6.159,0.37-9.255,0.852
			c-0.169-0.823-0.312-1.518-0.354-1.518c-2.429-8.929-7.312-16.383-14.537-22.305c-7.228-5.948-15.52-8.545-24.021-10.875
			c-6.688-1.83-18.898-2.129-28.438-0.794c9.568-0.923,18.938-0.227,27.997,2.272c8.518,2.27,16.213,6.218,22.913,11.726
			c6.759,5.523,10.932,11.954,12.552,19.464c0,0,0.171,1.291,0.327,2.697c-14.396,3.139-28.637,11.387-39.795,23.356
			c-12.808,13.713-19.905,30.38-20.089,46.281c-0.439,3.721-0.241,7.581,0.779,11.388l-3.121,1.902
			c0.043,0.027,0.043,0.086,0.057,0.099c-0.3,0.128-0.596,0.255-0.854,0.354c-11.328,5.252-23.453,9.91-36.472,13.956
			c-13.359,4.159-26.052,7.652-38.148,10.464c-0.88-0.342-1.59-0.723-2.441-1.08c-4.315-1.718-8.49-3.437-12.338-5.252
			c-4.019-2.018-8.646-4.089-13.842-6.275c-5.195-2.185-12.096-4.459-20.615-6.757c-4.513-1.28-9.425-2.358-14.622-3.323
			c-3.748-0.711-7.325-0.995-10.932-1.079c-1.419-0.059-2.868-0.2-4.346-0.114c-4.913,0.172-9.256,1.222-12.975,3.109
			c-3.691,1.874-6.189,4.968-7.326,9.214c-0.795,2.866-0.483,5.437,0.837,7.778c1.378,2.358,3.251,4.332,5.722,5.937
			c2.456,1.591,5.452,2.997,8.915,4.246c3.494,1.278,6.9,2.342,10.337,3.28c11.67,3.179,24.972,4.129,39.963,2.896
			c15.008-1.251,29.263-3.11,42.749-5.523c3.039,1.122,6.104,2.186,9.17,3.194c3.124,1.009,6.22,1.9,9.343,2.783
			c16.213,4.401,32.909,6.417,50.086,6.104c17.208-0.369,33.266-3.293,48.229-8.858c16.199-5.452,34.912-20.02,36.784-21.48
			c3.579-2.768,6.943-5.864,10.081-9.201c13.744-14.751,20.189-35.932,20.089-49.873
			C974.865,480.501,969.483,470.434,961.165,463.307z M736.167,569.941c-12.381,0.583-23.511-0.481-33.476-3.193
			c-4.814-1.306-9.158-3.151-12.905-5.565c-3.778-2.386-5.11-5.593-4.032-9.597c0.922-3.408,3.038-5.792,6.331-7.198
			c0.866-0.354,1.891-0.583,2.84-0.867c2.612-0.795,5.395-1.392,8.576-1.519c4.314-0.171,9.043,0.185,14.097,1.108
			c5.096,0.936,9.924,2.043,14.467,3.251c9.115,2.47,16.156,4.797,21.226,6.929c5.067,2.156,9.613,4.228,13.643,6.272
			c1.279,0.953,2.868,1.847,4.757,2.671c0.582,0.212,0.895,0.369,1.377,0.594c1.25,0.597,2.556,1.165,3.522,1.62
			C762.021,567.515,748.563,569.346,736.167,569.941z M881.93,480.23c10.79-11.527,24.434-19.448,38.161-22.516
			c0.029,0.141,0.043,0.284,0.043,0.284c0.042,0.625-0.07,1.207-0.07,1.831c0.027,2.088,0.058,4.16-0.257,6.09
			c-0.369,2.485-0.852,4.827-1.477,7.099c-2.016,7.411-5.196,14.338-9.569,20.784c-2.825,4.204-5.977,8.091-9.285,11.841
			c-0.511-0.511-0.907-1.05-1.532-1.506c-11.288-8.348-26.876-3.18-33.521,7.069C867.266,500.348,873.27,489.586,881.93,480.23z
			 M863.7,534.266c-0.197-0.839-0.453-1.648-0.51-2.485c-0.028-0.155-0.058-0.298-0.085-0.439
			c-0.738-6.277,0.737-12.182,2.923-16.127c4.401-7.966,18.173-16.07,29.317-7.966c0.554,0.383,0.953,0.922,1.42,1.363
			c-0.881,0.951-1.747,2.003-2.669,2.911c-5.438,5.409-11.118,10.223-16.995,14.426c-3.606,2.555-7.054,4.711-10.448,6.671
			C865.689,533.186,864.581,533.783,863.7,534.266z M903.367,570.667c-14.65,5.14-30.185,7.78-46.581,7.894
			c-16.354,0.101-31.789-1.803-46.295-5.736c-2.273-0.625-4.374-1.306-6.333-1.987c-1.945-0.68-4.019-1.449-6.19-2.355
			c2.896-0.653,5.964-1.562,8.943-2.329c7.753-2.045,15.702-4.345,24.078-7.211c11.643-4.031,22.546-8.915,32.654-14.71
			c0,0,0.17-0.099,0.198-0.112c0.767,1.676,2.627,3.463,2.627,3.463c1.378,1.69,2.925,3.294,4.786,4.855
			c13.685,11.499,46.51,11.67,71.922-9.34c-25.385,17.944-55.143,17.632-69.182,6.814c-3.139-2.413-5.325-5.056-7.058-7.824
			c4.431-2.909,12.237-8.135,16.171-11.313c5.693-4.545,11.131-9.641,16.313-15.248c0.525-0.539,0.938-1.192,1.449-1.761
			c4.116,8.249,0.938,18.313-8.148,21.152c12.338-2.696,15.815-14.878,10.733-24.263c3.491-4.216,6.814-8.645,9.639-13.388
			c3.224-5.308,5.522-10.759,7.37-16.27c0.396-1.264,0.951-2.542,1.306-3.817c1.874-6.83,2.598-13.333,2.13-19.565
			c0,0-0.015-0.299-0.058-0.596c2.924-0.44,5.821-0.796,8.716-0.796c10.45,0,19.735,3.182,26.778,9.188
			c7.779,6.643,13.798,16.07,12.847,27.244c-2.853,32.894-18.642,47.135-23.396,51.408c-3.876,3.576-7.965,6.742-12.295,9.711
			c-0.837,0.511-1.633,1.136-2.484,1.633c-0.085,0.07-0.212,0.142-0.299,0.185C924.209,560.984,913.959,567.046,903.367,570.667z"/>
		<path fill="#999999" d="M26.11,555.547c3.251,13.559,14.525,32.582,31.419,43.657c3.833,2.497,7.836,4.711,11.953,6.53
			c2.187,0.993,23.852,10.648,40.847,12.096c15.844,1.789,32.157,0.822,48.938-2.925c16.753-3.776,32.512-9.709,47.192-17.887
			c2.81-1.563,5.62-3.21,8.376-4.913c2.754-1.719,5.48-3.466,8.191-5.296c13.671-0.88,27.926-2.456,42.804-4.829
			c14.851-2.37,27.573-6.487,38.134-12.335c3.096-1.718,6.163-3.606,9.243-5.651c3.095-2.044,5.622-4.145,7.654-6.275
			c2.016-2.101,3.377-4.485,4.144-7.084c0.754-2.627,0.398-5.21-1.037-7.779c-2.172-3.848-5.267-6.291-9.299-7.198
			c-4.088-0.95-8.547-0.938-13.373,0.085c-1.42,0.282-2.84,0.767-4.231,1.108c-3.435,0.963-6.855,2.128-10.278,3.661
			c-4.883,2.199-9.356,4.431-13.459,6.717c-7.721,4.301-13.899,8.135-18.399,11.499c-4.543,3.336-8.545,6.502-11.968,9.411
			c-3.279,2.671-6.926,5.368-10.691,8.036c-0.737,0.554-1.363,1.078-2.113,1.618c-12.424,0.141-25.599-0.2-39.54-1.064
			c-13.587-0.81-26.494-2.442-38.759-4.828c-0.285-0.069-0.624-0.1-0.895-0.143c0-0.043,0-0.1,0-0.128l-3.478-1.08
			c0.086-3.975-0.637-7.765-1.96-11.299c-3.974-15.376-14.849-29.842-30.522-40.122c-13.714-8.986-29.501-13.559-44.181-13.23
			c-0.199-1.349-0.384-2.672-0.384-2.672c-0.184-7.623,2.342-14.934,7.567-21.892c5.239-6.926,11.711-12.563,19.436-16.836
			c8.22-4.585,17.094-7.483,26.663-8.889c-9.613,0.967-21.396,4.189-27.444,7.583c-7.724,4.258-15.106,8.773-20.699,16.269
			c-5.594,7.497-8.547,15.873-8.774,25.103c-0.043,0-0.028,0.723,0,1.589c-3.137,0.256-6.218,0.652-9.201,1.392
			c-10.846,2.641-19.592,8.318-25.414,16.383C26.154,532.816,23.313,543.877,26.11,555.547z M235.902,578.135
			c0.824-0.711,1.931-1.563,2.981-2.414c0.469-0.341,0.767-0.568,1.22-0.938c1.647-1.249,2.983-2.499,3.977-3.749
			c3.437-2.923,7.325-6.02,11.769-9.314c4.416-3.251,10.733-7.182,18.982-11.78c4.115-2.272,8.545-4.487,13.23-6.588
			c4.715-2.144,9.229-3.607,13.459-4.459c3.136-0.611,5.977-0.709,8.688-0.568c0.995,0.028,2.018,0.028,2.983,0.171
			c3.519,0.555,6.133,2.387,7.866,5.482c1.987,3.604,1.418,7.012-1.648,10.234c-3.096,3.25-6.815,6.09-11.202,8.504
			c-9.017,5.024-19.579,8.717-31.773,11.101C264.267,576.176,250.781,577.608,235.902,578.135z M137.883,547.383
			c-8.9-8.404-25.257-9.654-34.227,1.137c-0.484,0.568-0.769,1.191-1.151,1.788c-4.09-2.853-8.093-5.877-11.869-9.257
			c-5.75-5.238-10.45-11.201-14.168-17.887c-1.15-2.104-2.2-4.289-3.152-6.603c-0.738-1.774-1.22-3.818-1.675-5.835
			c-0.156-0.596-0.44-1.137-0.554-1.788c0,0,0-0.086,0-0.258c14.07-0.282,29.205,4.146,42.422,12.779
			C124.169,528.472,132.531,537.488,137.883,547.383z M140.811,568.649c-3.75-1.05-7.624-2.327-11.729-3.974
			c-6.7-2.67-13.373-5.978-19.918-9.896c-1.133-0.683-2.185-1.519-3.307-2.229c0.355-0.54,0.625-1.151,1.081-1.677
			c8.858-10.505,24.191-5.946,30.366,0.769c3.024,3.322,5.892,8.688,6.687,14.935c0,0.142,0,0.299,0.043,0.469
			c0.072,0.837,0.029,1.69,0.029,2.556C143.138,569.333,141.946,568.963,140.811,568.649z M81.181,606.997
			c-0.085-0.043-0.199-0.07-0.341-0.1c-0.923-0.27-1.846-0.739-2.783-1.023c-4.828-1.816-9.625-3.944-14.225-6.443
			c-5.622-3.067-24.362-13.133-35.011-44.409c-3.593-10.604,0.057-21.211,5.991-29.474c5.422-7.524,13.686-12.818,23.852-15.304
			c2.783-0.697,5.706-1.092,8.632-1.333c0.028,0.31,0.056,0.595,0.07,0.595c1.051,6.161,3.308,12.321,6.716,18.515
			c0.653,1.136,1.505,2.214,2.228,3.364c3.053,4.898,6.631,9.64,10.99,14.04c3.875,3.948,8.136,7.426,12.549,10.719
			c-2.682,10.296,3.564,21.311,16.257,20.999c-9.54-0.568-15.006-9.625-12.977-18.57c0.597,0.425,1.193,0.909,1.804,1.334
			c6.376,4.203,12.849,7.836,19.494,10.905c4.571,2.158,13.373,5.366,18.37,7.125c-0.994,3.096-2.497,6.22-4.969,9.313
			c-11.045,13.83-39.837,21.27-68.771,9.854c29.672,14.368,61.473,6.359,72.063-8.077c1.406-1.917,2.528-3.877,3.451-5.836
			c0,0,1.392-2.215,1.746-4.018c0.042,0.015,0.225,0.084,0.225,0.084c11.189,3.225,22.916,5.354,35.167,6.49
			c8.832,0.808,17.109,1.135,25.143,1.246c3.096,0.059,6.275,0.173,9.242,0.115c-1.943,1.392-3.734,2.668-5.465,3.776
			c-1.731,1.151-3.619,2.302-5.679,3.438c-13.146,7.296-27.669,12.833-43.614,16.609c-15.928,3.806-31.602,4.968-47.104,3.463
			C103.129,613.373,91.715,609.934,81.181,606.997z"/>
		<g>
			<path fill="#999999" d="M352.602,575.863c-3.039,0-5.281-0.965-6.701-2.981c-1.477-1.959-2.185-8.276-2.185-18.896v-5.58
				c0,0,0-3.805,0-5.821v-90.547v-5.055v-18.228c0-55.626-20.474-87.499-78.313-87.499c-20.983,0-38.83,6.133-58.067,16.172
				c-1.691,0.907-3.661-0.326-3.661-2.286l-0.541-5.667h-3.152v36.686h2.671l0.084-3.633c0-2.868,2.755-6.22,4.599-8.335
				c11.571-13.189,30.227-16.624,39.668-18.285c5.748-1.037,12.025-1.491,18.881-1.491c35.307,0,53.92,23.271,53.92,67.266v25.3
				h-30.367c-73.214,0-122.025,29.105-122.025,72.832c0,37.622,29.773,62.695,74.494,62.695c19.522,0,41.469-7.724,41.469-7.724
				c-8.29,3.521-32.099,1.618-43.555,0c-23.341-3.322-34.189-23.1-34.189-54.972c0-44.069,30.184-67.777,86.236-67.777h27.938
				c0,0,2.953,119.314,1.79,120.932c-1.165,1.647-7.269,2.583-11.755,2.894v1.847h44.095v-1.847H352.602L352.602,575.863z"/>
		</g>
	</g>
	<g>
		<path fill="#999999" d="M346.71,602.283c-0.412,2.457-0.81,4.83-1.263,7.142c-0.369,2.286-0.811,4.588-1.165,6.843
			c-0.413,2.258-0.767,4.372-1.15,6.304c-0.384,1.975-0.681,3.294-0.809,4.005c-0.255,0.908-0.567,1.731-1.022,2.428
			c-0.469,0.724-1.023,1.349-1.703,1.917c-0.627,0.54-1.364,1.049-2.115,1.476c-0.753,0.454-1.435,0.823-2.003,1.18
			c1.136,0.069,2.769,0.184,4.941,0.395c2.172,0.157,4.585,0.441,7.268,0.84c2.271,0.282,3.847,0.468,4.713,0.554
			c0.911,0.098,1.989,0.213,3.265,0.268c1.281,0.057,2.586,0.113,3.892,0.113c1.561,0,3.038-0.227,4.344-0.682
			c1.319-0.482,2.456-1.135,3.408-1.985c0.965-0.853,1.788-1.874,2.415-2.98c0.425-0.627,0.794-0.953,1.049-0.953
			c0.284,0,0.426,0.156,0.426,0.481c0,0.355-0.112,0.725-0.341,1.093c-0.68,1.578-2.015,3.466-3.945,5.595
			c-1.917,2.115-3.635,3.351-5.125,3.69c-2.484,0.567-4.756,0.852-6.773,0.852c-0.994,0-2.071-0.055-3.237-0.212
			c-1.22-0.142-2.81-0.382-4.912-0.781c-2.043-0.369-3.251-0.596-3.549-0.626c-4.968-0.851-9.57-1.29-13.842-1.29
			c-1.931,1.064-3.962,2.029-6.048,2.854c-2.086,0.795-3.833,1.22-5.181,1.22c-1.619,0-2.442-0.498-2.442-1.519
			c0-1.067,0.796-2.159,2.385-3.309c1.589-1.107,3.635-2.017,6.162-2.699c2.527-0.737,5.025-1.064,7.553-1.064
			c0.852-0.325,1.874-1.107,3.125-2.371c1.248-1.219,2.016-2.81,2.328-4.783c0.385-2.145,0.679-3.875,0.88-5.224
			c0.198-1.323,0.524-3.366,0.936-6.12c0.428-2.754,0.739-4.883,0.98-6.416c0.241-1.563,0.525-3.096,0.753-4.602
			c0.255-1.219,1.164-2.44,2.711-3.633c1.562-1.207,3.564-2.301,6.005-3.323c2.471-0.992,4.97-1.761,7.498-2.315
			c2.527-0.538,4.854-0.808,6.943-0.808c4.599,0,6.898,1.449,6.898,4.345c0,1.319-0.469,2.671-1.377,4.061
			c-0.921,1.365-1.874,2.415-2.823,3.066c-0.442,0.313-0.812,0.456-1.165,0.456c-0.269,0-0.385-0.114-0.385-0.342
			c0-0.227,0.158-0.481,0.484-0.766c1.604-1.534,2.385-2.926,2.385-4.089c0-1.42-1.164-2.441-3.506-3.039
			c-2.344-0.597-4.644-0.879-6.872-0.879c-1.888,0-3.578,0.169-5.124,0.566c-1.565,0.398-2.898,1.021-3.919,1.859
			C347.605,599.885,346.966,600.963,346.71,602.283z"/>
		<path fill="#999999" d="M393.49,633.02c-0.057,0.342-0.057,0.809-0.057,1.349c0,0.81,0.198,1.208,0.654,1.208
			c0.964,0,2.966-1.208,5.904-3.621c0.226-0.213,0.454-0.298,0.766-0.298c0.428,0,0.64,0.155,0.64,0.496
			c0,0.213-0.126,0.47-0.398,0.724c-1.574,1.393-2.966,2.527-4.157,3.492c-1.194,0.937-2.599,1.789-4.203,2.598
			c-1.562,0.668-2.586,1.036-3.125,1.036c-0.822,0-1.22-0.568-1.22-1.731c0-0.483,0.083-1.377,0.283-2.696
			c0.17-1.334,0.34-2.358,0.482-2.996c-0.368,0.524-1.136,1.389-2.355,2.682c-1.194,1.235-2.585,2.387-4.118,3.408
			c-1.561,1.037-2.981,1.533-4.314,1.533c-2.797,0-4.218-2.158-4.218-6.473c0-2.271,0.414-4.572,1.235-6.986
			c0.825-2.371,1.959-4.431,3.465-6.203c1.476-1.719,3.15-2.812,5.011-3.222c2.386-0.429,5.636-0.654,9.724-0.654
			c1.392,0,2.244,0.027,2.611,0.057L393.49,633.02z M388.876,617.943c-0.47,0-1.321,0.086-2.543,0.284
			c-1.136,0.171-2.243,1.107-3.335,2.826c-1.065,1.718-1.903,3.704-2.512,5.947c-0.595,2.229-0.879,4.272-0.879,6.134
			c0,1.094,0.142,1.986,0.454,2.697c0.341,0.738,0.765,1.094,1.306,1.094c0.909,0,2.301-0.838,4.145-2.514
			c1.874-1.646,3.181-3.138,3.919-4.314l1.874-11.741C390.593,618.084,389.771,617.943,388.876,617.943z"/>
		<path fill="#999999" d="M422.479,634.369c0,0.81,0.198,1.208,0.627,1.208c0.198,0,0.309,0,0.425-0.086
			c0.938-0.283,1.733-0.64,2.398-1.123c0.64-0.468,1.661-1.263,3.139-2.413c0.198-0.213,0.425-0.298,0.709-0.298
			c0.428,0,0.682,0.155,0.682,0.497c0,0.212-0.144,0.469-0.428,0.723c-1.788,1.675-3.805,3.279-6.104,4.828
			c-2.242,1.531-4.086,2.299-5.536,2.299c-0.824,0-1.193-0.568-1.193-1.731c0-0.822,0.27-2.696,0.88-5.692
			c-0.326,0.524-1.123,1.389-2.301,2.682c-1.22,1.235-2.612,2.386-4.144,3.407c-1.548,1.038-2.983,1.534-4.317,1.534
			c-2.81,0-4.201-2.158-4.201-6.473c0-2.271,0.396-4.545,1.206-6.958c0.796-2.329,1.944-4.415,3.422-6.188
			c1.447-1.762,3.122-2.854,5.026-3.265c2.213-0.429,4.826-0.654,7.807-0.654l2.727-17.379c0.043-0.341,0.07-0.68,0.07-1.021
			c0-0.439-0.212-0.625-0.668-0.625c-0.88,0-2.499,0.736-4.798,2.243c-0.283,0.212-0.595,0.341-0.952,0.341
			c-0.41,0-0.638-0.172-0.638-0.539c0-0.227,0.228-0.482,0.682-0.767c1.151-0.683,2.471-1.491,3.919-2.413
			c1.532-0.896,2.725-1.563,3.704-2.046c0.951-0.455,1.719-0.71,2.33-0.71c0.921,0,1.404,0.498,1.404,1.52
			c0,0.482-0.055,0.837-0.084,1.122l-5.735,36.628C422.509,633.362,422.479,633.829,422.479,634.369z M417.824,618.029
			c-0.823,0-1.647,0.055-2.44,0.198c-1.165,0.171-2.258,1.107-3.324,2.826c-1.064,1.718-1.901,3.704-2.512,5.947
			c-0.623,2.229-0.923,4.272-0.923,6.134c0,1.094,0.144,1.986,0.456,2.697c0.284,0.738,0.724,1.094,1.334,1.094
			c0.909,0,2.301-0.838,4.16-2.514c1.858-1.646,3.18-3.138,3.903-4.314l1.875-11.741C419.5,618.155,418.676,618.029,417.824,618.029
			z"/>
		<path fill="#999999" d="M454.823,615.969l-4.358,28.296c-0.356,2.47-1.308,4.628-2.855,6.46c-1.561,1.858-3.308,3.335-5.308,4.501
			c-1.948,1.136-3.919,2.016-5.737,2.611c-1.859,0.568-3.266,0.909-4.315,0.909c-2.043,0-3.039-1.122-3.039-3.293
			c0-1.477,0.568-3.479,1.62-5.962c1.121-2.472,2.64-4.559,4.571-6.29c0.368-0.354,0.681-0.568,0.936-0.568
			c0.114,0,0.143,0.069,0.143,0.24c0,0.257-0.114,0.555-0.369,0.853c-2.64,2.881-3.947,5.678-3.947,8.349
			c0,1.021,0.413,1.789,1.178,2.3c0.767,0.554,1.805,0.81,3.082,0.81c1.845,0,3.663-0.524,5.48-1.547
			c1.788-1.052,2.895-2.841,3.293-5.339l1.874-11.996c-1.59,0.979-3.238,1.859-4.913,2.669c-1.703,0.782-3.478,1.15-5.365,1.15
			c-2.301,0-3.465-1.136-3.465-3.38c0-0.766,0.015-1.277,0.057-1.589l2.018-12.946c0.055-0.342,0.098-0.711,0.098-1.123
			c0-0.725-0.269-1.093-0.794-1.093c-0.583,0-1.717,0.41-3.335,1.234c-0.329,0.128-0.568,0.213-0.769,0.213
			c-0.311,0-0.481-0.128-0.481-0.354c0-0.214,0.256-0.441,0.711-0.754c2.469-1.248,4.399-2.2,5.805-2.896
			c1.463-0.695,2.401-1.022,2.883-1.022c0.652,0,0.936,0.541,0.936,1.619c0,0.126-0.059,0.709-0.143,1.745l-2.357,15.631
			c-0.084,0.895-0.155,1.477-0.155,1.732c0,0.824,0.327,1.277,0.95,1.277c0.938,0,2.33-0.453,4.232-1.362
			c1.858-0.896,3.351-1.874,4.387-2.925l2.556-16.439c0.396-0.169,1.15-0.426,2.228-0.767
			C453.233,616.523,454.111,616.226,454.823,615.969z"/>
		<path fill="#999999" d="M472.029,591.877c-0.738,1.42-1.377,2.983-1.96,4.601c-0.625,1.618-1.193,3.181-1.761,4.67
			c-0.54,1.491-1.022,2.571-1.418,3.323c-0.115,0.214-0.909,0.583-2.358,1.208c-1.392,0.581-2.301,0.879-2.596,0.879
			c1.122-1.533,2.115-3.408,2.995-5.536c0.866-2.13,1.703-4.715,2.556-7.696c0.764-0.241,1.375-0.453,1.789-0.61
			c0.48-0.184,1.021-0.354,1.604-0.554C471.504,591.948,471.886,591.877,472.029,591.877z"/>
		<path fill="#999999" d="M487.745,622.117c-0.142,0-0.241-0.269-0.241-0.823v-0.511c0-0.568-0.354-0.966-1.15-1.222
			c-0.808-0.257-2.201-0.37-4.244-0.37c-1.59,0-2.654,0.113-3.237,0.354c-0.541,0.256-0.809,0.654-0.809,1.237
			c0,0.523,0.268,1.064,0.836,1.574c0.568,0.512,1.648,1.264,3.208,2.2c2.355,1.364,4.174,2.756,5.395,4.204
			c1.25,1.446,1.847,2.81,1.847,4.115c0,0.825-0.286,1.762-0.938,2.839c-0.668,1.065-1.662,1.988-3.067,2.783
			c-1.406,0.737-3.15,1.136-5.268,1.136c-2.781,0-4.685-0.185-5.777-0.553c-1.079-0.385-1.632-0.953-1.632-1.776
			c0-1.137,0.44-2.456,1.35-4.031c0.226-0.397,0.438-0.65,0.623-0.65c0.143,0,0.226,0.253,0.226,0.65
			c0,0.155-0.014,0.369-0.083,0.653c-0.043,0.271-0.071,0.482-0.071,0.652c0,0.783,0.695,1.392,2.086,1.875
			c1.376,0.47,3.352,0.681,5.935,0.681c2.812,0,4.23-0.582,4.23-1.773c0-0.74-0.539-1.577-1.648-2.43
			c-1.079-0.85-2.47-1.845-4.214-2.98c-2.088-1.449-3.552-2.583-4.359-3.378c-0.825-0.825-1.235-1.762-1.235-2.812
			c0-1.449,0.524-2.896,1.604-4.344c1.08-1.449,2.585-2.358,4.529-2.698c1.605-0.271,2.881-0.397,3.905-0.397
			c1.39,0,2.498,0.155,3.222,0.453c0.07,0.059,0.099,0.2,0.099,0.457c0,0.752-0.197,2.101-0.609,4.06
			C488.186,621.848,488,622.117,487.745,622.117z"/>
		<path fill="#999999" d="M536.301,637.052h12.593c3.18,0,6.135-0.568,8.916-1.731c2.782-1.208,4.116-3.21,4.116-6.021
			c0-1.193-0.256-2.527-0.795-3.947c-0.553-1.42-1.449-2.84-2.669-4.229c-1.221-1.394-2.783-2.527-4.657-3.437
			c1.433-0.71,2.755-1.449,3.947-2.187c1.163-0.737,2.427-1.831,3.719-3.321c1.278-1.505,1.933-3.181,1.933-4.971
			c0-2.214-0.853-4.229-2.528-6.063c-1.675-1.817-4.174-3.251-7.581-4.33c-3.379-1.078-7.495-1.647-12.267-1.647
			c-4.287,0-8.05,0.356-11.271,1.051c-3.208,0.654-5.879,1.577-7.951,2.755c-2.074,1.221-3.605,2.586-4.628,4.146
			c-0.953,1.563-1.45,3.181-1.45,4.941c0,0.964,0.143,1.872,0.429,2.754c0.324,0.895,0.722,1.761,1.22,2.683
			c0.524,0.909,0.995,1.719,1.448,2.47c0.099,0.187,0.142,0.356,0.142,0.525c0,0.115-0.043,0.172-0.142,0.172
			c-0.156,0-0.427-0.172-0.711-0.469c-0.396-0.326-1.05-0.865-1.985-1.688c-0.909-0.825-1.704-1.605-2.329-2.388
			c-0.625-0.767-1.15-1.676-1.604-2.726c-0.469-1.08-0.669-2.27-0.669-3.55c0-2.752,1.293-5.024,3.891-6.871
			c2.612-1.803,6.049-3.123,10.336-3.96c4.345-0.838,8.973-1.264,13.97-1.264c5.552,0,10.478,0.426,14.822,1.191
			c4.289,0.767,7.681,2.018,10.165,3.75c2.499,1.759,3.719,3.917,3.719,6.588c0,1.717-0.511,3.291-1.589,4.741
			c-1.05,1.448-2.216,2.583-3.421,3.478c-1.236,0.866-2.67,1.804-4.346,2.769c1.789,0.737,3.335,1.762,4.616,3.153
			c1.333,1.404,2.284,2.811,2.866,4.258c0.653,1.392,0.922,2.527,0.922,3.409c0,2.244-1.107,4.314-3.321,6.218
			c-2.229,1.874-4.984,3.436-8.264,4.514c-3.323,1.15-6.46,1.703-9.44,1.703H526.8c2.925-0.666,5.282-1.319,7.043-1.931
			c1.136-0.439,2.13-1.421,2.896-2.924c0.794-1.478,1.448-3.776,2.002-6.872c0.397-2.101,0.752-4.202,1.036-6.36
			c0.27-2.13,0.511-4.4,0.737-6.728c0.229-2.328,0.342-4.389,0.342-6.147c0-0.839-0.085-1.746-0.227-2.655
			c0-0.17,0.439-0.568,1.334-1.136c0.853-0.581,1.847-1.135,2.896-1.647c1.037-0.54,1.831-0.767,2.356-0.767
			c0.313,0,0.54,0.157,0.583,0.482c0.101,0.312,0.127,1.164,0.127,2.585c0,2.471-0.255,5.367-0.78,8.773
			c-0.525,3.379-1.18,6.715-2.059,9.966c-0.866,3.265-1.817,5.879-2.755,7.795C541.141,634.185,539.127,635.903,536.301,637.052z"/>
		<path fill="#999999" d="M590.887,633.02c-0.056,0.342-0.085,0.809-0.085,1.349c0,0.81,0.228,1.208,0.682,1.208
			c0.994,0,2.953-1.208,5.919-3.621c0.216-0.213,0.441-0.298,0.741-0.298c0.438,0,0.666,0.155,0.666,0.496
			c0,0.213-0.155,0.47-0.411,0.724c-1.577,1.393-2.967,2.527-4.174,3.492c-1.165,0.937-2.598,1.789-4.217,2.598
			c-1.533,0.668-2.57,1.036-3.109,1.036c-0.781,0-1.234-0.568-1.234-1.731c0-0.483,0.141-1.377,0.282-2.696
			c0.185-1.334,0.369-2.358,0.482-2.996c-0.312,0.524-1.106,1.389-2.313,2.682c-1.205,1.235-2.585,2.387-4.131,3.408
			c-1.563,1.037-2.982,1.533-4.316,1.533c-2.797,0-4.229-2.158-4.229-6.473c0-2.271,0.426-4.572,1.264-6.986
			c0.808-2.371,1.974-4.431,3.449-6.203c1.505-1.719,3.124-2.812,5.026-3.222c2.355-0.429,5.593-0.654,9.709-0.654
			c1.379,0,2.244,0.027,2.614,0.057L590.887,633.02z M586.273,617.943c-0.469,0-1.349,0.086-2.557,0.284
			c-1.148,0.171-2.255,1.107-3.333,2.826c-1.053,1.718-1.889,3.704-2.471,5.947c-0.625,2.229-0.938,4.272-0.938,6.134
			c0,1.094,0.17,1.986,0.47,2.697c0.325,0.738,0.793,1.094,1.318,1.094c0.909,0,2.301-0.838,4.162-2.514
			c1.858-1.646,3.193-3.138,3.902-4.314l1.858-11.741C587.992,618.084,587.198,617.943,586.273,617.943z"/>
		<path fill="#999999" d="M613.575,620.543c-1.306,0-2.414,0.353-3.407,1.006c-0.966,0.655-1.52,1.533-1.732,2.698l-2.086,13.829
			l-4.813,1.561l2.868-18.853c0.112-0.653,0.154-1.009,0.154-1.053c0-0.538-0.185-0.793-0.553-0.793
			c-0.468,0-1.234,0.324-2.385,1.05c-0.198,0.113-0.342,0.143-0.398,0.143c-0.099,0-0.155-0.071-0.155-0.185
			c0-0.171,0.057-0.27,0.155-0.384c3.336-2.471,5.494-3.705,6.504-3.705c1.05,0,1.547,0.853,1.547,2.499
			c0,0.583-0.071,1.292-0.227,2.145c1.065-1.28,2.483-2.388,4.2-3.353c1.747-0.95,3.423-1.434,5.07-1.434l-1.305,5.297
			C615.946,620.726,614.781,620.543,613.575,620.543z"/>
		<path fill="#999999" d="M658.75,633.02c-0.028,0.342-0.059,0.809-0.059,1.349c0,0.81,0.229,1.208,0.654,1.208
			c0.994,0,2.968-1.208,5.936-3.621c0.228-0.213,0.44-0.298,0.768-0.298c0.396,0,0.623,0.155,0.623,0.496
			c0,0.213-0.155,0.47-0.396,0.724c-1.592,1.393-2.981,2.527-4.202,3.492c-1.164,0.937-2.555,1.789-4.175,2.598
			c-1.533,0.668-2.555,1.036-3.108,1.036c-0.81,0-1.236-0.568-1.236-1.731c0-0.483,0.086-1.377,0.284-2.696
			c0.185-1.334,0.342-2.358,0.481-2.996c-0.34,0.524-1.136,1.389-2.327,2.682c-1.221,1.235-2.599,2.387-4.116,3.408
			c-1.563,1.037-3.01,1.533-4.332,1.533c-2.796,0-4.229-2.158-4.229-6.473c0-2.271,0.441-4.572,1.235-6.986
			c0.824-2.371,1.988-4.431,3.464-6.203c1.478-1.719,3.18-2.812,5.013-3.222c2.37-0.429,5.619-0.654,9.724-0.654
			c1.363,0,2.243,0.027,2.626,0.057L658.75,633.02z M654.151,617.943c-0.482,0-1.335,0.086-2.556,0.284
			c-1.164,0.171-2.3,1.107-3.337,2.826c-1.064,1.718-1.887,3.704-2.482,5.947c-0.626,2.229-0.909,4.272-0.909,6.134
			c0,1.094,0.141,1.986,0.482,2.697c0.311,0.738,0.736,1.094,1.305,1.094c0.88,0,2.271-0.838,4.132-2.514
			c1.858-1.646,3.195-3.138,3.934-4.314l1.845-11.741C655.883,618.084,655.061,617.943,654.151,617.943z"/>
		<path fill="#999999" d="M686.492,621.848c0.057-0.385,0.057-0.767,0.057-1.208c0-0.694-0.198-1.078-0.624-1.078
			c-0.355,0-1.108,0.256-2.173,0.766c-0.384,0.215-0.696,0.312-1.093,0.312c-0.37,0-0.568-0.111-0.568-0.354
			c0-0.184,0.256-0.411,0.738-0.723c4.272-2.471,6.9-3.705,7.823-3.705c0.638,0,0.95,0.525,0.95,1.547
			c0,0.284-0.028,0.824-0.141,1.676l-2.272,14.353c-0.114,0.54-0.142,1.01-0.142,1.379c0,0.965,0.311,1.39,0.937,1.39
			c0.482,0,1.206-0.282,2.228-0.836c1.037-0.554,2.201-1.463,3.507-2.656c0.298-0.299,0.582-0.426,0.853-0.426
			c0.255,0,0.396,0.112,0.396,0.343c0,0.28-0.198,0.564-0.555,0.95c-4.329,4.187-7.807,6.261-10.406,6.261
			c-1.247,0-1.887-0.781-1.887-2.385c0-0.697,0.07-1.151,0.143-1.45c-0.102,0.115-0.469,0.369-1.151,0.753
			c-0.637,0.397-1.503,0.896-2.611,1.351c-1.066,0.481-2.228,0.878-3.408,1.205c-1.191,0.312-2.498,0.469-3.862,0.469
			c-1.162,0-2.015-0.257-2.555-0.796c-0.539-0.553-0.794-1.392-0.794-2.554c0-0.398,0.07-1.023,0.142-1.848l2.046-12.521
			c0.112-0.654,0.17-1.107,0.17-1.278c0-0.625-0.241-0.909-0.724-0.909c-0.299,0-1.092,0.256-2.286,0.823
			c-0.385,0.171-0.682,0.257-0.881,0.257c-0.41,0-0.623-0.128-0.623-0.411c0-0.327,0.311-0.611,0.937-0.98
			c1.476-0.782,3.009-1.648,4.656-2.527c1.676-0.879,2.67-1.32,3.067-1.32c0.596,0,0.907,0.482,0.907,1.434
			c0,0.256-0.056,0.796-0.169,1.633l-2.386,15.078c-0.114,0.895-0.143,1.463-0.143,1.719c0,1.618,0.567,2.412,1.703,2.412
			c0.738,0,1.676-0.254,2.926-0.766c1.219-0.484,2.385-1.066,3.435-1.732c1.079-0.64,1.702-1.165,1.959-1.562L686.492,621.848z"/>
		<path fill="#999999" d="M705.431,637.79l-4.969,1.988l2.641-17.406c0.198-0.995,0.283-1.533,0.283-1.703
			c0-0.61-0.283-0.91-0.766-0.91s-1.392,0.3-2.726,0.967c-0.454,0.169-0.739,0.227-0.922,0.227c-0.371,0-0.555-0.086-0.555-0.368
			c0-0.271,0.185-0.526,0.555-0.683c2.087-1.15,4.698-2.384,7.82-3.635c0.313-0.112,0.512-0.213,0.712-0.213
			c0.453,0,0.766,0.525,0.766,1.574c0,0.482-0.126,1.392-0.326,2.756c0.922-0.823,1.804-1.447,2.597-1.986
			c0.824-0.498,1.86-0.995,3.151-1.394c1.265-0.453,2.615-0.68,4.074-0.68c1.407,0,2.487,0.428,3.197,1.249
			c0.68,0.88,1.049,1.987,1.049,3.379c0,0.766-0.043,1.42-0.197,1.986l-1.562,10.422c-0.143,0.867-0.214,1.35-0.214,1.449
			c0,0.879,0.241,1.347,0.753,1.347c0.453,0,1.106-0.239,1.872-0.723c0.797-0.455,1.535-0.95,2.302-1.562
			c0.766-0.596,1.308-0.995,1.604-1.247c0.327-0.229,0.626-0.343,0.896-0.343c0.255,0,0.37,0.112,0.37,0.343
			c0,0.28-0.144,0.565-0.54,0.877c-1.45,1.308-3.294,2.726-5.48,4.287c-2.215,1.563-4.033,2.329-5.423,2.329
			c-0.995,0-1.478-0.625-1.478-1.916c0-0.256,0.058-0.867,0.27-1.832l2.029-13.146c0.156-0.979,0.257-1.817,0.257-2.498
			c0-1.705-1.009-2.556-2.955-2.556c-1.532,0-3.746,1.308-6.7,3.833L705.431,637.79z"/>
	</g>
</g>
</svg>
