<?xml version="1.0" encoding="utf-8"?>
<!-- Generator: Adobe Illustrator 16.0.0, SVG Export Plug-In . SVG Version: 6.00 Build 0)  -->
<!DOCTYPE svg PUBLIC "-//W3C//DTD SVG 1.1//EN" "http://www.w3.org/Graphics/SVG/1.1/DTD/svg11.dtd">
<svg version="1.1" id="レイヤー_1" xmlns="http://www.w3.org/2000/svg" xmlns:xlink="http://www.w3.org/1999/xlink" x="0px"
	 y="0px" width="973.061px" height="305.738px" viewBox="13.468 347.131 973.061 305.738"
	 enable-background="new 13.468 347.131 973.061 305.738" xml:space="preserve">
<g>
	<g>
		<path fill="#999999" d="M123.264,424.59c-0.542,0-1.021-0.046-1.513-0.069v13.3c0.492-0.011,0.971-0.069,1.513-0.069h32.733
			v25.537c-5.953,5.41-13.258,9.613-21.928,12.626c-8.693,3.002-17.82,4.498-27.42,4.498c-18.169,0-33.089-4.886-44.784-14.659
			c-12.698-10.614-19.046-24.862-19.046-42.739c0-18.355,6.655-32.932,19.959-43.733c11.61-9.508,25.879-14.281,42.825-14.281
			c14.596,0,28.836,3.779,42.74,11.303c7.232,3.834,10.839,6.802,10.839,8.903c1.068-1.781,9.745-15.935,8.671-15.935
			c-0.686,0-2.46-0.824-5.383-2.443c-9.989-5.606-19.303-9.636-27.962-12.055c-8.637-2.431-18.031-3.642-28.167-3.642
			c-11.559,0-22.352,1.793-32.42,5.366c-14.254,5.137-25.601,13.277-34.042,24.407c-9.114,12.112-13.681,25.949-13.681,41.552
			c0,10.892,2.333,21.222,6.991,31.006c4.12,8.595,9.687,15.946,16.712,22.089c14.264,12.512,32.94,18.744,56.033,18.744
			c18.797,0,35.497-4.11,50.154-12.352c4.794-2.695,9.823-6.176,15.056-10.376v-46.974h-47.882V424.59z"/>
		<path fill="#999999" d="M303.686,366.314v76.54c0,8.197-0.371,14.041-1.091,17.557c-0.742,3.47-2.214,6.484-4.4,9.019
			c-6.604,7.534-20.473,11.277-41.656,11.277c-19.452,0-32.744-3.185-39.862-9.577c-2.94-2.672-4.867-5.811-5.792-9.429
			c-0.932-3.642-1.398-9.91-1.398-18.848v-76.541H193.8v79.646c0,8.527,0.753,15.285,2.254,20.318
			c1.501,5.036,4.138,9.521,7.934,13.448c9.319,9.793,26.638,14.68,51.946,14.68c16.9,0,30.148-2.133,39.714-6.391
			c9.55-4.271,16.063-10.925,19.526-19.967c1.861-5.079,2.797-12.431,2.797-22.089v-79.646h-14.285V366.314z"/>
		<path fill="#999999" d="M352.486,379.464h86.106c0.611,0,1.136,0.032,1.661,0.079v-13.126c-0.525,0.045-1.05,0.067-1.661,0.067
			H336.602v8.974c0.132,0.822,0.206,1.735,0.206,2.796v19.601v51.312v31.324c0,1.083-0.074,2.021-0.206,2.865v8.938h103.201
			c0.167,0,0.304,0,0.452,0v-13.024c-0.113,0-0.228,0.022-0.343,0.022h-87.425v-30.125v-15.25h69.005v-12.98h-69.005v-23.08
			L352.486,379.464L352.486,379.464z"/>
		<path fill="#999999" d="M458.581,492.305h15.737v-0.503c-0.018-0.274-0.036-0.514-0.036-0.798v-49.566h54.307
			c0,0,35.501,50.091,35.912,50.855l18.277,0.012l-36.338-51.793c12.057-0.922,19.019-4.485,25.892-11.038
			c6.894-6.576,10.341-15.034,10.341-25.457c0-6.94-1.619-13.173-4.815-18.722c-2.785-4.862-6.438-8.688-10.982-11.484
			c-4.383-2.729-9.566-4.657-15.535-5.754c-5.948-1.095-14.053-1.643-24.305-1.643h-68.676L458.581,492.305z M474.282,379.406
			h53.836c8.049,0,14.008,0.285,17.844,0.879c3.834,0.606,7.326,1.769,10.409,3.505c7.09,3.973,10.617,10.731,10.617,20.172
			c0,9.395-3.447,16.084-10.297,20.09c-2.923,1.668-6.312,2.811-10.138,3.436c-3.834,0.64-9.508,0.937-17.03,0.937h-55.242
			L474.282,379.406L474.282,379.406z"/>
		<path fill="#999999" d="M614.889,492.351c0.273-0.616,0.525-1.141,0.662-1.483l11.997-25.879h72.935l11.165,24.487
			c0.318,0.661,0.82,1.688,1.438,2.876h17.19c-1.462-3.138-3.037-6.449-4.269-9.178l-47.831-103.893
			c-1.211-2.59-5.184-12.362-5.184-12.362h-15.935c0,0-4.656,9.772-5.867,12.362l-49.942,107.796
			c-0.65,1.417-1.52,3.312-2.465,5.274H614.889z M663.997,384.624l30.708,67.385h-61.37L663.997,384.624z"/>
		<path fill="#999999" d="M874.499,372.99c0-1.323,0-4.039,0-6.507h-14.248c-0.021,2.467-0.044,5.182-0.044,6.507v101.028
			L759.523,366.484H745.32c0,0-0.091,3.7-0.091,6.507v112.785c0,1.326,0,4.018,0,6.517h14.36c-0.033-2.499-0.066-5.227-0.066-6.517
			V384.703l100.911,107.625l13.995-0.034c0,0,0.068-3.72,0.068-6.517L874.499,372.99L874.499,372.99z"/>
	</g>
	<path fill="#CFCFCF" d="M258.749,598.195c0,27.99-22.712,50.674-50.687,50.674c-27.982,0-50.678-22.684-50.678-50.674
		c0-27.989,22.695-50.685,50.678-50.685C236.036,547.51,258.749,570.206,258.749,598.195z"/>
	<path opacity="0.5" fill="#B5B5B5" enable-background="new    " d="M201.842,548.469c29.184,0,53.271,21.816,56.884,50.023
		c0-0.114,0.022-0.184,0.022-0.297c0-27.99-22.712-50.686-50.687-50.686c-3.687,0-7.281,0.413-10.747,1.166
		C198.805,548.56,200.329,548.469,201.842,548.469z"/>
	<path opacity="0.5" fill="#FFFFFF" enable-background="new    " d="M213.79,641.701c-27.986,0-50.674-22.682-50.674-50.674
		c0-1.519,0.079-3.001,0.228-4.473c-0.982,3.721-1.5,7.622-1.5,11.642c0,25.525,20.689,46.211,46.22,46.211
		c7.558,0,14.686-1.826,20.999-5.046C224.246,640.877,219.113,641.701,213.79,641.701z"/>
	<path fill="#EAEAEA" d="M405.975,598.195c0,27.99-22.678,50.674-50.657,50.674c-27.998,0-50.691-22.684-50.691-50.674
		c0-27.989,22.693-50.685,50.691-50.685C383.297,547.51,405.975,570.206,405.975,598.195z"/>
	<path opacity="0.5" fill="#FFFFFF" enable-background="new    " d="M361.048,641.701c-27.985,0-50.679-22.682-50.679-50.674
		c0-1.519,0.086-3.001,0.192-4.473c-0.94,3.721-1.466,7.622-1.466,11.642c0,25.525,20.684,46.211,46.222,46.211
		c7.564,0,14.691-1.826,20.988-5.046C371.487,640.877,366.374,641.701,361.048,641.701z"/>
	<path fill="#B9B9B9" d="M553.223,598.195c0,27.99-22.672,50.674-50.663,50.674c-27.979,0-50.674-22.684-50.674-50.674
		c0-27.989,22.695-50.685,50.674-50.685C530.551,547.51,553.223,570.206,553.223,598.195z"/>
	<path opacity="0.5" fill="#FFFFFF" enable-background="new    " d="M508.291,641.701c-27.991,0-50.673-22.682-50.673-50.674
		c0-1.519,0.078-3.001,0.229-4.473c-0.983,3.721-1.502,7.622-1.502,11.642c0,25.525,20.691,46.211,46.215,46.211
		c7.558,0,14.704-1.826,21.005-5.046C518.725,640.877,513.61,641.701,508.291,641.701z"/>
	<path opacity="0.5" fill="#DEDEDE" enable-background="new    " d="M349.084,548.469c29.2,0,53.27,21.816,56.891,50.023
		c0-0.114,0-0.184,0-0.297c0-27.99-22.678-50.686-50.657-50.686c-3.681,0-7.279,0.413-10.741,1.166
		C346.07,548.56,347.572,548.469,349.084,548.469z"/>
	<path opacity="0.5" fill="#9D9D9D" enable-background="new    " d="M496.351,548.469c29.177,0,53.264,21.816,56.872,50.023
		c0-0.114,0-0.184,0-0.297c0-27.99-22.672-50.686-50.663-50.686c-3.674,0-7.282,0.413-10.742,1.166
		C493.291,548.56,494.809,548.469,496.351,548.469z"/>
	<path fill="#D3D3D3" d="M878.951,559.154l8.653,13.836c0,0-131.485,70.298-185.971,70.298c-54.509,0-98.662-20.229-98.662-45.182
		c0-24.945,44.154-45.196,98.662-45.196C742.912,552.91,839.909,553.584,878.951,559.154z"/>
	<g>
		<path fill="#D3D3D3" d="M772.207,593.903c2.337,1.645,7.304,2.536,10.99,1.954l-0.433,0.329c1.188,0.104,2.237,0.024,3.31-0.067
			l-2.191,0.434c3.652-0.205,6.905-0.729,9.635-1.598c3.014,0.022,6.118,0.251,8.769-0.125l0.342,1.083
			c0.948-0.263,1.554,0.068,2.511,0.365l1.143-0.752l2.647,0.843l-0.33-0.536c2.352-0.628,1.849,0.994,2.43,1.176
			c-0.318-1.529-0.318-2.762,1.44-4.201c0.913-0.136,1.506-0.457,2.398-0.593l-0.345,0.639c3.881-0.264,7.969-0.319,11.805-0.719
			c0.329,0.06,0.685,0.126,1.026,0.171l3.995,0.594l1.908,0.365l0.833,0.207c0.021,0,0.046,0.012,0.091,0.023v0.021l0.137,0.022
			l0.045,0.032c0.047-0.056,0.047,0.104,0.07,0l1.095,0.172l0.709,0.114c-0.663,0.067-1.394,0.184-2.33,0.502
			c0.914,0.47,2.193,0.093,3.608-0.295l0.64,0.112l-0.069-0.252c0.491-0.101,0.982-0.24,1.484-0.295
			c-0.583,0.066-1.063,0.112-1.554,0.112l-0.342-1.14c1.106,0.067,2.236,0.09,3.401,0c1.232-0.07,2.534-0.207,3.813-0.39
			l0.046,0.319c-1.6-0.56-3.632,1.152-5.319,1.474l-1.347,0.903c-0.366,1.026,4.405-0.687,3.379,0.981
			c-3.014,1.586-5.731,0.171-8.243,1.825c-2.614,0.938-2.466,0.228-4.201,0.365c-0.571-0.432,0.389-0.662,0.069-1.255
			c-6.086,1.255-5.618,4.167-10.948,5.32c-0.309-0.389-4.761-0.413-1.062-2.123l1.997,0.091l1.107-0.948
			c-1.461,0.365-4.039,1.106-3.926,0.4c-0.32,0.628-1.118,0.991-2.09,1.198c-0.489,0.137-0.88,0.137-1.29,0.147l-1.347-0.012
			c-1.667-0.082-2.694-0.147-0.503,1.141c2.259-0.947,2.671-0.959,4.544-0.582c-5.022,1.609-9.908,2.741-14.76,3.618l-1.609-0.673
			c0.066,0.937-2.192,1.954-4.475,2.922c-1.051,0.115-2.363,0.744-2.193,0.184c-0.386-0.184,1.826-1.152,3.471-1.768
			c1.668-0.642,2.83-1.235,0.491-1.556c-2.82,0.881-5.96,2.204-8.449,4.67c-1.208,1.198-2.18,2.672-2.646,4.157
			c-0.548,1.46-0.584,2.829-0.446,3.902c0.686-2.876,2.124-5.411,5.229-6.119c4.383-2.17,8.96-2.636,13.503-3.286
			c4.511-0.582,9.009-0.867,13.333-1.359c0.128-0.673,2.25-1.517,1.438-1.974c0.652-0.662,2.879-0.73,3.229-1.771
			c6.623-0.808,13.996-3.296,19.774-4.884c-1.198,2.009,3.766,0.127,5.548,0.367c1.322-1.086,4.04-1.429,5.97-1.885
			c0.285,0.227,1.496,0.033,1.313,0.547c-1.483,0.148-1.906,0.651-3.332,1.164c0.89,1.029,3.126-0.833,5.295-1.426l-1.313-0.378
			c3.619-0.913,7.478-3.959,11.018-3.585l-2.512,1.759c4.177-0.433,8.846-3.129,12.156-2.373c-2.637,1.004-7.34,1.139-6.931,2.668
			c0.365,0.766,3.507,0,4.933-0.661c5.548-2.694,10.708-1.117,15.456-3.288c3.095,0,6.063,0.058,8.948,0.159
			c-2.567,1.279-6.255,0.331-7.761,1.758c-1.051,1.985,5.205,0.665,7.876,0.16c1.198-0.317,4.337-0.708,3.79-1.553
			c0.104,0,0.206,0,0.298,0v0.354c0.41-0.124,0.799-0.206,1.209-0.285c0.959,0.021,1.942-0.069,2.832-0.286
			c0.729,0.014,1.415,0.08,2.078,0.24c2.315-0.936,4.258-2.306,6.495-2.876c0.033-0.184,0.124-0.434,0.33-0.711
			c0.161-0.021,0.344-0.067,0.514-0.089l0.948,0.329l0.696-0.433c0.423,0.013,0.879-0.032,1.335,0.059
			c1.929-0.594,2.172-1.828,4.841-2.033c-0.684,1.666,5.411,0.023,7.363,0.436c0.903-0.082,1.839-0.14,2.774-0.208
			c0.033,0.092,0.094,0.185,0.139,0.252c0.397-0.184,0.809-0.274,1.231-0.354c2.467-0.17,4.863-0.354,6.885-0.626
			c0.24,0.031,0.479,0.046,0.684,0.065l0.308-0.114c1.063,0.319-0.867,0.264-0.604,0.697l0.674,0.205
			c0.137-0.079,0.229-0.205,0.524-0.182c0.16,0.078,0.331,0.124,0.263,0.24l-0.217,0.157l0.309,0.138
			c-0.06-0.046-0.114-0.092-0.093-0.147l1.198-0.08c-0.091-0.09,0.068-0.184,0.229-0.274c-0.298,0.046-0.617,0.069-0.892,0.046
			c-0.387,0-0.742-0.102-0.798-0.342c0.125-0.078,0.388-0.171,0.731-0.274c-0.045-0.103-0.139-0.229-0.206-0.365
			c1.678,0.092,3.835,0.594,1.986,1.005c2.419-0.103,4.543-1.986,6.621-0.458c-2.695,0.332-2.74,0.709-4.451,1.03
			c3.812,1.381,8.47,0.307,11.882,0.363c-0.011,0.046,0.15,0.116,0.321,0.171c6.586-2.555,11.882-5.194,13.264-8.195
			c-0.239-0.457-1.975-0.651-2.614-0.925c-1.599,0.662-2.419,1.279-4.691,1.29c-2.636-0.971-10.515,0.207-8.071-2.09
			c-6.072-0.73-5.365,1.929-8.047,2.581c-1.018,0-1.999,0-3.024,0c-0.413-0.059-0.824-0.137-1.326-0.239
			c-2.922-1.429-10.991,1.678-7.18-1.243c-0.466-0.346-0.718-0.426-1.724-0.732c-1.986,0.696-2.535,1.666-0.536,1.894
			c-0.014,0.321-1.017,0.447-1.918,0.503c-0.217,0-0.446,0-0.663,0c-1.496-0.467-2.648-1.348-3.916-2.09
			c1.462-0.307,2.912-0.593,4.362-0.912l18.058-0.585c0.252,0.024,0.502-0.056,0.57-0.158c0.093-0.091-0.056-0.196-0.318-0.217
			c-4.201-0.297-8.482-0.39-12.809-0.422c0.629-0.356,1.027-0.813,0.914-1.235c-0.092-0.457-0.652-0.811-1.484-1.025l2.945-0.3
			c0.594-0.055,1.05-0.285,1.027-0.502c-0.046-0.249-0.548-0.377-1.108-0.319l-11.974,1.187c-4.795,0.229-9.59,0.503-14.385,0.801
			c0.617-0.367,1.074-0.801,1.255-1.221v-0.023l2.216-0.184c13.72-0.103,27.602-0.741,41.527-1.881
			c0.275-0.024,0.503-0.118,0.503-0.22c0-0.125-0.227-0.183-0.442-0.147c-4.226,0.343-8.438,0.639-12.649,0.901l0.035-0.012
			c0.158-0.079,0.182-0.206,0-0.273c-0.161-0.034-0.502-0.011-0.663,0.067c-0.194,0.08-0.161,0.206,0,0.252
			c-7.831,0.468-15.616,0.753-23.333,0.902c7.111-0.605,14.246-1.222,21.322-2.022l2.375,0.207c0.206,0,0.479-0.091,0.57-0.207
			c0.046-0.089-0.114-0.181-0.318-0.181l-0.673-0.047c1.334-0.146,2.351-0.672,2.271-1.21c-0.115-0.547-1.324-0.868-2.695-0.752
			c-3.766,0.227-7.512,0.491-11.256,0.811l-1.21,0.01l-1.256-0.146l17.33-2.262c0.502-0.034,0.912-0.215,0.912-0.409
			c0-0.207-0.423-0.331-0.925-0.285c-10.262,0.01-20.582,0.479-30.991,1.161l-10.503-1.446l1.336-0.15
			c11.198-1.164,21.016,0.229,31.951-0.229c0.252,0,0.479-0.091,0.525-0.205c0.023-0.089-0.16-0.183-0.457-0.159
			c-5.364,0.159-10.296-0.218-15.616-0.252c-4.417-0.057-8.63-0.057-12.729-0.285c8.312-0.627,16.382-0.387,24.669-0.65
			c0.345,0,0.709-0.091,0.925-0.205c0.036,0.046,0.115,0.091,0.239,0.114c1.028,0.171,2.193,0.271,3.334,0.331
			c0.229,0.022,0.502-0.06,0.605-0.16c0.136-0.08-0.034-0.194-0.275-0.205c-1.152-0.058-2.225-0.148-3.184-0.321
			c-0.183-0.033-0.388,0-0.536,0.06c0.056-0.172-0.184-0.3-0.584-0.321c-8.103-0.674-16.735-0.354-25.205-0.227
			c-0.102-0.114-0.229-0.24-0.41-0.331c-0.617-0.355-1.828-0.447-3.014-0.264l-0.914,0.206l-10.959,1.814
			c-0.777-0.102-1.656-0.148-2.604-0.08c-3.22-0.184-6.46-0.354-9.716-0.411c0.206-0.125,0.287-0.273,0.274-0.434
			c-0.091-0.353-0.877-0.538-1.747-0.433l-1.323,0.126l3.79-0.665c0.183-0.01,0.32-0.067,0.479-0.101l4.224-0.401
			c12.5-0.945,24.43-0.879,36.324-0.467c0.206,0.046,0.492,0,0.686-0.092c0.092-0.093,0.046-0.207-0.16-0.253
			c-7.58-1.048-14.212-2.693-22.671-3.011c-10.011-0.367-19.874-0.507-29.976-0.481c-10.526,0.961-20.254,0.901-30.846,0.889
			c-14.314-0.044-27.648,0.149-41.21-0.353c-5.056-0.433-9.748,0.743-10.548,2.776c-0.479,1.207,0.593,2.522,2.684,3.446
			l-1.267-0.047l-1.987,0.114c-1.92,0.114-3.561,0.523-4.635,1.142l-1.474,0.744c-1.997,1.519-5.171,2.601-6.882,4.154l0.25,0.685
			l-0.387,0.148c-1.268,0.343-2.147,0.89-2.5,1.507l0.012,0.798c0.137,0.936,0.641,1.851,1.553,2.764
			c-0.069,0.319,0,0.651,0.251,1.004c-0.959,0.73-1.439,1.531-0.868,2.522c-0.559,0.185-0.502,0.539,0.069,0.788
			c0.217,0.093,0.456,0.162,0.741,0.217h-0.022c-0.317,0.171-0.387,0.23-0.788,0.411l-0.844,0.045l-2.593-0.055
			c-1.036,0.158-1.724,0.456-1.724,0.456c-1.301,1.254-1.323,1.254-1.233,1.872l0.184,0.205l-1.257,0.139
			c-0.264,0.057-0.456,0.182-0.456,0.182c-0.093,0.298-0.093,0.298-0.252,0.389c-0.079,0.114-0.079,0.251-0.079,0.251
			c0.468,0.425,0.468,0.425,0.468,0.549c0.09,0.102,0.239,0.183,0.239,0.183l0.936,0.321l1.382-0.687l0.264,0.345l0.33-0.367
			l-0.218,0.343l0.697-0.137l-0.776,0.227c1.529,0.059,1.529,0.059,2.146,0.16c0.662,0.046,1.222,0.162,1.255,0.184
			c-0.033,0.113-0.068,0.183-0.068,0.183l3.289,0.068c0.159-0.068,0.296-0.125,0.411-0.182c0.137,0.103,0.443,0.204,0.751,0.204
			l0.87,0.022l0.182,0.057l-0.021,0.036l0.045,0.023c-0.16,0.066-0.343,0.157-0.503,0.262c-0.021,0.011-0.021,0.057-0.08,0.091
			c-1.952,0.057-4.006,0.057-5.958,0.033c-0.444-0.113-0.924-0.205-1.428-0.263c-1.872-0.205-3.378,0.229-3.333,0.947
			c-0.183,0.46-0.686,0.938-0.239,1.417c0.788,0.891,2.351,1.507,4.166,1.918l-0.594,0.092
			C771.028,590.571,769.864,592.26,772.207,593.903z M796.337,591.714c-0.891,0.089-1.793,0.157-2.683,0.239
			c-0.821-0.321-1.701-0.606-2.626-0.904c0.847,0.047,1.689,0.022,2.512,0.022l0.022,0.058c0.183-0.033,0.354-0.058,0.525-0.08
			c0.16,0,0.331,0,0.502,0c0.594,0.058,1.063,0.286,1.645,0.379L796.337,591.714z M778.653,587.17
			c-0.067-0.046-0.181-0.114-0.226-0.16l0.364,0.16l2.192-0.276c-0.091,0.139-0.205,0.276-0.32,0.413l-0.204,0.343
			c0,0,0,0.01,0,0.022c-0.345,0-0.652-0.014-1.005-0.022c-0.229-0.092-0.412-0.184-0.57-0.299l-0.388,0.022
			c-0.093-0.046-0.16-0.091-0.274-0.124L778.653,587.17z M781.76,573.151l-1.005-2.124l0.114-0.068L781.76,573.151z
			 M786.885,580.206l-0.628,0.389l0.617-0.389H786.885z M787.855,586.847l-0.387,0.138c-0.274,0.07-0.06,0.41-0.206,0.425
			c-1.301,0.137-2.672,0.171-4.03,0.203c0.126-0.077,0.263-0.182,0.377-0.239l0.319-0.112l0.137-0.046l0.39-0.159
			c0.457-0.162,0.752-0.333,1.004-0.479l1.004,0.317C786.966,586.893,787.434,586.871,787.855,586.847z M802.649,585.353
			c-0.046,0.047-0.046,0.079-0.046,0.125c-0.272,0.126-0.549,0.253-0.774,0.388l-4.762,0.253c-2.067,0.112-4.351,0.078-6.369,0.263
			c1.221-0.333,2.18-0.777,3.069-1.244c0.775,0.161,1.576,0.217,2.409,0.239C798.381,585.432,800.549,585.432,802.649,585.353z
			 M927.307,577.944c1.187,0.389,3.458,0.594,2.078,1.452c-3.357,0.511-3.014-0.619-4.076-1.109
			C925.96,578.15,926.667,578.058,927.307,577.944z M914.178,580.332c-3.345,0.228-6.746,0.557-10.158,0.901
			c-0.399-0.137-0.959-0.193-1.759-0.137c-0.139,0.137-0.227,0.203-0.319,0.343c-1.085,0.092-2.17,0.159-3.267,0.273
			c-1.688-0.114-3.4-0.251-5.181-0.433c1.666-0.24,3.333-0.445,5.012-0.709c5.229-0.116,10.479-0.239,15.82-0.719
			C914.213,579.999,914.155,580.148,914.178,580.332z M837.546,592.168v-0.034c0.081,0,0.196-0.01,0.298-0.01L837.546,592.168z
			 M812.65,592.649c0.033-0.023,0.033-0.046,0.057-0.061h0.059L812.65,592.649z"/>
		<path fill="#D3D3D3" d="M779.18,587.328l-0.296,0.022c-0.093-0.044-0.138-0.102-0.23-0.181h0.139L779.18,587.328z"/>
		<path fill="#D3D3D3" d="M773.962,585.319c-0.467,0.091-0.903,0.159-1.494,0.058l-0.263-0.17l0.901-0.184
			C773.745,584.931,774.02,585.113,773.962,585.319z"/>
		<polygon fill="#D3D3D3" points="772.207,585.207 771.851,585.273 772.113,585.161 772.193,585.183 		"/>
		<path fill="#D3D3D3" d="M946.188,570.811c-0.207-0.059-0.207-0.173,0-0.264c0.159-0.068,0.456-0.092,0.663-0.021
			c0.158,0.021,0.158,0.158,0,0.238C946.657,570.846,946.371,570.867,946.188,570.811z"/>
		<path fill="#D3D3D3" d="M916.439,588.105c2.671,0.913-2.418,1.586-3.653,1.871l0.263-0.514
			C912.513,588.791,914.955,588.105,916.439,588.105z"/>
		<path fill="#D3D3D3" d="M871.074,596.177c1.688-0.445,4.019-1.7,3.195-2.375c5.069-1.314,2.899,1.379,8.197,0.331
			c-4.179,2.511-10.732,1.233-15.115,3.974c-1.917,0.421-2.282-0.527-1.323-0.938C867.467,596.861,869.338,596.073,871.074,596.177z
			"/>
		<path fill="#D3D3D3" d="M859.111,599.383c0.158-0.069,0.365-0.184,0.615-0.272C859.705,599.245,859.59,599.374,859.111,599.383z"
			/>
		<path fill="#D3D3D3" d="M865.115,595.959c-0.274,1.393-3.653,2.443-5.389,3.151c0-0.139-0.091-0.275,0.022-0.355
			C859.613,597.649,863.402,596.232,865.115,595.959z"/>
		<path fill="#D3D3D3" d="M862.411,594.452c-0.653,0.64-1.886,0.811-2.845,0.843l0.914-0.594
			C860.96,594.612,862.559,593.585,862.411,594.452z"/>
		<path fill="#D3D3D3" d="M848.563,600.435l1.93-0.458l-0.309,1.394l-1.689,0.297C851.337,600.81,846.2,601.371,848.563,600.435z"/>
		<path fill="#D3D3D3" d="M845.116,602.467c-0.958,0.251-1.369,0.913-1.872,0.844l-0.801-0.286
			C843.608,602.467,844.353,602.374,845.116,602.467z"/>
		<path fill="#D3D3D3" d="M847.581,598.848c1.21-0.193-1.073,1.289-1.609,1.06C846.668,599.451,846.324,598.848,847.581,598.848z"/>
		<path fill="#D3D3D3" d="M937.124,586.985l-0.514,0.388l-2.409-0.388C935.173,586.576,936.404,586.758,937.124,586.985z"/>
		<path fill="#D3D3D3" d="M930.548,587.01l1.713,0.525c-3.174,0.685-8.767,1.688-12.648,1.574c-1.278-1.064,0.709-0.708,2.649-1.86
			C924.91,586.667,927.854,587.328,930.548,587.01z"/>
	</g>
	<path opacity="0.5" fill="#FFFFFF" enable-background="new    " d="M703.872,637.419c-51.152,0-92.592-20.502-92.592-45.821
		c0-0.889,0.035-1.814,0.161-2.717c-1.143,2.717-1.747,5.549-1.747,8.436c0,22.706,37.191,41.108,83.071,41.108
		c3.379,0,7.112-0.342,11.13-1.006C703.872,637.419,703.872,637.419,703.872,637.419z"/>
</g>
</svg>
