<?xml version="1.0" encoding="utf-8"?>
<!-- Generator: Adobe Illustrator 25.2.1, SVG Export Plug-In . SVG Version: 6.00 Build 0)  -->
<svg version="1.1" id="レイヤー_1" xmlns="http://www.w3.org/2000/svg" xmlns:xlink="http://www.w3.org/1999/xlink" x="0px"
	 y="0px" viewBox="0 0 951 359.3" style="enable-background:new 0 0 951 359.3;" xml:space="preserve">
<style type="text/css">
	.st0{fill:#B5B5B5;}
	.st1{fill:#E2E2E2;}
	.st2{fill:#FFFFFF;}
</style>
<g>
	<path class="st0" d="M98.2,194.4c4.5-0.8,8.7-1.2,12.7-1.2c10.5,0,18.7,2.5,24.7,7.4c5.6,4.5,8.6,10.6,8.9,18.3
		c0.4,6.4-1.4,13.2-5.4,20.4c-3.4,6-6.6,10-9.7,12.1c-7.4,4.8-14.5,7.8-21.4,9.1c-3,0.5-8.7,0.8-17.1,0.8
		c-15.7,0-29.9-3.4-42.6-10.1c-13.6-7.1-23.9-17.3-30.9-30.6C11.1,209,8,196.7,8,183.6c0-20.4,6.7-37.8,20.2-52.4
		c5.6-6,13-11.2,22.4-15.6c12.1-5.6,25.7-9,40.8-10.1c10.9-0.4,19.8,0.1,26.7,1.6c6.9,1.4,12.8,4.4,17.6,9
		c5.4,5.3,8.2,11.8,8.2,19.5c0,5.6-1.4,11.5-4.3,17.8c-2.9,6.3-7.8,10.6-15,13c-5.3,1.8-13.6,3.1-24.9,3.7
		c-17.8,0.9-25.9,6.7-24.5,17.3c0.9,5.5,5.1,8.2,12.6,8.2C90.3,195.6,93.7,195.2,98.2,194.4z M109,244.6c0.6-2.7-1.3-4.7-5.8-5.8
		L100,238l0.8-3.3c1-4.4,0.2-6.9-2.5-7.6c-2.6-0.5-4.4,1.4-5.4,5.6l-0.8,3.3l-3.3-0.8c-4.3-1-6.7-0.3-7.4,2.3
		c-0.7,2.6,1.2,4.5,5.4,5.6l3.5,0.8l-0.8,3.1c-1,4.5-0.3,7.1,2.3,7.8c2.7,0.7,4.6-1.3,5.6-5.8l0.8-2.9l2.7,0.8
		C105.7,248.1,108.3,247.3,109,244.6z M129.8,227.5c5.2,1.3,8.2,0.4,8.9-2.7c0.8-3-1.4-5.1-6.6-6.4l-3.5-1l0.8-3.9
		c1.2-4.9,0.2-7.8-2.9-8.6c-2.9-0.6-4.9,1.4-6,6.2l-1,3.9l-3.9-1c-4.8-1.2-7.6-0.3-8.4,2.7c-0.8,3,1.3,5.1,6.2,6.4l3.9,1l-0.8,3.5
		c-1.3,5.2-0.4,8.2,2.7,8.9c3.1,0.8,5.3-1.5,6.4-6.8l0.8-3.3L129.8,227.5z"/>
	<path class="st1" d="M300.5,125.6c8,7.1,14.4,15.9,19,26.3c4.6,10.4,6.9,21.1,6.9,32.1c0,19.7-6.6,37-19.8,51.8
		c-15.3,17-35.1,25.5-59.5,25.5c-20.9,0-38.8-6.9-53.9-20.6c-8-7.4-14.3-16.4-18.8-27.1c-4.5-10.6-6.6-21.6-6.3-32.7
		c0.5-18.8,7.2-35.4,20-49.7c7.4-8.2,16.3-14.5,26.8-19c10.5-4.5,21.5-6.7,32.9-6.7C268.2,105.5,285.8,112.2,300.5,125.6z
		 M274.9,191.9l-7.2-7.8l8.8-8.4c6.5-6.1,9.7-12,9.7-17.7c0-3.1-1.1-5.8-3.3-8.1c-2.2-2.3-4.9-3.4-8-3.4c-5.3,0-11.1,3-17.3,8.9
		l-8.8,8.2l-8-8.8c-6.2-6.8-12.1-10.2-17.5-10.2c-3.1,0-5.7,1.1-7.9,3.4c-2.1,2.3-3.2,5-3.2,8.1c0,5.6,2.8,11.4,8.4,17.5l8,9
		l-7.6,7.2c-7.4,7-11.1,13.3-11.1,18.7c0,3.1,1.2,5.9,3.6,8.3c2.4,2.4,5.2,3.6,8.3,3.6c5.3,0,11.5-3.4,18.5-10.1l7.2-6.8l6.8,7.4
		c6.7,7.5,12.9,11.3,18.5,11.3c3.2,0,6-1.2,8.4-3.5c2.3-2.3,3.5-5.1,3.5-8.2C284.6,205.2,281.4,199,274.9,191.9z"/>
	<path class="st0" d="M468.8,177.5c10.2,3,15.8,13.9,16.5,32.7c0,15.9-6.2,28.5-18.7,37.5c-12.4,9.1-31.4,13.6-56.8,13.6
		c-11.5,0-26.3-1.9-44.1-5.6c-4.5-1.6-8.1-4.4-10.7-8.5c-2.6-4.1-3.9-8.7-3.9-13.7c0-3.2,0.5-6.4,1.6-9.3
		c3.2-9.7,8.9-14.6,17.1-14.6c0.9,0,1.7,0.1,2.3,0.4c3.4,0.5,8.4,2.9,15.2,7.2c6.4,3.9,10.8,5.8,13.4,5.8c2.7,0,4.9-1.6,6.6-4.7
		c0.6-1.2,1-2.4,1-3.7c0-5.2-5.4-10.3-16.3-15.2c-6-2.2-11.9-4.4-17.9-6.6c-14.9-7.8-22.4-20.3-22.4-37.6c0-4.8,0.5-9.2,1.6-13.2
		c3.8-13.4,12.8-23.2,27-29.4c11.4-4.8,25.1-7.1,41-7c17,0,25.8,0.2,26.5,0.6c9.2-0.3,16.5,2.3,22,7.8c4.9,4.8,7.4,10.8,7.4,17.9
		c0,7.8-2.9,14-8.8,18.7c-3.8,3-8.4,4.5-14,4.5c-6.5,0-11.9-2.5-16.1-7.4c-1.2-1.4-3.6-2.1-7.4-2.1c-6.6,0-9.9,1.7-9.9,5.1
		c0,2.7,3.4,6,10.1,9.7C448.7,167.7,461.2,173.5,468.8,177.5z M390.6,144.8c0.4-0.5,0.6-1.2,0.6-1.9c0-1.7-1.2-3.4-3.5-5.3l-2.7-1.9
		l1.7-2.5c1.6-1.9,2.3-3.7,2.3-5.3c0-2.2-1.2-3.3-3.5-3.3c-1.7,0-3.5,1.3-5.4,3.9l-1.6,2.3l-2.3-1.7c-2.1-1.6-3.8-2.3-5.3-2.3
		c-2.3,0-3.5,1.2-3.5,3.5c0,1.7,1.3,3.4,3.9,5.3l2.5,1.9l-2.1,2.7c-1.2,1.8-1.7,3.4-1.7,4.9c0,2.3,1.1,3.5,3.3,3.5
		c1.7,0,3.4-1.2,5.1-3.5l1.9-2.9l2.7,2.1c1.8,1.3,3.4,1.9,4.9,1.9C389,146.2,389.9,145.7,390.6,144.8z M417.8,136.8
		c0.3-0.5,0.4-1,0.4-1.6c0-1.6-1-3.1-2.9-4.7l-2.3-1.8l1.6-2.1c1.3-1.8,1.9-3.3,1.9-4.5c0-2.1-1-3.1-3.1-3.1c-1.4,0-3,1.2-4.7,3.5
		l-1.4,1.9l-2.1-1.6c-1.7-1.3-3.2-1.9-4.5-1.9c-2.1,0-3.1,1-3.1,2.9c0,1.6,1.2,3.1,3.5,4.7l2.1,1.8l-1.9,2.3
		c-2.1,3.1-2.2,5.4-0.4,6.8c0.5,0.4,1.1,0.6,1.8,0.6c1.4,0,2.8-1,4.3-3.1l1.9-2.5l2.3,1.7C414.2,138.6,416.4,138.8,417.8,136.8z"/>
	<path class="st1" d="M657.6,138.6c6.5,10.4,9.7,22.3,9.7,35.6c0,10.4-2.3,20.5-6.8,30.4c-3.4,7.7-9,16.6-16.9,26.7
		c-4.8,5.6-10.2,10.5-16.1,14.6c-14.3,9.9-30,15-47.3,15.4c-10.1,0.3-16.6,0.4-19.4,0.4c-21,0-31.5-2.5-31.5-7.6
		c0-1,0.5-2.3,1.6-3.9c2.3-3.1,6.6-6.4,12.8-9.7c7.7-4,14.2-8.6,19.6-13.6c-4.5-0.8-11.9-2.9-22-6.2c-12.3-5.7-21.1-14.5-26.5-26.3
		c-3.5-7.7-5.3-15.8-5.3-24.5c0-9.7,2.3-18.7,6.8-26.9c5.4-9.9,13.3-18,23.5-24.5c13.7-8.6,30.2-12.9,49.4-12.9
		c19.1,0,35,4,47.8,12.1C645.7,122.9,652.6,129.9,657.6,138.6z M609.8,174.2l-5.8-6.5l7.2-6.8c5.2-5,7.8-9.8,7.8-14.5
		c0-2.6-0.9-4.8-2.6-6.7c-1.8-1.8-3.9-2.7-6.5-2.7c-4.3,0-9,2.5-14.2,7.4l-7,7l-6.4-7.3c-5.1-5.6-9.9-8.5-14.4-8.5
		c-2.6,0-4.7,0.9-6.4,2.8c-1.7,1.9-2.5,4.1-2.5,6.7c0,4.4,2.3,9.2,6.8,14.2l6.6,7.4l-6.2,5.9c-6.1,5.7-9.1,10.8-9.1,15.2
		c0,2.5,1,4.7,2.9,6.6c1.9,2,4.1,2.9,6.6,2.9c4.4,0,9.5-2.7,15.2-8.2l5.8-5.6l5.4,6c5.6,6.2,10.6,9.3,15.2,9.3c2.6,0,4.9-1,6.8-2.9
		c1.9-2,2.9-4.2,2.9-6.7C617.7,185,615.1,179.9,609.8,174.2z"/>
	<path class="st0" d="M822.1,145.2c18.2,12.2,27.2,29.3,27.2,51.3c0,16.7-6.6,31.3-19.8,43.8c-15,14-35.1,21-60.3,21
		c-11.5,0-22-1.6-31.3-4.7c-14.4-4.7-25.8-12.8-34.2-24.2c-8.4-11.5-12.6-24.9-12.6-40.2c0-22.3,8.6-42.1,25.9-59.4
		c22.2-18.9,51.9-28,89.3-27.3c6.4,0.1,11.5,1.2,15.4,3.1c3.5,1.7,5.2,3.8,5.2,6.5c0,3.4-3,6.5-9.1,9.2c-7,3.1-15.7,8.2-26.1,15.1
		c1.4-1,3.5-1.6,6.2-1.6c3.8,0,8.2,0.8,13.2,2.5C815.7,141.8,819.4,143.4,822.1,145.2z M796.1,207.8l-7-7.2l8.6-7.6
		c6.2-5.7,9.3-11.1,9.3-16.3c0-3-1.1-5.5-3.2-7.5c-2.1-2-4.7-3-7.7-3c-5.1,0-10.6,2.7-16.7,8.2l-8.4,7.6l-7.8-8.1
		c-6.1-6.3-11.8-9.4-17.1-9.4c-3,0-5.5,1-7.7,3c-2.1,2-3.2,4.5-3.2,7.5c0,5.1,2.7,10.5,8.2,16.2l8,8.2l-7.6,6.6
		c-7.1,6.4-10.7,12.1-10.7,17.2c0,2.9,1.2,5.4,3.5,7.5c2.3,2.1,5,3.2,8,3.2c5.2,0,11.1-3,17.9-9.1l7-6.4l6.6,6.8
		c6.6,7,12.6,10.5,18.1,10.5c3,0,5.6-1.1,8-3.2c2.3-2.1,3.5-4.7,3.5-7.7C805.6,219.9,802.4,214.3,796.1,207.8z"/>
	<path class="st1" d="M942.9,222.7c0,25.7-11.7,38.6-35,38.6c-23.6,0-35.3-12.9-35-38.6l0.8-81c0.1-10.8,3.3-19.5,9.6-26.2
		c6.3-6.7,14.9-10,25.8-10c10.9,0,19.3,3.3,25.1,9.8c5.8,6.6,8.8,15.3,8.8,26.2V222.7z"/>
	<g>
		<g>
			<path class="st1" d="M262.5,25.1c1.4,0,2.6,0.5,3.6,1.5c1,1,1.5,2.2,1.5,3.6v13.2c0,0.4,0.1,0.7,0.3,1c2.2,3.4,6.2,5.1,12,5.4
				c3,0.1,6.1,0.2,9.3,0.2c5.2,0,10.7-0.2,16.5-0.5c0,0,0.1,0,0.1,0c0.8,0,1.4,0.3,1.8,0.9c0.3,0.4,0.5,0.9,0.5,1.4
				c0,0.3,0,0.5-0.1,0.8c-0.3,1-0.9,1.8-1.7,2.5c-0.8,0.7-1.7,1-2.7,1.1c-4.4,0.2-8.6,0.2-12.6,0.2c-3.9,0-7.6-0.1-11.1-0.2
				c-3.5-0.2-6.4-0.7-8.7-1.6c-2.3-0.9-4.4-2.4-6.1-4.4c-0.3-0.3-0.5-0.3-0.8-0.1c-1.5,1.4-2.9,2.8-4.4,4.1
				c-0.5,0.5-1.2,0.8-1.8,0.8c-0.2,0-0.4,0-0.6-0.1c-1-0.2-1.7-0.7-2.1-1.6c-0.3-0.6-0.4-1.3-0.4-1.9c0-0.4,0-0.8,0.1-1.2
				c0.3-1.1,0.9-1.9,1.8-2.6c1.3-0.9,2.5-1.9,3.7-2.9c0.3-0.2,0.5-0.5,0.5-0.9V32.2c0-0.4-0.2-0.6-0.6-0.6h-2.9
				c-0.9,0-1.6-0.3-2.3-1c-0.6-0.6-1-1.4-1-2.3c0-0.9,0.3-1.6,1-2.3c0.6-0.6,1.4-1,2.3-1H262.5z M267,10.3c0.5,0.7,0.8,1.4,0.8,2.1
				c0,0.2,0,0.3,0,0.5c-0.2,1-0.7,1.8-1.5,2.4c-0.6,0.5-1.3,0.7-2,0.7c-0.2,0-0.4,0-0.6-0.1c-1-0.2-1.8-0.7-2.4-1.4
				c-1.2-1.5-2.7-3.1-4.4-4.7c-0.6-0.6-0.9-1.3-0.9-2c0-0.9,0.4-1.7,1.1-2.2c0.7-0.6,1.6-0.9,2.5-0.9c0,0,0.1,0,0.1,0
				c1,0,1.9,0.4,2.6,1C264.2,7.4,265.7,8.9,267,10.3z M273.8,42.7C273.8,42.7,273.8,42.7,273.8,42.7l-0.1-19.4c0-0.1,0-0.1-0.1-0.2
				c-0.1,0-0.1,0-0.2,0.1h-0.1c-0.7,0.7-1.5,1-2.4,1c-0.1,0-0.2,0-0.2,0c-1-0.1-1.9-0.5-2.6-1.2c-0.7-0.7-1-1.5-1-2.5
				c0-1,0.4-1.9,1.1-2.7c3.6-3.4,6.5-7.5,8.8-12.3c0.5-0.9,1.2-1.6,2.1-2.1c0.6-0.3,1.2-0.4,1.7-0.4c0.3,0,0.7,0.1,1.1,0.2
				c0.9,0.3,1.6,0.8,2,1.7c0.2,0.4,0.3,0.8,0.3,1.3c0,0.4-0.1,0.9-0.3,1.3c-0.4,0.8-0.8,1.7-1.3,2.5c0,0.1,0,0.2,0,0.3
				c0.1,0.1,0.1,0.2,0.3,0.2h5.5c0.4,0,0.7-0.2,0.8-0.5c0.4-1.1,0.8-2.3,1.2-3.5c0.3-1,0.9-1.8,1.8-2.4c0.7-0.4,1.3-0.6,2-0.6
				c0.3,0,0.6,0,0.9,0.1c1,0.2,1.7,0.8,2.1,1.7c0.2,0.4,0.3,0.8,0.3,1.3c0,0.5-0.1,0.9-0.3,1.4c-0.3,0.7-0.7,1.4-1,2
				c-0.1,0.1-0.1,0.2,0,0.3s0.2,0.2,0.3,0.2h7.1c0.8,0,1.5,0.3,2.1,0.9c0.6,0.6,0.9,1.3,0.9,2.1c0,0.8-0.3,1.5-0.9,2.1
				c-0.6,0.6-1.3,0.9-2.1,0.9h-8.1c-0.4,0-0.6,0.2-0.6,0.6v2.6c0,0.4,0.2,0.6,0.6,0.6h6.8c0.8,0,1.4,0.3,2,0.8
				c0.6,0.5,0.8,1.2,0.8,2c0,0.8-0.3,1.5-0.8,2c-0.6,0.5-1.2,0.8-2,0.8h-6.8c-0.4,0-0.6,0.2-0.6,0.6v2.8c0,0.4,0.2,0.6,0.6,0.6h6.8
				c0.8,0,1.4,0.3,2,0.8c0.6,0.5,0.8,1.2,0.8,2c0,0.8-0.3,1.5-0.8,2c-0.6,0.5-1.2,0.8-2,0.8h-6.8c-0.4,0-0.6,0.2-0.6,0.6v2.9
				c0,0.4,0.2,0.6,0.6,0.6h9.1c0.8,0,1.6,0.3,2.1,0.9c0.6,0.6,0.9,1.3,0.9,2.1c0,0.8-0.3,1.5-0.9,2.1c-0.6,0.6-1.3,0.9-2.1,0.9
				h-28.6c-0.6,0-1.2-0.2-1.6-0.7c-0.5-0.5-0.7-1-0.7-1.6V42.7z M287.8,20.2c0.4,0,0.6-0.2,0.6-0.6V17c0-0.4-0.2-0.6-0.6-0.6h-6.6
				c-0.4,0-0.6,0.2-0.6,0.6v2.6c0,0.4,0.2,0.6,0.6,0.6H287.8z M287.8,29.7c0.4,0,0.6-0.2,0.6-0.6v-2.8c0-0.4-0.2-0.6-0.6-0.6h-6.6
				c-0.4,0-0.6,0.2-0.6,0.6v2.8c0,0.4,0.2,0.6,0.6,0.6H287.8z M287.8,39.4c0.4,0,0.6-0.2,0.6-0.6v-2.9c0-0.4-0.2-0.6-0.6-0.6h-6.6
				c-0.4,0-0.6,0.2-0.6,0.6v2.9c0,0.4,0.2,0.6,0.6,0.6H287.8z"/>
			<path class="st1" d="M329.4,6.3c0.4-0.9,1.1-1.6,2.1-2c0.5-0.3,1.1-0.4,1.6-0.4c0.4,0,0.8,0.1,1.2,0.2c1,0.3,1.6,0.9,2,1.8
				c0.2,0.5,0.3,0.9,0.3,1.3c0,0.5-0.1,0.9-0.3,1.4c-1.3,2.7-2.7,5.4-4.4,8.1c-0.2,0.3-0.3,0.7-0.3,1.1v35.8c0,1-0.3,1.8-1,2.5
				c-0.7,0.7-1.5,1-2.5,1s-1.8-0.3-2.5-1s-1-1.5-1-2.5V27.8c0-0.1,0-0.2-0.1-0.2c-0.1,0-0.2,0-0.2,0c-0.8,1-1.6,1.9-2.5,2.8
				c-0.6,0.6-1.3,0.9-2.1,0.9c-0.2,0-0.3,0-0.5-0.1c-1-0.2-1.8-0.7-2.3-1.6c-0.5-0.8-0.7-1.7-0.7-2.6c0-0.2,0-0.5,0.1-0.7
				c0.1-1.2,0.6-2.2,1.4-3.1C322.4,18.5,326.3,12.8,329.4,6.3z M352.6,50h8.5c1.2,0,2-0.5,2.5-1.4c0.5-0.9,0.8-2.7,1.1-5.3
				c0-0.8,0.4-1.4,1.2-1.8c0.4-0.2,0.8-0.3,1.2-0.3c0.3,0,0.7,0.1,1,0.2c1,0.5,1.8,1.1,2.4,2c0.5,0.7,0.7,1.4,0.7,2.3
				c0,0.2,0,0.4,0,0.6c-0.5,3.8-1.5,6.4-2.8,8c-1.3,1.5-3.5,2.3-6.5,2.3h-9.9c-3.7,0-6.3-0.7-7.6-2.2c-1.3-1.5-2-4.3-2-8.5V7.3
				c0-1,0.3-1.8,1-2.5s1.5-1,2.5-1c1,0,1.8,0.3,2.5,1s1,1.5,1,2.5v16.1c0,0.1,0.1,0.2,0.2,0.3c0.1,0.1,0.2,0.1,0.3,0
				c4-2.3,7.7-4.8,11.3-7.6c0.8-0.6,1.6-0.9,2.6-0.9c0.2,0,0.3,0,0.4,0c1.1,0.1,2,0.5,2.8,1.4c0.6,0.7,0.9,1.5,0.9,2.3
				c0,0.2,0,0.3,0,0.5c-0.2,1.1-0.7,1.9-1.6,2.5c-4.5,2.9-9.9,5.9-16.4,9c-0.3,0.2-0.5,0.4-0.5,0.8V46c0,1.7,0.2,2.8,0.5,3.3
				C350.2,49.7,351.1,50,352.6,50z"/>
			<path class="st1" d="M431.1,35.5c0.5,0.7,0.8,1.4,0.8,2.1c0,0.2,0,0.4-0.1,0.6c-0.2,1-0.7,1.8-1.6,2.4c-0.7,0.5-1.3,0.7-2.1,0.7
				c-0.2,0-0.5,0-0.7-0.1c-1-0.2-1.9-0.7-2.5-1.5c-0.2-0.3-0.5-0.5-0.7-0.8s-0.5-0.4-0.9-0.4c-1.5,0-3.8,0.1-6.8,0.3
				c-3,0.1-5.3,0.2-6.9,0.3c-0.4,0-0.6,0.3-0.6,0.6v14.2c0,1-0.4,1.9-1.1,2.6c-0.7,0.7-1.6,1.1-2.6,1.1c-1,0-1.9-0.4-2.7-1.1
				c-0.7-0.7-1.1-1.6-1.1-2.6V39.9c0-0.2-0.1-0.3-0.2-0.4c-0.1-0.1-0.3-0.2-0.4-0.2c-5.5,0.2-11.5,0.4-18,0.6c0,0-0.1,0-0.2,0
				c-0.9,0-1.8-0.3-2.5-0.9c-0.7-0.7-1.1-1.5-1.2-2.5c0-0.1,0-0.2,0-0.3c0-0.8,0.3-1.5,0.8-2.1c0.7-0.7,1.4-1.1,2.4-1.1
				c2.3,0,5.1-0.1,8.2-0.1c0.4,0,0.7-0.1,1-0.3c1.6-1.1,2.6-1.9,3.1-2.3c0.3-0.2,0.3-0.5,0-0.8c-2.4-2.2-5.3-4.4-8.8-6.8
				c-0.8-0.5-1.2-1.3-1.2-2.3c0-0.7,0.3-1.3,0.8-1.8l0.2-0.1c0.7-0.6,1.5-1,2.4-1.1c0.1,0,0.3,0,0.4,0c0.8,0,1.5,0.2,2.1,0.6
				c0.2,0.1,0.4,0.1,0.5-0.1c1.5-1.5,3-3.2,4.6-5c0.1-0.1,0.1-0.2,0-0.3c-0.1-0.1-0.1-0.1-0.3-0.1c-3.1,0.2-6.4,0.3-9.9,0.3h-0.1
				c-0.9,0-1.7-0.3-2.4-0.9c-0.7-0.6-1.2-1.3-1.4-2.3c-0.1-0.2-0.1-0.5-0.1-0.7c0-0.5,0.2-1,0.5-1.4c0.4-0.6,1-0.9,1.8-1
				C398.7,6,410.6,5,420,3.4c0.4,0,0.8-0.1,1.2-0.1c0.8,0,1.5,0.1,2.3,0.3c1.2,0.4,2.1,1.1,2.8,2c0.4,0.5,0.6,0.9,0.6,1.4
				c0,0.3-0.1,0.5-0.2,0.8c-0.3,0.8-0.8,1.3-1.7,1.4c-5.8,1-12.2,1.8-19.2,2.4c0.2,0.1,0.2,0.3,0.1,0.4c-2.8,3.2-5.8,6.2-8.9,9.1
				c-0.3,0.3-0.3,0.5,0,0.7c1.4,1,2.6,1.9,3.6,2.8c0.3,0.2,0.6,0.2,0.9,0c3.7-3.2,7.1-6.4,10.1-9.5c0.8-0.8,1.7-1.3,2.8-1.5
				c0.3,0,0.6-0.1,0.9-0.1c0.8,0,1.5,0.2,2.3,0.6c0.8,0.5,1.3,1.2,1.4,2.1c0,0.2,0.1,0.3,0.1,0.4c0,0.8-0.3,1.4-0.9,2
				c-4.7,4.4-9.9,8.9-15.7,13.3c0,0,0,0.1,0,0.2c0,0.1,0.1,0.1,0.1,0.1c3.5-0.1,8.5-0.2,15-0.3c0.1,0,0.2,0,0.2-0.1
				c0-0.1,0-0.2-0.1-0.3c-0.4-0.4-0.9-0.9-1.4-1.3c-0.5-0.5-0.8-1.1-0.8-1.9c0-1,0.4-1.7,1.2-2.3c0.7-0.5,1.5-0.7,2.4-0.7
				c0.1,0,0.2,0,0.3,0c1,0.1,1.9,0.4,2.7,1.1C425.8,30,428.8,32.9,431.1,35.5z M388.1,44.3c0.8-0.8,1.8-1.4,2.9-1.7
				c0.5-0.1,0.9-0.2,1.4-0.2c0.6,0,1.2,0.1,1.8,0.3c0.9,0.3,1.5,0.9,1.7,1.8c0.1,0.2,0.1,0.5,0.1,0.7c0,0.6-0.2,1.2-0.7,1.7
				c-2.5,2.7-5.3,5.2-8.4,7.6c-0.8,0.7-1.8,1-2.8,1c-0.1,0-0.2,0-0.3-0.1c-1.2,0-2.2-0.4-3.1-1.2c-0.7-0.5-1-1.2-1-2.1
				c0-1,0.4-1.8,1.3-2.3C383.7,48.2,386,46.4,388.1,44.3z M415.5,47.1c-0.7-0.5-1-1.2-1-2c0-0.9,0.3-1.6,1-2.1
				c0.9-0.6,1.9-0.9,2.9-0.9h0.1c1,0,2,0.3,2.9,0.9c3.2,2.2,6,4.3,8.3,6.3c0.7,0.6,1.1,1.4,1.1,2.3c0,1.1-0.5,2-1.4,2.7
				c-0.8,0.6-1.6,0.9-2.5,0.9c-0.2,0-0.3,0-0.5-0.1c-1.1-0.1-2-0.5-2.9-1.3C421.3,51.7,418.6,49.5,415.5,47.1z"/>
		</g>
		<g>
			<path class="st1" d="M476.9,11.1c3.5,0.2,6.4,1.5,8.6,4c2.2,2.5,3.9,5.3,4.9,8.4c1,3.1,1.5,6.4,1.5,9.6s-0.5,6.5-1.5,9.6
				c-1,3.1-2.6,5.9-4.9,8.4c-2.3,2.5-5.1,3.8-8.6,4h-1.4h-26.1c-1.3,0-2.5-0.5-3.4-1.5c-0.9-0.9-1.4-2.1-1.5-3.4
				c0-1.4,0.5-2.6,1.4-3.6c0.9-1,2.1-1.5,3.5-1.6h25c1.9-0.1,3.5-0.8,4.7-2.2c1.2-1.3,2.2-2.9,2.7-4.6c0.6-1.7,0.9-3.5,0.9-5.3
				c0-1.8-0.3-3.6-0.9-5.3c-0.6-1.7-1.5-3.3-2.7-4.6c-1.2-1.3-2.8-2.1-4.7-2.2h-25c-3-0.2-4.6-1.9-4.9-4.9c0-1.4,0.5-2.6,1.4-3.6
				c0.9-1,2.1-1.5,3.5-1.6h24.1H476.9z"/>
			<path class="st1" d="M502.4,16.1c0-1.4,0.5-2.6,1.5-3.6c1-1,2.2-1.5,3.6-1.5h19.3c1.4,0,2.6,0.5,3.6,1.4c0.9,1,1.4,2.2,1.4,3.6
				c0,1.4-0.5,2.6-1.5,3.6c-1,1-2.2,1.5-3.5,1.5h-19.3c-1.4,0-2.6-0.5-3.5-1.5C502.9,18.7,502.4,17.5,502.4,16.1z M552.4,16.5
				l-6.9,21.2c-2,5.7-4.5,10-7.5,12.9c-3,2.9-6.3,4.4-9.8,4.6h-14.1c-1.3,0-2.5-0.5-3.4-1.5c-0.9-0.9-1.4-2.1-1.5-3.4
				c0-1.4,0.5-2.6,1.4-3.6c0.9-1,2.1-1.5,3.5-1.6h11.5c1.9-0.1,3.7-0.8,5.3-2.2c1.7-1.3,2.9-2.9,3.8-4.6c0.8-1.7,1.6-3.6,2.2-5.6
				l6.1-19.6c0.3-1,0.9-1.9,1.5-2.6c0.7-0.7,1.7-1,3.1-1c1.3,0,2.5,0.5,3.5,1.5c1,1,1.5,2.2,1.5,3.6
				C552.7,15.3,552.6,15.9,552.4,16.5z"/>
			<path class="st1" d="M560.8,20c0-1.4,0.5-2.6,1.5-3.6c1-1,2.2-1.5,3.6-1.5h11.8l0.1-1.1c0.2-1.4,0.9-2.6,2-3.5
				c1.1-0.9,2.3-1.4,3.7-1.4c1.3,0.1,2.4,0.5,3.3,1.5c0.8,0.9,1.2,2.1,1.1,3.4l-0.1,1.1h19.5c1.4,0,2.6,0.5,3.6,1.4
				c1,1.1,1.5,2.3,1.4,3.6l-1.6,13.7c-0.5,3.5-1.4,6.9-2.8,10c-1.4,3.1-3.4,5.9-5.9,8.2c-2.5,2.3-5.1,3.4-7.8,3.4h-4.6
				c-1.3,0-2.5-0.5-3.4-1.5c-0.9-0.9-1.4-2.1-1.5-3.4c0-1.4,0.5-2.6,1.4-3.6c0.9-1,2.1-1.5,3.5-1.6h3.4c1.5,0,2.8-0.8,4-2.1
				c1.2-1.4,2-2.9,2.6-4.6c0.5-1.7,0.9-3.6,1.2-5.6l0.6-5.9c0.1-1.2-0.3-1.8-1.3-1.9h-13.7l-1.3,8.7c-0.5,3.5-1.4,6.9-2.8,10
				c-1.4,3.1-3.5,5.8-6,8c-2.6,2.2-5.6,3.4-9.1,3.6h-3.3c-1.3,0-2.5-0.5-3.4-1.5c-0.9-0.9-1.4-2.1-1.5-3.4c0-1.4,0.5-2.6,1.4-3.6
				c0.9-1,2.1-1.5,3.5-1.6h2.1c1.9-0.1,3.6-0.8,5-2.2s2.4-2.9,3-4.6c0.5-1.7,0.9-3.6,1.2-5.6l1.1-7.8h-10.4c-1.4,0-2.6-0.5-3.5-1.5
				C561.3,22.6,560.8,21.4,560.8,20z"/>
			<path class="st1" d="M621.8,16.1c0-1.4,0.5-2.6,1.5-3.6s2.2-1.5,3.6-1.5h40.8c1.4,0,2.6,0.5,3.6,1.4c1,1.1,1.5,2.3,1.4,3.6
				l-2.4,17.6c-0.5,3.5-1.4,6.9-2.8,10c-1.4,3.1-3.5,5.8-6,8c-2.6,2.2-5.6,3.4-9.1,3.6h-14.1c-1.3,0-2.5-0.5-3.4-1.5
				c-0.9-0.9-1.4-2.1-1.5-3.4c0-1.4,0.5-2.6,1.4-3.6c0.9-1,2.1-1.5,3.5-1.6h12.9c1.9-0.1,3.6-0.8,5-2.2s2.4-2.9,3-4.6
				c0.5-1.7,0.9-3.6,1.2-5.6l1.3-9.8c0.1-1.2-0.3-1.8-1.3-1.9h-33.6c-1.4,0-2.6-0.5-3.5-1.5C622.2,18.7,621.8,17.5,621.8,16.1z"/>
			<path class="st1" d="M682.1,51.3c0-1.1,0.4-2,1.2-2.8c0.8-0.8,1.7-1.2,2.9-1.2h11.4V28h-11.4c-1.1,0-2.1-0.4-2.8-1.2
				c-0.8-0.7-1.2-1.7-1.2-2.8c0-1.1,0.4-2.1,1.2-2.9c0.8-0.8,1.7-1.2,2.9-1.2h31c1.1,0,2.1,0.4,2.9,1.1c0.7,0.8,1.1,1.8,1.1,2.9
				c0,1.1-0.4,2-1.2,2.8c-0.8,0.8-1.7,1.2-2.9,1.2h-11.4v19.3h11.4c1.1,0,2.1,0.4,2.9,1.1c0.7,0.8,1.1,1.7,1.1,2.8
				c0,1.1-0.4,2.1-1.2,2.9c-0.8,0.8-1.7,1.2-2.9,1.2h-31c-1.1,0-2.1-0.4-2.8-1.2C682.5,53.4,682.1,52.4,682.1,51.3z"/>
		</g>
	</g>
	<g>
		<path class="st2" d="M302.9,338.8v-23.5h-38.7c4.5-10.2,14.7-17.3,26.5-17.3c16,0,29,13,29,29.1c0,16.1-13,29.1-29.1,29.1
			c-12.1,0-22.3-7.1-26.7-17.7C277.3,338.7,290.1,338.7,302.9,338.8z"/>
		<path class="st2" d="M419.2,334.6c-2.7,8.8-7.3,14.5-15.2,18.6L391,340.3l-13,12.9c-7.5-3.7-13.1-10.4-15.2-18.6l38.1-20.4H365
			c4.8-9.6,14.4-16.1,25.7-16.3h0.9c11.3,0.2,20.9,6.8,25.6,16.3h-0.1l-12.6,12.5L419.2,334.6z"/>
		<path class="st2" d="M516.8,315.1c0.3,0,0.7-0.1,1.1-0.1c1.7,3.7,2.6,7.8,2.6,12c0,16.1-13,29.1-29.1,29.1c-3,0-5.8-0.5-8.5-1.3
			l26.3-42.2h-27.4l-9.2,15h-10.4c0-0.2,0-0.4,0-0.6c0.3-16.3,13.3-29.3,29.3-29.3c5.6,0,10.8,1.6,15.2,4.3
			c-0.1,0.8-0.3,1.6-0.3,2.5C506.4,310.4,511,315.1,516.8,315.1z M517.8,310.2c-0.5,0.2-1.1,0.3-1.8,0.3c-3.1,0-5.5-2.5-5.5-5.7
			c0-2,1-3.7,2.5-4.8l5.1,10L517.8,310.2z M522.7,304.4c0,1.9-0.9,3.5-2.3,4.5l-4.9-9.8c0.5-0.2,1.1-0.3,1.6-0.3
			C520.1,298.9,522.7,301.4,522.7,304.4z"/>
		<path class="st2" d="M583.8,299v56.2c-12.6-3.4-21.5-14.6-21.5-28C562.6,313.7,571.6,302.4,583.8,299z M617.8,339.8
			c-2.1,4.4-5.4,8.2-9.4,11c-4.6,3.3-10.2,5.2-16.3,5.3v-58.3c6.1,0.1,11.7,2,16.3,5.3v36.6H617.8z"/>
		<path class="st2" d="M693.7,312.4v42.5c-2.3,0.7-4.7,1.1-7.2,1.3h-2.7c-2.2-0.1-4.3-0.5-6.4-1v-32.3l-20.2,12.9
			c-0.8-2.7-1.3-5.6-1.3-8.6c-0.1-16.4,13.3-29.3,29.3-29.3c7.5,0,14.3,2.8,19.4,7.5L693.7,312.4z"/>
	</g>
</g>
</svg>
