<?xml version="1.0" encoding="utf-8"?>
<!-- Generator: Adobe Illustrator 16.0.0, SVG Export Plug-In . SVG Version: 6.00 Build 0)  -->
<!DOCTYPE svg PUBLIC "-//W3C//DTD SVG 1.1//EN" "http://www.w3.org/Graphics/SVG/1.1/DTD/svg11.dtd">
<svg version="1.1" id="レイヤー_1" xmlns="http://www.w3.org/2000/svg" xmlns:xlink="http://www.w3.org/1999/xlink" x="0px"
	 y="0px" width="967.269px" height="319.675px" viewBox="16.366 340.163 967.269 319.675"
	 enable-background="new 16.366 340.163 967.269 319.675" xml:space="preserve">
<g>
	<path fill="#999999" d="M120.284,427.438v37.528h83.633v5.729h-83.633c-0.563,27.998-6.388,52.21-17.554,72.622
		c16.189-9.808,31.217-4.835,45.09,14.883c16.2,23.263,36.182,34.889,59.972,34.889l-7.342,14.692
		c-25.833-1.499-45.688-15.033-59.561-40.606c-12.508-22.987-27.209-27.532-44.067-13.671
		c-15.645,23.403-39.104,41.138-70.378,53.243v-2.854c48.825-27.053,74.998-71.459,78.532-133.198H26.842v-5.729h78.332v-37.528
		H120.284z M104.782,577.17c0-2.992,1.036-5.566,3.151-7.749c2.114-2.183,4.738-3.258,7.864-3.258c2.999,0,5.567,1.074,7.743,3.258
		c2.185,2.183,3.276,4.757,3.276,7.749c0,3.144-1.092,5.744-3.276,7.864c-2.177,2.108-4.746,3.143-7.743,3.143
		c-3.125,0-5.75-1.034-7.864-3.143C105.818,582.914,104.782,580.313,104.782,577.17"/>
	<path fill="#999999" d="M235.941,607.78V429.898h48.353v5.694h-5.1c-11.962,19.728-12.03,41.692-0.203,65.903
		c6.394,13.874,9.492,30.395,9.291,49.569c-0.215,19.174-10.781,31.824-31.729,37.946v-3.271
		c11.006-7.206,16.871-18.896,17.553-35.093c0.681-16.182-2.596-31.681-9.808-46.501c-11.147-27.467-7.189-50.316,11.852-68.555
		h-25.518v165.459c-5.977-0.291-10.324,1.956-13.051,6.728L235.941,607.78L235.941,607.78z M397.527,607.78v-74.475h-7.964
		c-5.711,32.794-22.847,57.863-51.407,75.282l-1.621-1.628c20.934-20.12,33.235-44.685,36.922-73.654h-10.831
		c-13.177,31.836-32.492,54.746-57.915,68.758l-1.646-1.628c18.094-16.738,32.39-39.105,42.841-67.13h-13.874
		c-9.113,16.334-22.563,28.099-40.387,35.293l-1.635-1.615c17.4-13.076,28.9-31.293,34.48-54.683h-29.589v-5.705H415.68v5.705
		h-74.673c-1.628,5.441-3.602,10.539-5.907,15.3h77.114v73.452c-5.996-0.291-10.337,1.956-13.064,6.728H397.527z M386.097,502.316
		v-10.415h-65.073c-2.038,3.536-4.897,6.589-8.57,9.178h-2.847c3.382-10.604,2.783-21.901-1.843-33.867
		c-3.805-13.054-1.773-23.253,6.123-30.6h-6.747v-6.123h93.636v65.893c-5.965-0.266-10.319,1.704-13.058,5.933H386.097
		L386.097,502.316z M386.097,436.614h-66.493c-1.361,5.175-1.306,11.284,0.19,18.354h66.302L386.097,436.614L386.097,436.614z
		 M323.26,466c1.635,7.6,1.635,14.265,0,19.971h62.837V460.9h-64.674L323.26,466z"/>
	<path fill="#999999" d="M482.973,582.711c-10.593,0.633-19.308-2.562-26.155-9.593c-6.874-6.993-10.681-15.931-11.393-26.785
		c-0.737-10.831,0.828-20.524,4.704-29.047c3.875-8.543,9.485-15.665,16.814-21.369c7.314-5.731,16.032-9.72,26.06-12.029
		c10.072-2.285,18.935-3.017,26.66-2.12c7.674,0.896,15.551,2.664,23.555,5.263c8.003,2.626,14.517,7.069,19.565,13.355
		c5.024,6.287,8.507,13.178,10.439,20.652c1.942,7.497,2.246,15.828,0.947,24.993c-1.327,9.162-6.843,19.009-16.587,29.524
		c-9.745,10.541-23.922,17.735-42.564,21.608l-0.645-2.51c15.844-4.824,27.833-12.726,35.987-23.731
		c8.169-10.995,12.473-21.497,12.876-31.493c0.428-9.998-0.074-17.015-1.49-21.044c-1.411-4.038-3.509-8.33-6.286-12.888
		c-2.776-4.555-6.638-8.305-11.612-11.233c-4.972-2.941-9.996-5.061-15.097-6.363c-5.061-1.326-10.88-2.032-17.434-2.209
		c-6.525-0.151-13.783,1.138-21.748,3.862c-7.971,2.728-15.173,8.117-21.604,16.183c-6.457,8.067-9.871,18.822-10.294,32.29
		c-0.421,13.443,1.889,23.579,6.906,30.383c5.037,6.815,11.159,10.541,18.399,11.146c3.755-2.195,6.645-6.338,8.614-12.407
		l23.275-67.71l11.942,0.315l-24.994,71.017C498.884,578.305,492.598,582.296,482.973,582.711"/>
	<path fill="#999999" d="M815.037,608.588v-148.52h-24.274v-5.692h24.274v-28.566h14.706v28.566h22.228v5.692h-22.228v140.164
		c-5.997-0.277-10.339,2.513-13.066,8.356H815.037z M809.95,477.816c-8.444,11.713-8.697,25.713-0.82,42.035
		c4.62,19.313-0.607,33.046-15.703,41.214l-2.449-0.215c8.027-10.477,9.115-23.996,3.257-40.595
		c-7.069-18.202-2.651-32.441,13.254-42.628L809.95,477.816z M897.666,548.403c-3.672,25.573-18.896,44.547-45.695,56.929
		l-1.641-1.641c18.783-15.224,29.261-33.652,31.433-55.288H897.666L897.666,548.403z M867.473,483.749v-5.731h38.146v-17.951
		h-43.029v-5.692h57.926c7.473-12.522,11.713-21.7,12.647-27.557h17.547c-2.867,8.445-10.199,17.622-22.015,27.557h39.154v5.692
		h-47.524v17.951h40.988v5.731h-40.988v21.206h52.424v5.705h-52.424v89.571c-5.995-0.277-10.337,2.513-13.063,8.356h-1.643V510.66
		h-49.557v-5.705h49.557v-21.206H867.473L867.473,483.749z M863.384,529.848c0-2.729,0.996-5.102,2.978-7.146
		c1.969-2.044,4.38-3.055,7.222-3.055c2.752,0,5.123,1.011,7.168,3.055c2.021,2.045,3.055,4.418,3.055,7.146
		c0,2.852-1.035,5.275-3.055,7.245c-2.045,1.969-4.417,2.953-7.168,2.953c-2.842,0-5.253-0.984-7.222-2.953
		C864.38,535.124,863.384,532.7,863.384,529.848 M873.999,435.402c0-2.473,0.921-4.67,2.765-6.64
		c1.815-1.969,4.089-2.953,6.815-2.953c2.461,0,4.67,0.983,6.64,2.953c1.969,1.97,2.979,4.167,2.979,6.64
		c0,2.701-1.011,4.985-2.979,6.817c-1.971,1.841-4.18,2.751-6.64,2.751c-2.727,0-4.999-0.91-6.815-2.751
		C874.92,440.387,873.999,438.103,873.999,435.402 M927.053,548.403h15.905c2.157,21.636,12.383,40.064,30.598,55.288l-1.628,1.641
		C945.685,592.95,930.739,573.977,927.053,548.403 M961.313,529.848c0,2.852-0.998,5.275-2.955,7.245
		c-1.971,1.969-4.381,2.953-7.245,2.953c-2.726,0-5.111-0.984-7.133-2.953c-2.045-1.971-3.066-4.394-3.066-7.245
		c0-2.729,1.021-5.102,3.066-7.146c2.021-2.044,4.407-3.055,7.133-3.055c2.865,0,5.275,1.011,7.245,3.055
		C960.314,524.747,961.313,527.12,961.313,529.848 M837.467,481.386c11.688,6.552,14.959,15.681,9.758,27.367
		c-4.305,10.668-3.496,19.34,2.397,26.067l-1.791,0.125c-11.134-5.236-14.945-14.062-11.588-26.432
		c5.831-10.501,5.63-19.477-0.581-26.987L837.467,481.386z"/>
	<path fill="#999999" d="M598.856,438.861v-5.707h163.997v5.707h-80.356c-3.56,16.043-3.611,32.642-0.216,49.785h76.507v5.706
		h-75.282c1.628,6.387,3.675,12.926,6.122,19.591c7.485,33.45,4.002,61.195-10.414,83.222h86.518v5.72H595.979v-5.72h80.785
		c5.982-24.739,5.175-50.604-2.447-77.517c-2.577-8.709-4.267-17.142-5.076-25.296h-66.32v-5.706h65.893
		c-1.112-18.241,2.322-34.814,10.199-49.785H598.856L598.856,438.861z"/>
	<path fill="#999999" d="M764.344,381.325c-8.155,5.378-21.914,13.949-26.963,13.949c-4.57,0-8.079-8.117-10.111-14.353
		c-0.795,0.391-1.702,0.632-2.663,0.632c-1.363,0-2.6-0.468-3.609-1.236c-3.258,3.521-8.635,7.168-16.94,7.421
		c-10.478,0.303-20.174-21.774-24.262-32.515c-0.581,0.202-1.187,0.326-1.856,0.326c-0.719,0-1.402-0.138-2.045-0.366
		c-3.824,10.881-13.191,33.69-24.477,33.299c-7.988-0.265-13.96-4.442-17.747-8.191c-1.01,0.782-2.271,1.262-3.647,1.262
		c-0.947,0-1.844-0.241-2.627-0.632c-1.364,5.289-3.749,11.79-7.397,12.206c-4.33,0.48-16.65-6.148-23.528-10.086
		c-0.644,0.872-1.54,1.591-2.576,1.996c3.284,7.245,9.278,20.55,10.919,25.397c2.322,6.792,2.021,15.223,2.021,15.223H748.69
		c0,0-0.708-6.198,1.604-12.636c1.578-4.417,10.565-19.679,16.043-28.844C765.403,383.447,764.722,382.475,764.344,381.325
		 M625.087,422.502L625.087,422.502l-0.278,0.203c0,0-3.256-3.346-6.98-6.564c-3.697-3.218-8.369-5.983-10.362-8.658
		c-4.368-5.884-6.059-17.597-6.161-18.279l-0.037-0.063l0.024,0.013v-0.024l0.039,0.038c0.605,0.315,11.134,5.743,15.298,11.802
		c1.867,2.751,2.955,8.054,4.798,12.622c1.841,4.569,3.912,8.723,3.912,8.723L625.087,422.502z M649.803,421.946l-0.479,0.076
		c0,0-2.979-4-6.64-8.079c-3.673-4.088-8.862-8.155-10.378-11.107c-3.406-6.527-0.504-16.813-0.338-17.421l-0.027-0.051
		c0,0,0.027,0,0.04,0.026c0-0.026,0.024-0.05,0.024-0.05v0.064c0.706,0.493,12.748,9.026,15.739,15.588
		c1.338,2.979,0.492,7.75,0.972,12.22c0.493,4.468,1.54,8.685,1.54,8.685L649.803,421.946z M682.243,407.405
		c-2.26,5.933-3.635,11.637-3.635,11.637h-0.633h-0.05h-0.632c0,0-1.375-5.705-3.635-11.637c-2.249-5.933-6.515-12.068-6.64-16.184
		c-0.278-9.113,10.274-22.178,10.906-22.947v-0.078l0.013,0.041c0.014,0,0.037-0.041,0.037-0.041v0.078
		c0.633,0.769,11.185,13.833,10.907,22.947C688.758,395.338,684.491,401.473,682.243,407.405 M722.99,402.835
		c-1.553,2.953-6.716,7.019-10.376,11.107c-3.687,4.079-6.639,8.079-6.639,8.079l-0.507-0.076l-0.429-0.049
		c0,0,1.01-4.216,1.516-8.685c0.492-4.47-0.381-9.241,0.985-12.22c2.978-6.527,14.895-14.996,15.715-15.578l0.037-0.076l0.014,0.05
		c0.014-0.011,0.037-0.026,0.037-0.026l-0.023,0.051C723.521,386.122,726.35,396.346,722.99,402.835 M753.538,392.031
		c-0.051,0.605-1.073,11.687-5.174,17.064c-1.869,2.411-6.465,4.772-10.062,7.624c-3.597,2.854-6.728,5.832-6.728,5.832
		l-0.303-0.213l-0.266-0.19c0,0,1.879-3.837,3.471-8.09c1.59-4.229,2.398-9.216,4.141-11.714
		c3.876-5.542,14.301-10.087,14.896-10.339l0.024-0.05v0.025l0.025-0.014L753.538,392.031z"/>
	<path fill="#999999" d="M596.472,383.042c0.744-1.009,1.224-2.246,1.224-3.585c0-3.345-2.689-6.033-6.033-6.033
		c-3.333,0-6.011,2.688-6.011,6.033c0,3.32,2.677,6.035,6.011,6.035c0.782,0,1.527-0.179,2.232-0.455
		C594.931,384.633,595.827,383.927,596.472,383.042"/>
	<path fill="#999999" d="M770.048,373.424c-3.331,0-6.032,2.689-6.032,6.034c0,0.657,0.125,1.262,0.328,1.868
		c0.38,1.149,1.06,2.122,1.994,2.853c1.035,0.81,2.299,1.314,3.71,1.314c3.322,0,6.035-2.714,6.035-6.035
		C776.083,376.113,773.37,373.424,770.048,373.424"/>
	<path fill="#999999" d="M727.27,380.922c2.007-1.011,3.37-3.018,3.37-5.391c0-3.332-2.701-6.045-6.034-6.045
		c-3.331,0-6.034,2.714-6.034,6.045c0,1.956,0.959,3.699,2.426,4.786c1.01,0.769,2.246,1.236,3.609,1.236
		C725.566,381.553,726.475,381.313,727.27,380.922"/>
	<path fill="#999999" d="M633.671,380.291c1.452-1.112,2.387-2.816,2.387-4.76c0-3.332-2.714-6.045-6.033-6.045
		c-3.333,0-6.048,2.714-6.048,6.045c0,2.373,1.414,4.419,3.421,5.391c0.783,0.403,1.68,0.632,2.627,0.632
		C631.398,381.553,632.66,381.074,633.671,380.291"/>
	<path fill="#999999" d="M679.795,355.223c2.448-0.783,4.189-3.018,4.189-5.682c0-3.346-2.7-6.047-6.046-6.047
		c-3.321,0-6.02,2.701-6.02,6.047c0,2.601,1.666,4.796,3.977,5.629c0.642,0.241,1.325,0.379,2.044,0.379
		C678.608,355.549,679.214,355.424,679.795,355.223"/>
	<path fill="#999999" d="M321.398,618.587v-1.325h18.928v1.325h-7.966v30.193c-1.318-0.062-2.245,0.555-2.826,1.895h-0.366v-32.088
		H321.398z"/>
	<path fill="#999999" d="M344.902,650.498v-31.457h3.194v13.076c1.18-1.653,2.942-2.6,5.308-2.878
		c2.827-0.125,4.942,0.582,6.362,2.097c1.407,1.515,2.108,3.8,2.108,6.83v10.868c-1.281-0.037-2.234,0.555-2.827,1.816h-0.398
		v-12.685c0.044-2.74-0.398-4.747-1.269-6.034c-0.888-1.275-2.215-1.855-3.976-1.755c-2.015,0.253-3.774,1.692-5.308,4.342v13.963
		c-1.307-0.051-2.248,0.554-2.828,1.817L344.902,650.498L344.902,650.498z"/>
	<path fill="#999999" d="M367.099,640.021c0.114-3.485,1.004-6.186,2.653-8.055c1.646-1.842,3.779-2.765,6.404-2.765
		c2.5,0,4.557,0.77,6.159,2.299c1.578,1.527,2.463,3.672,2.676,6.398h-14.529c0.045,0.682,0.026,1.39-0.101,2.121
		c0.126,3.534,0.978,6.085,2.524,7.586c1.565,1.528,3.125,2.159,4.69,1.919c2.013-0.24,3.264-0.795,3.76-1.679
		c-0.263-0.127-0.566-0.328-0.888-0.606c-0.454-0.479-0.683-1.062-0.714-1.717c-0.025-0.656,0.203-1.236,0.657-1.742
		c0.479-0.429,1.074-0.68,1.729-0.68c0.694-0.013,1.25,0.188,1.73,0.643c0.487,0.469,0.745,1.036,0.795,1.719
		c0.063,0.681-0.128,1.425-0.569,2.208c-1.685,1.893-3.856,2.828-6.5,2.828c-2.5,0.226-4.873-0.481-7.113-2.172
		C368.216,646.66,367.099,643.883,367.099,640.021 M376.156,630.25c-1.193,0-2.342,0.632-3.44,1.881
		c-1.092,1.263-1.753,2.753-1.987,4.507h10.641c-0.032-1.615-0.511-3.055-1.465-4.392
		C378.972,630.918,377.723,630.25,376.156,630.25"/>
	<path fill="#999999" d="M405.964,650.675v-31.279h3.181v20.097l9.431-10.202h1.761l-7.688,8.345
		c2.372-0.253,4.154,1.047,5.301,3.938c0.978,5.39,3.055,8.016,6.273,7.864v3.081c-4.126,0.125-6.86-3.234-8.219-10.05
		c-0.769-2.926-2.29-4.115-4.549-3.559l-2.311,2.537v7.421c-1.292-0.062-2.245,0.545-2.815,1.806h-0.366V650.675z"/>
	<path fill="#999999" d="M432.86,621.516c0-0.684,0.227-1.265,0.7-1.756c0.468-0.468,1.047-0.72,1.761-0.72
		c0.682,0,1.262,0.253,1.754,0.72c0.487,0.491,0.727,1.072,0.727,1.756c0,0.704-0.24,1.285-0.727,1.766
		c-0.492,0.468-1.072,0.694-1.754,0.694c-0.714,0-1.294-0.227-1.761-0.694C433.086,622.802,432.86,622.22,432.86,621.516
		 M433.731,650.333v-21.042h3.172v19.211c-1.286-0.05-2.227,0.556-2.82,1.831H433.731z"/>
	<path fill="#999999" d="M460.793,650.498v-13.734c0-1.917-0.366-3.406-1.066-4.468c-0.72-1.073-1.969-1.591-3.762-1.591
		c-1.761,0-3.264,1.137-4.464,3.396v14.58c-1.42-0.05-2.423,0.554-3.01,1.817h-0.265v-21.208h3.276v2.211
		c1.042-1.25,2.506-1.906,4.463-1.982c2.771,0,4.828,0.555,6.135,1.691c1.338,1.137,2,2.98,2,5.555v11.917
		c-1.458-0.051-2.466,0.553-3.048,1.817h-0.259V650.498z"/>
	<path fill="#999999" d="M484.436,629.985h3.188v14.907c0,7.513-3.202,11.387-9.607,11.614c-3.73-0.179-6.303-1.086-7.692-2.776
		c-0.468-0.468-0.713-1.099-0.751-1.896c-0.019-0.808,0.184-1.388,0.662-1.793c0.486-0.391,0.999-0.579,1.578-0.554
		c0.568,0.023,1.104,0.277,1.558,0.757c0.456,0.429,0.67,1.01,0.627,1.716c-0.026,0.709-0.184,1.162-0.494,1.326
		c-0.056,0.743,0.441,1.249,1.502,1.551c0.304,0.254,1.306,0.406,3.01,0.431c4.146-0.228,6.268-3.46,6.42-9.67
		c-0.354,0.732-0.896,1.338-1.633,1.807c-0.836,0.528-2.173,0.92-4.016,1.146c-2.84,0-5.087-0.808-6.72-2.397
		c-1.647-1.565-2.493-3.889-2.493-6.929c0-3.181,0.846-5.644,2.493-7.423c1.633-1.779,3.88-2.639,6.72-2.639
		c1.843,0.229,3.181,0.732,4.016,1.489c0.77,0.733,1.304,1.3,1.633,1.692V629.985L484.436,629.985z M472.938,639.135
		c0.125,2.754,0.681,4.747,1.69,5.997c1.036,1.249,2.684,1.881,4.942,1.881c1.289-0.228,2.398-0.985,3.308-2.234
		c0.934-1.248,1.375-3.144,1.375-5.644c0-2.765-0.441-4.797-1.375-6.098c-0.91-1.298-2.02-2.057-3.308-2.284
		c-2.258,0-3.906,0.658-4.942,2.02C473.618,634.138,473.063,636.258,472.938,639.135"/>
	<path fill="#999999" d="M526.452,639.892c0,3.537-0.783,6.186-2.337,7.941c-1.552,1.754-3.8,2.625-6.777,2.625
		c-3.004,0-5.302-0.871-6.893-2.625c-1.615-1.756-2.398-4.404-2.398-7.941c0-3.481,0.783-6.12,2.398-7.926
		c1.591-1.816,3.889-2.728,6.893-2.728c2.978,0,5.226,0.911,6.777,2.728C525.669,633.772,526.452,636.411,526.452,639.892
		 M523.17,639.892c0-3.218-0.454-5.629-1.39-7.243c-0.933-1.629-2.41-2.436-4.442-2.436c-2.044,0-3.547,0.807-4.558,2.436
		c-0.996,1.614-1.502,4.025-1.502,7.243c0,3.31,0.507,5.732,1.502,7.323c1.011,1.565,2.514,2.373,4.558,2.373
		c2.032,0,3.51-0.808,4.442-2.398C522.716,645.599,523.17,643.165,523.17,639.892"/>
	<path fill="#999999" d="M535.969,653.678v-22.975h-3.345v-1.236h3.345v-3.889c0.102-4.495,2.941-6.489,8.508-6.021
		c0.632,0,1.186,0.226,1.614,0.669c0.455,0.429,0.682,0.96,0.682,1.539c0,0.62-0.227,1.137-0.682,1.565
		c-0.429,0.43-0.933,0.645-1.54,0.645c-0.604,0-1.136-0.215-1.565-0.645c-0.429-0.429-0.63-0.945-0.63-1.565
		c0-0.403,0.102-0.782,0.313-1.161c-2.259-0.328-3.369,1.313-3.369,4.975v3.888h7.826v1.236H539.3v21.182
		c-1.313-0.076-2.248,0.529-2.827,1.793H535.969L535.969,653.678z"/>
	<path fill="#999999" d="M585.502,631.928v2.36c-1.818-2.373-4.066-3.66-6.703-3.913c-1.83-0.038-3.167,0.203-4.015,0.745
		c-0.847,0.544-1.226,1.388-1.173,2.537c0.062,1.137,0.555,1.971,1.488,2.425c0.936,0.479,2.298,1.034,4.091,1.691
		c3.131,0.77,5.175,1.895,6.159,3.384c0.984,1.516,1.339,3.003,1.061,4.468c-0.265,1.465-0.958,2.501-2.02,3.156
		c-1.087,0.644-2.12,1.061-3.205,1.262c-1.023,0.179-2.387,0.266-4.039,0.229c-1.681-0.026-3.17-0.354-4.444-0.986
		c-1.3-0.631-2.146-1.313-2.55-2.008c-0.38-0.706-0.48-1.424-0.24-2.132c0.189-0.532,0.492-0.948,0.819-1.275
		c0.354-0.327,0.961-0.44,1.781-0.315c0.668,0.214,1.136,0.555,1.425,1.035c0.328,0.493,0.379,1.073,0.165,1.755
		c-0.127,0.417-0.303,0.745-0.569,1.009c0.43,0.771,1.503,1.301,3.157,1.654c1.667,0.327,2.991,0.252,3.99-0.202
		c0.983-0.454,1.74-1.136,2.296-2.021c0.568-0.908,0.593-1.994,0.077-3.243c-0.508-1.252-2.109-2.273-4.799-3.068
		c-2.068-0.593-3.798-1.262-5.199-2.021c-1.415-0.744-2.235-1.956-2.425-3.659c-0.177-1.667,0.392-3.031,1.716-4.065
		c1.339-1.061,3.497-1.54,6.452-1.439C581.917,629.494,584.163,630.376,585.502,631.928"/>
	<path fill="#999999" d="M610.167,639.892c0,3.537-0.756,6.186-2.322,7.941c-1.54,1.754-3.813,2.625-6.778,2.625
		c-3.004,0-5.289-0.871-6.88-2.625c-1.59-1.756-2.397-4.404-2.397-7.941c0-3.481,0.808-6.12,2.397-7.926
		c1.591-1.816,3.876-2.728,6.88-2.728c2.966,0,5.238,0.911,6.778,2.728C609.409,633.772,610.167,636.411,610.167,639.892
		 M606.911,639.892c0-3.218-0.48-5.629-1.39-7.243c-0.932-1.629-2.424-2.436-4.455-2.436c-2.033,0-3.547,0.807-4.546,2.436
		c-0.998,1.614-1.502,4.025-1.502,7.243c0,3.31,0.505,5.732,1.502,7.323c0.999,1.565,2.512,2.373,4.546,2.373
		c2.031,0,3.523-0.808,4.455-2.398C606.43,645.599,606.911,643.165,606.911,639.892"/>
	<path fill="#999999" d="M616.275,620.406v-1.287h5.302v29.523c-1.287-0.024-2.234,0.592-2.826,1.856h-0.354v-30.092
		L616.275,620.406L616.275,620.406z"/>
	<path fill="#999999" d="M630.061,640.021c0.127-3.485,1.009-6.186,2.65-8.055c1.667-1.842,3.813-2.765,6.413-2.765
		c2.524,0,4.57,0.77,6.161,2.299c1.59,1.527,2.474,3.672,2.674,6.398H633.43c0.063,0.682,0.014,1.39-0.088,2.121
		c0.102,3.534,0.96,6.085,2.525,7.586c1.566,1.528,3.131,2.159,4.682,1.919c2.008-0.24,3.244-0.795,3.749-1.679
		c-0.252-0.127-0.555-0.328-0.871-0.606c-0.467-0.479-0.682-1.062-0.719-1.717c-0.025-0.656,0.202-1.236,0.656-1.742
		c0.479-0.429,1.047-0.68,1.729-0.68c0.682-0.013,1.249,0.188,1.715,0.643c0.495,0.469,0.746,1.036,0.811,1.719
		c0.063,0.681-0.128,1.425-0.582,2.208c-1.665,1.893-3.838,2.828-6.488,2.828c-2.512,0.226-4.885-0.481-7.12-2.172
		C631.172,646.66,630.061,643.883,630.061,640.021 M639.124,630.25c-1.187,0-2.347,0.632-3.446,1.881
		c-1.099,1.263-1.754,2.753-1.981,4.507h10.641c-0.025-1.615-0.517-3.055-1.452-4.392
		C641.939,630.918,640.702,630.25,639.124,630.25"/>
	<path fill="#999999" d="M655.534,621.516c0-0.684,0.226-1.265,0.708-1.756c0.467-0.468,1.06-0.72,1.766-0.72
		c0.683,0,1.263,0.253,1.743,0.72c0.493,0.491,0.73,1.072,0.73,1.756c0,0.704-0.237,1.285-0.73,1.766
		c-0.48,0.468-1.061,0.694-1.743,0.694c-0.706,0-1.299-0.227-1.766-0.694C655.76,622.802,655.534,622.22,655.534,621.516
		 M656.417,650.333v-21.042h3.182v19.211c-1.287-0.05-2.236,0.556-2.828,1.831H656.417z"/>
	<path fill="#999999" d="M673.319,620.406v-1.287h5.289v29.523c-1.313-0.024-2.234,0.592-2.841,1.856h-0.339v-30.092
		L673.319,620.406L673.319,620.406z"/>
</g>
</svg>
