<?xml version="1.0" encoding="utf-8"?>
<!-- Generator: Adobe Illustrator 16.0.0, SVG Export Plug-In . SVG Version: 6.00 Build 0)  -->
<!DOCTYPE svg PUBLIC "-//W3C//DTD SVG 1.1//EN" "http://www.w3.org/Graphics/SVG/1.1/DTD/svg11.dtd">
<svg version="1.1" xmlns="http://www.w3.org/2000/svg" xmlns:xlink="http://www.w3.org/1999/xlink" x="0px" y="0px" width="500px"
	 height="500px" viewBox="0 0 500 500" enable-background="new 0 0 500 500" xml:space="preserve">
<g id="レイヤー_1">
</g>
<g id="レイヤー_6" display="none">
	<path display="inline" fill="#333333" d="M435,137.147c-13.595,6.072-28.177,10.162-43.55,11.944
		c15.638-9.371,27.714-24.217,33.387-41.967c-14.649,8.711-30.881,15.045-48.234,18.409c-13.857-14.78-33.585-23.95-55.426-23.95
		c-41.9,0-75.882,33.98-75.882,75.947c0,5.873,0.66,11.68,1.979,17.221c-63.081-3.167-119.036-33.322-156.497-79.313
		c-6.531,11.218-10.293,24.282-10.293,38.139c0,26.394,13.429,49.686,33.784,63.212c-12.438-0.396-24.152-3.827-34.377-9.502
		c0,0.331,0,0.726,0,0.992c0,36.75,26.127,67.433,60.886,74.428c-6.334,1.781-13.064,2.64-20.011,2.64
		c-4.882,0-9.632-0.461-14.25-1.321c9.665,30.156,37.69,52.061,70.882,52.723c-25.933,20.323-58.71,32.464-94.275,32.464
		c-6.102,0-12.173-0.331-18.112-1.056c33.585,21.577,73.523,34.112,116.414,34.112c139.555,0,215.962-115.67,215.962-215.964
		c0-3.364-0.064-6.598-0.263-9.897C411.971,165.784,424.837,152.388,435,137.147z"/>
</g>
<g id="レイヤー_5">
	<g>
		<g>
			<path fill="#333333" d="M182.761,227.326V274.2c0,0,45.488-0.05,64.053-0.05c-10.051,30.408-25.693,47.025-64.053,47.025
				c-38.874,0-69.233-31.54-69.233-70.413c0-38.923,30.359-70.36,69.233-70.36c20.512,0,33.796,7.231,45.95,17.231
				c9.795-9.693,8.975-11.128,33.796-34.515c-21.078-19.18-49.079-30.82-79.746-30.82c-65.49,0-118.517,53.026-118.517,118.464
				c0,65.387,53.027,118.466,118.517,118.466c97.747,0,121.695-85.181,113.747-141.902
				C273.38,227.326,182.761,227.326,182.761,227.326z M396.203,229.635v-41.029h-29.282v41.029h-42.259v29.283h42.259v42.258h29.282
				v-42.258h41.079v-29.283H396.203z"/>
		</g>
	</g>
</g>
<g id="レイヤー_4" display="none">
	<g display="inline">
		<g>
			<path fill="#333333" d="M168.937,289.353V99.59h91.705c42.448,0,63.597,16.335,63.597,48.85c0,11.726-3.226,21.043-9.729,27.957
				c-6.555,6.862-16.437,11.778-29.646,14.746v0.564c13.518,0.973,24.578,5.121,33.23,12.494
				c8.703,7.373,13.058,17.716,13.058,31.031c0,9.523-1.792,17.765-5.225,24.781c-3.481,6.913-8.551,12.547-15.054,16.848
				c-6.606,4.197-14.54,7.373-23.86,9.421c-9.32,2.049-20.227,3.072-32.669,3.072H168.937z M213.638,134.922v39.375h39.12
				c16.333,0,24.475-6.554,24.475-19.764c0-7.528-1.944-12.699-5.939-15.465c-3.893-2.816-10.087-4.147-18.535-4.147H213.638z
				 M214.252,209.371v44.906h38.301c11.42,0,19.458-1.945,24.32-5.938c4.814-3.944,7.221-9.371,7.221-16.183
				c0-5.376-0.768-9.779-2.252-13.159c-1.538-3.378-3.942-5.735-7.272-7.322c-3.328-1.586-7.884-2.304-13.673-2.304H214.252z"/>
		</g>
		<g>
			<path fill="#333333" d="M169.603,381.061v-66.414h7.629v27.395h0.102c1.588-2.252,3.584-3.892,6.043-5.07
				c2.355-1.073,5.07-1.638,8.09-1.638c3.688,0,6.811,0.614,9.574,1.896c2.716,1.229,4.866,2.919,6.605,5.172
				c1.639,2.202,2.92,4.66,3.74,7.424c0.766,2.816,1.176,5.839,1.176,8.962c0,4.301-0.768,8.192-2.099,11.674
				c-1.435,3.532-3.788,6.399-7.016,8.551c-3.175,2.1-7.373,3.226-12.598,3.226c-1.688,0-3.429-0.256-5.222-0.767
				c-1.688-0.463-3.226-1.178-4.761-2.152c-1.382-1.023-2.611-2.202-3.586-3.532h0.052h-0.102v5.275H169.603z M204.472,358.786
				c0-4.815-1.178-8.858-3.432-12.135c-2.253-3.177-5.684-4.814-10.342-4.814c-2.766,0-5.273,0.819-7.322,2.406
				c-2.15,1.485-3.738,3.584-4.813,6.195c-1.075,2.612-1.641,5.376-1.641,8.348c0,4.863,1.078,8.907,3.432,12.084
				c2.254,3.226,5.685,4.812,10.345,4.812c4.658,0,8.089-1.586,10.342-4.812C203.294,367.693,204.472,363.649,204.472,358.786z"/>
			<path fill="#333333" d="M221.317,381.061v-66.414h7.629v66.414H221.317z"/>
			<path fill="#333333" d="M237.755,358.786c0-4.507,0.87-8.501,2.61-12.135c1.688-3.586,4.25-6.353,7.527-8.451
				c3.226-1.895,7.067-2.867,11.47-2.867c3.277,0,6.195,0.564,8.961,1.638c2.714,1.229,5.017,2.868,6.911,4.917
				c1.897,2.151,3.38,4.608,4.303,7.476c0.921,2.816,1.485,5.941,1.485,9.423c0,3.327-0.564,6.45-1.485,9.317
				c-0.923,2.817-2.405,5.274-4.303,7.424c-1.895,2.202-4.197,3.842-6.911,4.916c-2.766,1.229-5.684,1.793-8.961,1.793
				c-3.226,0-6.248-0.564-8.909-1.689c-2.715-1.126-4.968-2.817-6.862-4.967c-1.996-2.202-3.43-4.659-4.454-7.426
				C238.217,365.339,237.755,362.217,237.755,358.786z M245.844,358.786c0,2.917,0.359,5.631,1.229,8.192
				c0.77,2.662,2.151,4.812,4.251,6.655c2.048,1.691,4.711,2.561,8.038,2.561c3.277,0,6.041-0.869,8.038-2.561
				c2.049-1.844,3.482-3.993,4.251-6.655c0.769-2.562,1.179-5.275,1.179-8.192c0-2.202-0.205-4.252-0.615-6.299
				c-0.358-1.895-1.178-3.737-2.151-5.479c-0.973-1.639-2.354-3.021-4.097-4.096c-1.843-1.075-4.044-1.536-6.604-1.536
				c-2.562,0-4.711,0.461-6.504,1.536c-1.843,1.074-3.277,2.51-4.25,4.198c-1.021,1.74-1.688,3.637-2.099,5.686
				C246.1,354.74,245.844,356.788,245.844,358.786z"/>
			<path fill="#333333" d="M322.701,342.605v-6.145h7.579v44.955c0,5.379-1.28,10.19-3.993,14.338
				c-2.563,4.149-8.041,6.248-16.386,6.248c-5.786,0-10.601-1.332-14.338-3.945c-3.79-2.764-5.838-6.859-6.145-12.439h8.09
				c0,3.429,1.178,5.989,3.482,7.833c2.252,1.739,5.119,2.662,8.652,2.662c3.022,0,5.378-0.513,7.222-1.434
				c1.79-0.973,3.173-2.252,3.992-3.687c0.77-1.538,1.333-3.123,1.485-4.71c0.206-1.588,0.358-3.432,0.358-5.735v-6.35h-0.152
				c-2.202,2.714-4.455,4.762-6.812,6.095c-2.406,1.279-5.171,1.944-8.294,1.944c-2.202,0-4.354-0.307-6.658-1.126
				c-2.202-0.667-4.401-1.947-6.501-3.737c-2.151-1.793-3.893-4.25-5.122-7.271c-1.28-3.022-1.842-6.81-1.842-11.315
				c0-4.404,0.768-8.348,2.251-11.983c1.436-3.532,3.688-6.349,6.762-8.397c3.02-2.1,6.81-3.072,11.162-3.072
				c3.531,0,6.553,0.614,9.164,1.946c2.613,1.331,4.507,3.02,5.89,5.171L322.701,342.605z M308.468,341.837
				c-4.096,0-7.373,1.434-9.885,4.301c-2.457,2.816-3.687,7.067-3.687,12.648c0,2.303,0.258,4.506,0.873,6.553
				c0.614,2.1,1.534,3.942,2.661,5.531c1.229,1.534,2.664,2.764,4.403,3.532c1.639,0.869,3.532,1.279,5.634,1.279
				c2.814,0,5.272-0.819,7.475-2.354c2.151-1.638,3.841-3.687,5.019-6.248c1.126-2.662,1.74-5.426,1.74-8.603
				c-0.101-3.892-0.769-7.168-1.895-9.676c-1.229-2.508-2.816-4.198-4.915-5.326C313.895,342.4,311.386,341.837,308.468,341.837z"/>
		</g>
	</g>
</g>
<g id="レイヤー_3" display="none">
	<g display="inline">
		<path fill="#333333" d="M312.118,400.987H187.133c-48.447,0-87.933-39.468-87.933-87.919V188.083
			c0-48.577,39.485-88.045,87.933-88.045h124.985c48.575,0,87.98,39.469,87.98,88.045v124.985
			C400.099,361.52,360.693,400.987,312.118,400.987z M187.133,128.123c-33.017,0-59.833,26.88-59.833,59.961v124.985
			c0,33.017,26.816,59.834,59.833,59.834h124.985c33.079,0,59.96-26.817,59.96-59.834V188.083c0-33.081-26.881-59.961-59.96-59.961
			H187.133z"/>
		<path fill="#333333" d="M348.803,170.311c0,10.374-8.413,18.722-18.72,18.722c-10.375,0-18.788-8.348-18.788-18.722
			c0-10.372,8.413-18.785,18.788-18.785C340.39,151.526,348.803,159.939,348.803,170.311z"/>
		<path fill="#333333" d="M249.626,328.313c-42.884,0-77.734-34.853-77.734-77.736c0-42.949,34.851-77.797,77.734-77.797
			c42.947,0,77.8,34.848,77.8,77.797C327.426,293.46,292.573,328.313,249.626,328.313z M249.626,200.798
			c-27.39,0-49.714,22.328-49.714,49.778c0,27.385,22.324,49.716,49.714,49.716c27.451,0,49.781-22.331,49.781-49.716
			C299.407,223.126,277.077,200.798,249.626,200.798z"/>
	</g>
</g>
<g id="レイヤー_2" display="none">
	<path display="inline" fill="#333333" d="M320.822,198.976h-46.99c0-14.752,0-25.221,0-28.552c0-16.953,8.805-18.675,14.813-18.675
		c6.009,0,32.12,0,32.12,0V99.877c0,0-6.307,0-47.229,0c-55.437,0-63.585,40.568-63.585,66.979c0,4.461,0,16.18,0,32.12h-30.338
		v52.285h30.338c0,67.809,0,150.789,0,150.789h63.882c0,0,0-83.751,0-150.789h41.698L320.822,198.976z"/>
</g>
</svg>
