<?xml version="1.0" encoding="utf-8"?>
<!-- Generator: Adobe Illustrator 16.0.0, SVG Export Plug-In . SVG Version: 6.00 Build 0)  -->
<!DOCTYPE svg PUBLIC "-//W3C//DTD SVG 1.1//EN" "http://www.w3.org/Graphics/SVG/1.1/DTD/svg11.dtd">
<svg version="1.1" id="レイヤー_1" xmlns="http://www.w3.org/2000/svg" xmlns:xlink="http://www.w3.org/1999/xlink" x="0px"
	 y="0px" width="500px" height="500px" viewBox="0 0 500 500" enable-background="new 0 0 500 500" xml:space="preserve">
<g id="レイヤー_1_1_">
</g>
<g id="レイヤー_6" display="none">
	<path display="inline" fill="#333333" d="M435,137.147c-13.596,6.072-28.178,10.162-43.551,11.943
		c15.639-9.37,27.714-24.217,33.388-41.967c-14.649,8.711-30.882,15.045-48.234,18.409c-13.857-14.78-33.585-23.95-55.426-23.95
		c-41.9,0-75.882,33.98-75.882,75.947c0,5.873,0.66,11.68,1.979,17.221c-63.081-3.167-119.036-33.321-156.497-79.313
		c-6.53,11.218-10.293,24.282-10.293,38.139c0,26.395,13.43,49.687,33.784,63.212c-12.438-0.396-24.151-3.827-34.377-9.502
		c0,0.331,0,0.727,0,0.992c0,36.75,26.127,67.433,60.886,74.428c-6.334,1.781-13.063,2.641-20.011,2.641
		c-4.882,0-9.632-0.461-14.25-1.321c9.665,30.156,37.69,52.061,70.882,52.723c-25.933,20.323-58.71,32.464-94.274,32.464
		c-6.103,0-12.173-0.331-18.112-1.056c33.585,21.577,73.523,34.112,116.414,34.112c139.555,0,215.962-115.67,215.962-215.964
		c0-3.364-0.064-6.599-0.264-9.897C411.971,165.784,424.837,152.388,435,137.147z"/>
</g>
<g id="レイヤー_5">
	<g>
		<g>
			<path fill="#FFFFFF" d="M182.761,227.326V274.2c0,0,45.488-0.05,64.053-0.05c-10.051,30.408-25.692,47.024-64.053,47.024
				c-38.874,0-69.233-31.539-69.233-70.412c0-38.924,30.359-70.36,69.233-70.36c20.512,0,33.796,7.23,45.95,17.23
				c9.795-9.692,8.975-11.128,33.796-34.515c-21.078-19.18-49.079-30.82-79.746-30.82c-65.49,0-118.517,53.026-118.517,118.465
				c0,65.387,53.026,118.466,118.517,118.466c97.747,0,121.694-85.182,113.747-141.902
				C273.38,227.326,182.761,227.326,182.761,227.326z M396.202,229.635v-41.029h-29.281v41.028h-42.26v29.283h42.26v42.258h29.281
				v-42.258h41.079v-29.283L396.202,229.635L396.202,229.635z"/>
		</g>
	</g>
</g>
<g id="レイヤー_4" display="none">
	<g display="inline">
		<g>
			<path fill="#333333" d="M168.937,289.353V99.59h91.705c42.448,0,63.597,16.335,63.597,48.851c0,11.726-3.226,21.043-9.729,27.957
				c-6.556,6.861-16.438,11.777-29.646,14.746v0.563c13.519,0.974,24.578,5.121,33.23,12.494
				c8.703,7.373,13.058,17.716,13.058,31.031c0,9.522-1.792,17.765-5.225,24.781c-3.481,6.912-8.551,12.547-15.054,16.848
				c-6.606,4.197-14.54,7.373-23.86,9.421c-9.32,2.049-20.227,3.072-32.669,3.072L168.937,289.353L168.937,289.353z
				 M213.638,134.922v39.375h39.12c16.333,0,24.475-6.554,24.475-19.764c0-7.528-1.943-12.699-5.938-15.465
				c-3.894-2.816-10.087-4.147-18.535-4.147L213.638,134.922L213.638,134.922z M214.252,209.371v44.906h38.301
				c11.42,0,19.458-1.945,24.32-5.938c4.813-3.943,7.221-9.37,7.221-16.183c0-5.376-0.768-9.779-2.252-13.159
				c-1.538-3.378-3.942-5.734-7.272-7.322c-3.327-1.586-7.884-2.304-13.673-2.304H214.252z"/>
		</g>
		<g>
			<path fill="#333333" d="M169.603,381.061v-66.414h7.629v27.395h0.103c1.588-2.252,3.584-3.892,6.043-5.069
				c2.354-1.073,5.069-1.639,8.09-1.639c3.688,0,6.811,0.614,9.574,1.896c2.716,1.229,4.866,2.919,6.604,5.172
				c1.64,2.202,2.92,4.66,3.74,7.424c0.766,2.816,1.176,5.839,1.176,8.962c0,4.301-0.768,8.192-2.099,11.674
				c-1.436,3.532-3.788,6.399-7.017,8.552c-3.175,2.1-7.372,3.226-12.598,3.226c-1.688,0-3.429-0.256-5.222-0.767
				c-1.688-0.464-3.227-1.179-4.761-2.152c-1.383-1.023-2.611-2.202-3.587-3.532h0.053h-0.103v5.275h-7.627V381.061z
				 M204.472,358.786c0-4.814-1.178-8.857-3.432-12.135c-2.253-3.177-5.685-4.814-10.343-4.814c-2.766,0-5.272,0.819-7.321,2.406
				c-2.15,1.485-3.738,3.584-4.813,6.195s-1.641,5.376-1.641,8.348c0,4.863,1.078,8.907,3.432,12.084
				c2.254,3.227,5.686,4.813,10.346,4.813c4.657,0,8.089-1.586,10.342-4.813C203.294,367.693,204.472,363.649,204.472,358.786z"/>
			<path fill="#333333" d="M221.317,381.061v-66.414h7.629v66.414H221.317z"/>
			<path fill="#333333" d="M237.755,358.786c0-4.507,0.87-8.501,2.61-12.135c1.688-3.586,4.25-6.354,7.526-8.451
				c3.227-1.895,7.067-2.867,11.47-2.867c3.277,0,6.195,0.564,8.961,1.639c2.715,1.229,5.018,2.867,6.911,4.917
				c1.897,2.15,3.38,4.607,4.304,7.476c0.921,2.816,1.484,5.941,1.484,9.423c0,3.327-0.563,6.45-1.484,9.317
				c-0.924,2.816-2.405,5.273-4.304,7.424c-1.895,2.202-4.196,3.842-6.911,4.916c-2.766,1.229-5.684,1.793-8.961,1.793
				c-3.226,0-6.248-0.564-8.908-1.689c-2.716-1.126-4.969-2.816-6.862-4.967c-1.996-2.202-3.43-4.659-4.454-7.426
				C238.217,365.339,237.755,362.217,237.755,358.786z M245.844,358.786c0,2.917,0.359,5.631,1.229,8.192
				c0.771,2.662,2.151,4.812,4.252,6.654c2.048,1.691,4.711,2.562,8.037,2.562c3.277,0,6.041-0.869,8.038-2.562
				c2.05-1.844,3.482-3.992,4.251-6.654c0.77-2.563,1.18-5.275,1.18-8.192c0-2.202-0.205-4.252-0.615-6.299
				c-0.358-1.896-1.178-3.737-2.151-5.479c-0.973-1.639-2.354-3.021-4.097-4.096c-1.843-1.075-4.044-1.536-6.604-1.536
				c-2.562,0-4.711,0.461-6.504,1.536c-1.843,1.074-3.276,2.51-4.25,4.198c-1.021,1.74-1.688,3.637-2.099,5.686
				C246.1,354.74,245.844,356.788,245.844,358.786z"/>
			<path fill="#333333" d="M322.7,342.605v-6.146h7.579v44.955c0,5.379-1.279,10.19-3.993,14.338
				c-2.563,4.149-8.041,6.248-16.386,6.248c-5.786,0-10.601-1.332-14.338-3.944c-3.79-2.765-5.838-6.859-6.145-12.439h8.09
				c0,3.429,1.178,5.989,3.481,7.833c2.252,1.739,5.119,2.662,8.652,2.662c3.021,0,5.378-0.513,7.222-1.434
				c1.79-0.974,3.173-2.252,3.992-3.688c0.771-1.538,1.333-3.123,1.485-4.71c0.206-1.588,0.357-3.432,0.357-5.735v-6.35h-0.151
				c-2.202,2.714-4.455,4.762-6.813,6.095c-2.406,1.279-5.171,1.944-8.294,1.944c-2.202,0-4.354-0.307-6.658-1.126
				c-2.202-0.667-4.4-1.947-6.501-3.737c-2.15-1.793-3.893-4.25-5.121-7.271c-1.28-3.022-1.843-6.811-1.843-11.315
				c0-4.404,0.769-8.348,2.251-11.982c1.437-3.532,3.688-6.35,6.763-8.397c3.02-2.1,6.81-3.072,11.161-3.072
				c3.531,0,6.554,0.614,9.164,1.946c2.613,1.331,4.507,3.021,5.891,5.171L322.7,342.605z M308.468,341.837
				c-4.097,0-7.373,1.435-9.886,4.302c-2.456,2.815-3.687,7.066-3.687,12.647c0,2.303,0.258,4.506,0.873,6.553
				c0.614,2.101,1.534,3.942,2.661,5.531c1.229,1.534,2.664,2.765,4.402,3.532c1.64,0.869,3.532,1.279,5.635,1.279
				c2.813,0,5.271-0.819,7.475-2.354c2.151-1.638,3.841-3.687,5.02-6.248c1.126-2.662,1.739-5.426,1.739-8.603
				c-0.101-3.893-0.769-7.168-1.895-9.676c-1.229-2.509-2.816-4.198-4.915-5.326C313.895,342.4,311.386,341.837,308.468,341.837z"/>
		</g>
	</g>
</g>
<g id="レイヤー_3" display="none">
	<g display="inline">
		<path fill="#333333" d="M312.117,400.987H187.133c-48.447,0-87.933-39.468-87.933-87.919V188.083
			c0-48.577,39.484-88.045,87.933-88.045h124.984c48.575,0,87.98,39.469,87.98,88.045v124.985
			C400.099,361.52,360.693,400.987,312.117,400.987z M187.133,128.123c-33.017,0-59.833,26.88-59.833,59.961v124.985
			c0,33.017,26.816,59.834,59.833,59.834h124.984c33.079,0,59.96-26.817,59.96-59.834V188.083c0-33.081-26.881-59.961-59.96-59.961
			L187.133,128.123L187.133,128.123z"/>
		<path fill="#333333" d="M348.803,170.311c0,10.374-8.413,18.722-18.721,18.722c-10.375,0-18.787-8.348-18.787-18.722
			c0-10.372,8.412-18.785,18.787-18.785C340.39,151.526,348.803,159.939,348.803,170.311z"/>
		<path fill="#333333" d="M249.626,328.313c-42.884,0-77.734-34.854-77.734-77.736c0-42.949,34.852-77.797,77.734-77.797
			c42.946,0,77.8,34.848,77.8,77.797C327.426,293.46,292.573,328.313,249.626,328.313z M249.626,200.798
			c-27.391,0-49.714,22.328-49.714,49.778c0,27.385,22.323,49.716,49.714,49.716c27.451,0,49.78-22.331,49.78-49.716
			C299.406,223.126,277.077,200.798,249.626,200.798z"/>
	</g>
</g>
<g id="レイヤー_2" display="none">
	<path display="inline" fill="#333333" d="M320.822,198.976h-46.989c0-14.752,0-25.222,0-28.553
		c0-16.952,8.805-18.675,14.813-18.675c6.009,0,32.12,0,32.12,0V99.877c0,0-6.308,0-47.229,0c-55.438,0-63.585,40.568-63.585,66.979
		c0,4.461,0,16.18,0,32.12h-30.339v52.285h30.339c0,67.809,0,150.788,0,150.788h63.882c0,0,0-83.751,0-150.788h41.697
		L320.822,198.976z"/>
</g>
</svg>
