<?xml version="1.0" encoding="utf-8"?>
<!-- Generator: Adobe Illustrator 22.0.1, SVG Export Plug-In . SVG Version: 6.00 Build 0)  -->
<svg version="1.1" id="_x32_" xmlns="http://www.w3.org/2000/svg" xmlns:xlink="http://www.w3.org/1999/xlink" x="0px" y="0px"
	 viewBox="0 0 700 700" style="enable-background:new 0 0 700 700;" xml:space="preserve">
<style type="text/css">
	.st0{fill:#FFFFFF;}
</style>
<g>
	<path class="st0" d="M410,254.7c-7.3,0-13.2,5.9-13.2,13.2v61.7L345.7,260c-2.5-3.3-6.4-5.3-10.5-5.3c-1.4,0-2.8,0.2-4.2,0.7
		c-5.4,1.8-9,6.8-9,12.5v99.7c0,7.3,5.8,13.2,13.1,13.2c7.3,0,13.2-5.9,13.2-13.2v-61.7l51.1,69.6c2.5,3.3,6.4,5.3,10.5,5.3
		c1.4,0,2.8-0.2,4.2-0.7c5.4-1.8,9-6.8,9-12.5l0.1-99.7C423.2,260.6,417.3,254.7,410,254.7z"/>
	<path class="st0" d="M290,254.7c-7.2,0-13.1,5.9-13.1,13.2v99.7c0,7.3,5.8,13.2,13.1,13.2c7.2,0,13.1-5.9,13.1-13.2v-99.7
		C303.1,260.6,297.2,254.7,290,254.7z"/>
	<path class="st0" d="M251.6,354.4h-36.7v-86.5c0-7.3-5.9-13.2-13.2-13.2c-7.2,0-13.1,5.9-13.1,13.2v99.7c0,7.3,5.8,13.2,13.1,13.2
		h49.9c7.2,0,13.1-5.9,13.1-13.2C264.7,360.3,258.9,354.4,251.6,354.4z"/>
	<path class="st0" d="M503.8,281.2c7.2,0,13.1-5.9,13.1-13.2s-5.8-13.2-13.1-13.2h-49.9c-7.2,0-13.1,5.9-13.1,13.2v49.8v49.8
		c0,7.3,5.9,13.2,13.1,13.2h49.9c7.2,0,13.1-5.9,13.1-13.2c0-7.3-5.9-13.2-13.1-13.2h-36.7v-23.5h36.7c7.2,0,13.1-5.8,13.1-13.1
		s-5.8-13.2-13.1-13.2l-36.7,0.1v-23.5H503.8z"/>
	<path class="st0" d="M571.6,3.4L129.4,2.8C59.9,2.7,3.6,59,3.5,128.4L2.8,570.6c-0.1,69.5,56.2,125.9,125.6,126l442.2,0.6
		c69.5,0.1,125.8-56.1,125.9-125.6l0.6-442.2C697.3,59.9,641,3.5,571.6,3.4z M548.8,440.5c-53.1,61.1-171.7,135.4-198.7,146.8
		s-23-7.2-21.9-13.6c0.6-3.8,3.6-21.6,3.6-21.6c0.9-6.5,1.8-16.5-0.8-22.9c-2.9-7.1-14.1-10.7-22.3-12.5
		c-121.6-16-211.5-101-211.5-202.4c0-113.1,113.4-205.2,252.8-205.2c139.5,0,252.9,92.1,252.9,205.2
		C602.9,359.6,585.3,400.3,548.8,440.5z"/>
</g>
</svg>
