<?xml version="1.0" encoding="utf-8"?>
<!-- Generator: Adobe Illustrator 22.0.1, SVG Export Plug-In . SVG Version: 6.00 Build 0)  -->
<svg version="1.1" id="_x32_" xmlns="http://www.w3.org/2000/svg" xmlns:xlink="http://www.w3.org/1999/xlink" x="0px" y="0px"
	 viewBox="0 0 1000 1000" style="enable-background:new 0 0 1000 1000;" xml:space="preserve">
<style type="text/css">
	.st0{fill:#FF8FA4;}
</style>
<g>
	<path class="st0" d="M991.1,219.2c-4.1-20.7-13.3-40.3-26.8-56.8c-2.7-3.5-5.6-6.5-8.7-9.7c-24-24.1-57.4-38-91.6-38H136.1
		c-34.6,0-67.2,13.5-91.6,38c-3.1,3.1-6,6.2-8.8,9.8C22.2,179,13,198.5,9,219.3c-1.7,8.2-2.5,16.6-2.5,25.1v511.1
		c0,17.8,3.6,35.1,10.8,51.6c6.2,14.6,15.6,28.5,27.2,40.1c2.9,2.9,5.8,5.6,8.9,8.2c23.2,19.2,52.6,29.8,82.7,29.8h727.7
		c30.3,0,59.7-10.6,82.8-30c3.1-2.5,6-5.1,8.8-8c11.2-11.2,20.1-24.1,26.5-38.3l0.8-2c7-16.1,10.6-33.4,10.6-51.3V244.4
		C993.5,236,992.7,227.5,991.1,219.2z M73.6,197.5c1.8-2.7,4.2-5.4,7.2-8.4c14.8-14.8,34.5-23,55.3-23h727.7c21,0,40.7,8.2,55.4,23
		c2.5,2.6,4.9,5.4,7.1,8.2l5.6,7.5L543.4,543.4c-12,10.5-27.4,16.3-43.4,16.3c-15.9,0-31.3-5.8-43.4-16.3l-388-338.5L73.6,197.5z
		 M58.1,760.1c-0.2-1.4-0.3-2.9-0.3-4.5V255l301.4,263L60.9,778.2L58.1,760.1z M902.7,823.5c-11.7,6.7-25.1,10.3-38.8,10.3H136.1
		c-13.7,0-27.2-3.6-38.8-10.3l-12.2-7.1l308.3-268.7l33.8,29.4c20.3,17.6,46.1,27.3,72.8,27.3c26.8,0,52.7-9.7,72.9-27.3l33.8-29.4
		l308.2,268.7L902.7,823.5z M942.2,755.6c0,1.5,0,3.1-0.2,4.4l-2.7,18.3L640.7,518.1l301.4-263L942.2,755.6L942.2,755.6L942.2,755.6
		z"/>
</g>
</svg>
