<?xml version="1.0" encoding="utf-8"?>
<!-- Generator: Adobe Illustrator 22.0.1, SVG Export Plug-In . SVG Version: 6.00 Build 0)  -->
<svg version="1.1" id="_x32_" xmlns="http://www.w3.org/2000/svg" xmlns:xlink="http://www.w3.org/1999/xlink" x="0px" y="0px"
	 viewBox="0 0 512 512" style="enable-background:new 0 0 512 512;" xml:space="preserve">
<style type="text/css">
	.st0{opacity:0.8;}
	.st1{fill:#FF0000;}
	.st2{fill:#FFFFFF;}
</style>
<g id="XMLID_184_" class="st0">
	<path id="XMLID_182_" class="st1" d="M455.7,155c-4.8-18-18.9-32.3-36.8-37.1c-32.5-8.8-162.8-8.8-162.8-8.8s-130.3,0-162.8,8.8
		c-17.9,4.8-32.1,19-36.8,37.1c-8.7,32.7-8.7,101-8.7,101s0,68.2,8.7,101c4.8,18,18.9,32.3,36.8,37.1c32.5,8.8,162.8,8.8,162.8,8.8
		s130.3,0,162.8-8.8c17.9-4.8,32.1-19,36.8-37.1c8.7-32.7,8.7-101,8.7-101S464.4,187.8,455.7,155z"/>
	<polygon id="XMLID_1355_" class="st2" points="213.4,318 322.3,256 213.4,194 	"/>
</g>
</svg>
