<?xml version="1.0" encoding="utf-8"?>
<!-- Generator: Adobe Illustrator 22.0.1, SVG Export Plug-In . SVG Version: 6.00 Build 0)  -->
<svg version="1.1" id="_x32_" xmlns="http://www.w3.org/2000/svg" xmlns:xlink="http://www.w3.org/1999/xlink" x="0px" y="0px"
	 viewBox="0 0 512 512" style="enable-background:new 0 0 512 512;" xml:space="preserve">
<style type="text/css">
	.st0{opacity:0.7;}
	.st1{fill:#FFFFFF;}
</style>
<g class="st0">
	<path class="st1" d="M256,10C120.1,10,10,120.1,10,256c0,135.9,110.1,246,246,246c135.9,0,246-110.1,246-246
		C502,120.1,391.9,10,256,10z M347.3,258.8L209,341.4c-1,0.6-2.3,0.6-3.3,0c-1-0.6-1.6-1.6-1.6-2.8V256v-82.6c0-1.2,0.6-2.3,1.6-2.8
		c1-0.6,2.3-0.6,3.3,0l138.4,82.6c1,0.6,1.6,1.7,1.6,2.8C348.9,257.1,348.3,258.2,347.3,258.8z"/>
</g>
</svg>
