<?xml version="1.0" encoding="utf-8"?>
<!-- Generator: Adobe Illustrator 16.0.0, SVG Export Plug-In . SVG Version: 6.00 Build 0)  -->
<!DOCTYPE svg PUBLIC "-//W3C//DTD SVG 1.1//EN" "http://www.w3.org/Graphics/SVG/1.1/DTD/svg11.dtd">
<svg version="1.1" id="レイヤー_1" xmlns="http://www.w3.org/2000/svg" xmlns:xlink="http://www.w3.org/1999/xlink" x="0px"
	 y="0px" width="500px" height="500px" viewBox="0 0 500 500" enable-background="new 0 0 500 500" xml:space="preserve">
<circle opacity="0.9" fill="#DF2F6D" enable-background="new    " cx="250" cy="250" r="243.75"/>
<g id="レイヤー_1_1_">
</g>
<g id="レイヤー_6" display="none">
	<path display="inline" fill="#333333" d="M435,137.147c-13.595,6.072-28.177,10.162-43.55,11.943
		c15.638-9.37,27.714-24.217,33.387-41.967c-14.648,8.711-30.881,15.045-48.232,18.409c-13.857-14.78-33.587-23.95-55.428-23.95
		c-41.899,0-75.882,33.98-75.882,75.947c0,5.873,0.66,11.68,1.979,17.221c-63.081-3.167-119.036-33.321-156.497-79.313
		c-6.531,11.218-10.293,24.282-10.293,38.139c0,26.395,13.429,49.687,33.784,63.212c-12.438-0.396-24.152-3.827-34.377-9.502
		c0,0.331,0,0.727,0,0.992c0,36.75,26.127,67.433,60.886,74.428c-6.334,1.781-13.064,2.642-20.011,2.642
		c-4.882,0-9.632-0.461-14.25-1.322c9.665,30.156,37.69,52.062,70.882,52.724c-25.933,20.323-58.71,32.464-94.275,32.464
		c-6.102,0-12.173-0.331-18.112-1.056c33.585,21.577,73.523,34.111,116.414,34.111c139.557,0,215.962-115.669,215.962-215.963
		c0-3.364-0.063-6.599-0.263-9.897C411.971,165.784,424.837,152.388,435,137.147z"/>
</g>
<g id="レイヤー_5" display="none">
	<g display="inline">
		<g>
			<path fill="#333333" d="M164.817,221.193v59.141c0,0,57.392-0.063,80.814-0.063c-12.68,38.364-32.416,59.33-80.814,59.33
				c-49.047,0-87.35-39.794-87.35-88.838c0-49.108,38.303-88.773,87.35-88.773c25.88,0,42.64,9.124,57.975,21.741
				c12.358-12.229,11.323-14.041,42.64-43.546c-26.594-24.199-61.923-38.887-100.614-38.887
				c-82.627,0-149.531,66.902-149.531,149.466c0,82.496,66.904,149.465,149.531,149.465c123.325,0,153.541-107.472,143.512-179.036
				C279.148,221.193,164.817,221.193,164.817,221.193z M434.113,224.105V172.34h-36.945v51.766h-53.316v36.946h53.316v53.315h36.945
				v-53.315h51.828v-36.946H434.113z"/>
		</g>
	</g>
</g>
<g id="レイヤー_4" display="none">
	<g display="inline">
		<g>
			<path fill="#333333" d="M168.937,289.354V99.59h91.706c42.447,0,63.598,16.335,63.598,48.851c0,11.726-3.227,21.043-9.729,27.957
				c-6.555,6.862-16.437,11.777-29.646,14.746v0.563c13.518,0.974,24.577,5.121,33.229,12.494
				c8.703,7.373,13.06,17.716,13.06,31.031c0,9.522-1.793,17.765-5.226,24.782c-3.48,6.912-8.552,12.547-15.055,16.848
				c-6.605,4.197-14.54,7.373-23.859,9.421c-9.32,2.049-20.228,3.071-32.67,3.071H168.937L168.937,289.354z M213.638,134.922v39.375
				h39.12c16.333,0,24.475-6.554,24.475-19.764c0-7.528-1.942-12.699-5.938-15.465c-3.895-2.816-10.087-4.147-18.535-4.147
				L213.638,134.922L213.638,134.922z M214.252,209.371v44.906h38.301c11.42,0,19.458-1.945,24.32-5.938
				c4.814-3.943,7.221-9.37,7.221-16.183c0-5.376-0.768-9.779-2.252-13.159c-1.537-3.378-3.941-5.734-7.271-7.322
				c-3.327-1.586-7.885-2.304-13.674-2.304H214.252z"/>
		</g>
		<g>
			<path fill="#333333" d="M169.603,381.061v-66.413h7.629v27.395h0.102c1.588-2.252,3.584-3.892,6.043-5.069
				c2.355-1.072,5.07-1.639,8.09-1.639c3.688,0,6.811,0.614,9.574,1.896c2.716,1.229,4.866,2.919,6.605,5.172
				c1.639,2.201,2.92,4.659,3.74,7.424c0.766,2.815,1.176,5.839,1.176,8.962c0,4.301-0.768,8.192-2.099,11.674
				c-1.435,3.532-3.788,6.399-7.016,8.552c-3.175,2.101-7.373,3.227-12.598,3.227c-1.688,0-3.429-0.256-5.222-0.768
				c-1.688-0.464-3.226-1.179-4.761-2.151c-1.382-1.023-2.611-2.202-3.586-3.532h0.052h-0.102v5.274h-7.627V381.061z
				 M204.472,358.786c0-4.814-1.178-8.857-3.432-12.135c-2.253-3.178-5.684-4.814-10.342-4.814c-2.766,0-5.273,0.819-7.322,2.406
				c-2.15,1.484-3.738,3.584-4.813,6.195c-1.075,2.61-1.641,5.376-1.641,8.348c0,4.863,1.078,8.907,3.432,12.084
				c2.254,3.227,5.685,4.813,10.345,4.813c4.658,0,8.089-1.586,10.342-4.813C203.294,367.693,204.472,363.649,204.472,358.786z"/>
			<path fill="#333333" d="M221.317,381.061v-66.413h7.629v66.413H221.317z"/>
			<path fill="#333333" d="M237.755,358.786c0-4.507,0.87-8.501,2.61-12.135c1.688-3.586,4.25-6.354,7.527-8.451
				c3.226-1.896,7.067-2.867,11.469-2.867c3.277,0,6.195,0.564,8.962,1.639c2.714,1.229,5.017,2.867,6.911,4.917
				c1.896,2.15,3.38,4.607,4.303,7.477c0.921,2.815,1.484,5.94,1.484,9.423c0,3.327-0.563,6.45-1.484,9.316
				c-0.923,2.816-2.405,5.273-4.303,7.425c-1.896,2.202-4.197,3.842-6.911,4.916c-2.767,1.229-5.685,1.793-8.962,1.793
				c-3.227,0-6.248-0.564-8.908-1.689c-2.715-1.126-4.968-2.815-6.862-4.967c-1.996-2.202-3.43-4.659-4.454-7.426
				C238.217,365.339,237.755,362.217,237.755,358.786z M245.844,358.786c0,2.917,0.359,5.631,1.229,8.191
				c0.77,2.662,2.151,4.813,4.251,6.654c2.048,1.691,4.711,2.563,8.037,2.563c3.277,0,6.041-0.869,8.039-2.563
				c2.049-1.844,3.48-3.992,4.25-6.654c0.77-2.563,1.18-5.274,1.18-8.191c0-2.202-0.205-4.252-0.615-6.299
				c-0.357-1.896-1.178-3.737-2.15-5.479c-0.974-1.639-2.354-3.021-4.098-4.096c-1.843-1.075-4.044-1.536-6.604-1.536
				c-2.563,0-4.711,0.461-6.504,1.536c-1.844,1.074-3.277,2.51-4.25,4.198c-1.021,1.739-1.688,3.637-2.099,5.686
				C246.1,354.74,245.844,356.788,245.844,358.786z"/>
			<path fill="#333333" d="M322.701,342.605v-6.146h7.578v44.955c0,5.379-1.279,10.19-3.992,14.338
				c-2.563,4.149-8.041,6.248-16.387,6.248c-5.785,0-10.602-1.332-14.338-3.944c-3.789-2.765-5.838-6.858-6.146-12.438h8.09
				c0,3.429,1.178,5.989,3.482,7.833c2.252,1.739,5.119,2.662,8.651,2.662c3.021,0,5.377-0.514,7.223-1.435
				c1.79-0.974,3.173-2.253,3.99-3.688c0.771-1.538,1.335-3.123,1.485-4.71c0.206-1.588,0.358-3.433,0.358-5.735v-6.35h-0.152
				c-2.201,2.714-4.455,4.762-6.813,6.095c-2.405,1.279-5.171,1.944-8.294,1.944c-2.202,0-4.354-0.309-6.657-1.126
				c-2.202-0.667-4.401-1.947-6.502-3.737c-2.15-1.793-3.894-4.25-5.121-7.271c-1.28-3.021-1.842-6.811-1.842-11.314
				c0-4.404,0.768-8.348,2.25-11.982c1.437-3.531,3.688-6.35,6.763-8.396c3.021-2.101,6.81-3.072,11.162-3.072
				c3.529,0,6.553,0.614,9.163,1.946c2.612,1.331,4.508,3.021,5.891,5.171L322.701,342.605z M308.468,341.837
				c-4.096,0-7.372,1.436-9.885,4.302c-2.457,2.815-3.687,7.066-3.687,12.647c0,2.303,0.258,4.506,0.873,6.553
				c0.612,2.102,1.532,3.942,2.659,5.531c1.229,1.534,2.664,2.765,4.403,3.532c1.64,0.869,3.532,1.278,5.634,1.278
				c2.814,0,5.271-0.818,7.476-2.354c2.15-1.638,3.842-3.688,5.02-6.248c1.126-2.662,1.74-5.426,1.74-8.604
				c-0.103-3.893-0.771-7.168-1.896-9.677c-1.229-2.508-2.815-4.197-4.916-5.325C313.895,342.4,311.386,341.837,308.468,341.837z"/>
		</g>
	</g>
</g>
<g id="レイヤー_3" display="none">
	<g display="inline">
		<path fill="#333333" d="M312.118,400.987H187.133c-48.447,0-87.933-39.469-87.933-87.919V188.083
			c0-48.577,39.485-88.045,87.933-88.045h124.985c48.575,0,87.979,39.469,87.979,88.045v124.985
			C400.1,361.52,360.693,400.987,312.118,400.987z M187.133,128.123c-33.017,0-59.833,26.88-59.833,59.961v124.985
			c0,33.017,26.816,59.834,59.833,59.834h124.985c33.079,0,59.96-26.817,59.96-59.834V188.083c0-33.081-26.881-59.961-59.96-59.961
			L187.133,128.123L187.133,128.123z"/>
		<path fill="#333333" d="M348.803,170.311c0,10.374-8.412,18.722-18.72,18.722c-10.375,0-18.788-8.348-18.788-18.722
			c0-10.372,8.413-18.785,18.788-18.785C340.391,151.526,348.803,159.939,348.803,170.311z"/>
		<path fill="#333333" d="M249.626,328.313c-42.884,0-77.734-34.854-77.734-77.735c0-42.949,34.851-77.797,77.734-77.797
			c42.947,0,77.8,34.848,77.8,77.797C327.426,293.46,292.573,328.313,249.626,328.313z M249.626,200.798
			c-27.39,0-49.714,22.328-49.714,49.778c0,27.385,22.324,49.716,49.714,49.716c27.451,0,49.781-22.331,49.781-49.716
			C299.407,223.126,277.077,200.798,249.626,200.798z"/>
	</g>
</g>
<g>
	<path fill="#FFFFFF" d="M166.616,173.144l15.791,0.001c6.284,0.001,12.89,0.001,12.89,8.057c0,7.895-6.767,7.895-12.89,7.895
		l-15.789-0.001l-0.001,26.747c0,6.122,0,12.888-8.056,12.889c-7.895,0-7.895-6.927-7.895-12.888l0-26.747l-16.434,0.001
		c-6.122-0.001-12.89,0-12.89-7.896c0-8.057,6.767-8.056,12.89-8.057l16.434-0.001v-43.823
		c-9.99,22.394-24.973,38.829-40.281,54.135c-6.282,6.284-13.212,12.245-18.688,12.244c-4.512,0.001-7.09-3.704-7.091-7.249
		c0-3.546,1.451-4.834,6.768-9.185c19.495-16.436,35.286-36.735,45.92-60.099h-36.574c-5.801,0.001-12.89,0.001-12.891-7.732
		c0-7.734,7.09-7.734,12.891-7.734h49.947l0.001-11.279c0-6.122,0-12.889,7.895-12.891c8.056,0,8.057,6.767,8.056,12.89l0,11.279
		h49.625c5.963,0,13.051,0.001,13.052,7.733c-0.001,7.735-7.09,7.734-13.051,7.734h-38.187
		c5.156,12.246,19.496,36.253,46.887,58.004c8.054,6.445,8.862,7.25,8.862,10.474c0,4.672-3.063,8.056-7.574,8.055
		c-6.605,0.002-16.112-8.86-20.139-12.728c-20.784-19.495-33.19-38.508-39.475-53.01L166.616,173.144z"/>
	<path fill="#FFFFFF" d="M394.446,208.754c0,13.212-9.669,15.145-13.534,15.145h-87.005c-4.352,0-13.535-2.417-13.535-15.145V98.547
		c0-11.44,7.574-15.146,13.534-15.145l87.007-0.002c6.443,0.001,13.533,4.028,13.531,15.146L394.446,208.754z M377.206,143.015
		v-37.381c0-2.257,0.001-5.639-5.156-5.64l-71.053,0.002c-4.029,0-4.189,2.254-4.189,4.671l-0.002,38.348H377.206z M296.808,158.483
		v44.148c0,1.934,0.32,5.478,5.154,5.478h69.605c4.997,0,5.639-2.256,5.639-6.123v-43.503H296.808z"/>
	<path fill="#FFFFFF" d="M149.698,401.3l0.001-54.461l-37.542,0.001c-3.062-0.001-16.434-0.968-16.434-16.436l-0.001-35.931
		c0-5.799,0-12.729,7.573-12.729c7.735,0,7.734,7.252,7.735,12.729l-0.002,31.259c0,3.062,0.482,5.317,4.35,5.317h34.32
		l-0.001-44.954c0-5.798,0-12.888,8.38-12.89c8.216,0.001,8.377,7.09,8.377,12.889l0,44.955l34.158-0.001
		c4.512,0,4.513-3.384,4.512-3.866v-33.677c0-6.282,0-12.89,8.216-12.89c8.057,0,8.217,6.604,8.218,12.89l0,39.153
		c0.001,13.214-10.794,14.18-14.339,14.179l-40.763-0.001l0,54.461h41.407c3.062-0.001,4.351-0.806,4.352-4.836l-0.002-33.19
		c0-6.12,0.001-12.888,7.897-12.889c8.056,0,8.056,7.089,8.056,12.888l0.001,39.798c0,10.15-6.285,14.179-14.825,14.178h-110.85
		c-4.028,0.001-13.857-1.609-13.858-14.982l0.001-38.509c0-5.642,0-12.729,7.896-12.729c7.894,0.002,7.894,6.444,7.893,12.729
		l0,32.223c0,2.738,0.322,5.319,4.511,5.318L149.698,401.3z"/>
	<path fill="#FFFFFF" d="M386.552,320.252c-1.451,30.938-2.578,54.945-15.791,78.63c-11.762,21.106-16.273,21.429-20.139,21.428
		c-2.418,0.001-4.674-1.933-5.479-2.74c-1.288-1.287-1.45-3.06-1.448-4.993c-20.625,3.707-56.231,6.605-65.256,6.605
		c-2.578,0-9.668,0-9.668-7.251c0-3.062,1.613-5.96,4.994-6.926c3.545-0.969,27.393-1.774,32.547-2.258l0.002-11.279h-20.303
		c-6.605-0.001-12.887-0.001-12.887-6.767c0-6.765,6.283-6.766,12.888-6.768h20.301l0.001-8.378l-23.362,0.001
		c-6.283,0-12.89-0.001-12.89-7.09c-0.002-7.09,6.605-7.09,12.889-7.09h23.363L306.313,347l-19.009,0.001
		c-7.252-0.002-11.604-6.124-11.604-9.507l-0.001-23.203c-0.001-3.222,4.189-9.506,11.603-9.504l8.219-0.002
		c-3.547-2.257-3.708-4.832-3.707-8.54l-8.057,0.001c-6.283-0.001-12.889,0-12.889-7.09c0-7.091,6.605-7.09,12.891-7.09h8.055
		c0-3.223,0-10.472,7.734-10.472c7.732-0.001,7.732,7.251,7.732,10.472l14.662,0.001c0.002-4.35,0.001-10.473,7.736-10.473
		c7.734,0,7.733,6.122,7.734,10.473h7.087c6.284-0.001,12.89-0.001,12.891,7.089c0.002,7.09-6.603,7.088-12.89,7.088l-7.088,0.003
		c0,4.509-0.322,6.604-3.061,8.539h9.184c2.256-0.002,7.25,0.805,10.312,5.96c1.61-5.96,5.64-5.961,12.568-5.961h4.993V285.61
		c0-5.8,0-12.889,7.732-12.89c7.735,0,7.736,7.089,7.735,12.89l0.002,19.174l18.688,0.001c4.027,0,7.09,3.544,8.539,7.088
		c1.289,2.9,1.289,15.146,1.289,19.495c0.001,23.04-0.48,56.392-4.025,72.343c-2.901,12.569-11.763,16.759-19.98,16.758
		c-7.41,0-19.98-1.128-19.98-9.99c0.002-4.35,3.547-7.734,7.574-7.735c1.289,0.002,7.09,1.292,8.54,1.291
		c5.962,0,8.376-4.512,9.185-9.345c2.415-12.89,3.225-42.696,3.223-56.554c-0.001-2.416,0-15.468-0.967-16.757
		c-0.646-0.806-1.611-1.129-3.705-1.128L386.552,320.252z M306.312,332.82v-13.857h-12.891c-3.219,0.002-4.186,0.646-4.186,3.707
		v6.444c0.001,3.222,0.965,3.706,4.188,3.705L306.312,332.82z M307.277,296.246c0.001,3.707-0.16,6.282-3.542,8.539h21.268
		c-2.901-1.934-3.063-4.028-3.063-8.54L307.277,296.246z M366.411,320.252c-7.09,0-8.861,0-11.439-3.223l-0.001,20.465
		c-0.001,3.382-4.349,9.505-11.44,9.506l-21.592-0.001v8.378l19.979,0.001c6.283-0.001,12.892-0.001,12.89,7.09
		c0.001,7.088-6.605,7.088-12.891,7.088l-19.977,0.001v8.379h16.756c6.606-0.001,12.89-0.001,12.891,6.766
		c0,6.768-6.283,6.767-12.889,6.769l-16.759-0.002l0.001,9.668c3.706-0.322,21.592-2.899,23.525-2.898
		c2.897,0,4.189,0.966,5.639,2.254c11.277-15.949,16.755-35.124,18.85-54.62c0.482-4.51,0.646-6.607,1.128-25.619H366.411z
		 M321.94,318.964l-0.002,13.857l14.021-0.002c3.383,0.001,4.35-0.481,4.349-3.706l-0.001-6.444c0-3.222-1.127-3.707-4.348-3.707
		L321.94,318.964z"/>
</g>
</svg>
