<?xml version="1.0" encoding="utf-8"?>
<!-- Generator: Adobe Illustrator 16.0.0, SVG Export Plug-In . SVG Version: 6.00 Build 0)  -->
<!DOCTYPE svg PUBLIC "-//W3C//DTD SVG 1.1//EN" "http://www.w3.org/Graphics/SVG/1.1/DTD/svg11.dtd">
<svg version="1.1" id="レイヤー_1" xmlns="http://www.w3.org/2000/svg" xmlns:xlink="http://www.w3.org/1999/xlink" x="0px"
	 y="0px" width="500px" height="500px" viewBox="0 0 500 500" enable-background="new 0 0 500 500" xml:space="preserve">
<circle opacity="0.9" fill="#969595" enable-background="new    " cx="250" cy="250" r="243.75"/>
<g id="レイヤー_1_1_">
</g>
<g id="レイヤー_6" display="none">
	<path display="inline" fill="#333333" d="M435,137.147c-13.595,6.072-28.177,10.162-43.55,11.941
		c15.638-9.368,27.714-24.217,33.387-41.967c-14.646,8.711-30.881,15.045-48.23,18.409c-13.857-14.78-33.589-23.95-55.43-23.95
		c-41.899,0-75.882,33.98-75.882,75.947c0,5.873,0.66,11.68,1.979,17.221c-63.081-3.167-119.036-33.319-156.497-79.313
		c-6.531,11.218-10.293,24.282-10.293,38.139c0,26.396,13.429,49.688,33.784,63.212c-12.438-0.396-24.152-3.827-34.377-9.502
		c0,0.331,0,0.729,0,0.992c0,36.75,26.127,67.433,60.886,74.428c-6.334,1.781-13.064,2.644-20.011,2.644
		c-4.882,0-9.632-0.461-14.25-1.322c9.665,30.156,37.69,52.062,70.882,52.724c-25.933,20.323-58.71,32.464-94.275,32.464
		c-6.102,0-12.173-0.331-18.112-1.056c33.585,21.577,73.523,34.111,116.414,34.111c139.559,0,215.962-115.669,215.962-215.963
		c0-3.364-0.063-6.601-0.263-9.897C411.971,165.784,424.837,152.388,435,137.147z"/>
</g>
<g id="レイヤー_5" display="none">
	<g display="inline">
		<g>
			<path fill="#333333" d="M164.817,221.193v59.141c0,0,57.392-0.063,80.814-0.063c-12.68,38.364-32.416,59.33-80.814,59.33
				c-49.047,0-87.35-39.794-87.35-88.838c0-49.108,38.303-88.773,87.35-88.773c25.88,0,42.64,9.124,57.975,21.741
				c12.358-12.229,11.323-14.041,42.64-43.546c-26.594-24.199-61.923-38.889-100.614-38.889
				c-82.627,0-149.531,66.902-149.531,149.468c0,82.496,66.904,149.465,149.531,149.465c123.325,0,153.542-107.474,143.512-179.036
				C279.148,221.193,164.817,221.193,164.817,221.193z M434.113,224.105V172.34h-36.945v51.768h-53.316v36.946h53.316v53.313h36.945
				v-53.313h51.828v-36.946L434.113,224.105L434.113,224.105z"/>
		</g>
	</g>
</g>
<g id="レイヤー_4" display="none">
	<g display="inline">
		<g>
			<path fill="#333333" d="M168.937,289.354V99.59h91.706c42.447,0,63.6,16.335,63.6,48.853c0,11.726-3.229,21.043-9.729,27.957
				c-6.555,6.862-16.437,11.775-29.646,14.746v0.563c13.518,0.976,24.577,5.121,33.229,12.494
				c8.703,7.373,13.062,17.716,13.062,31.031c0,9.521-1.793,17.765-5.228,24.782c-3.479,6.912-8.552,12.547-15.055,16.848
				c-6.604,4.197-14.54,7.373-23.857,9.421c-9.32,2.049-20.229,3.071-32.67,3.071L168.937,289.354L168.937,289.354z
				 M213.638,134.922v39.375h39.12c16.333,0,24.475-6.554,24.475-19.764c0-7.528-1.94-12.699-5.938-15.465
				c-3.895-2.816-10.087-4.147-18.535-4.147L213.638,134.922L213.638,134.922z M214.252,209.371v44.906h38.301
				c11.42,0,19.458-1.945,24.32-5.938c4.814-3.941,7.221-9.368,7.221-16.183c0-5.376-0.768-9.779-2.252-13.159
				c-1.537-3.378-3.941-5.732-7.271-7.322c-3.325-1.586-7.885-2.304-13.674-2.304H214.252z"/>
		</g>
		<g>
			<path fill="#333333" d="M169.603,381.061v-66.413h7.629v27.395h0.102c1.588-2.252,3.584-3.892,6.043-5.067
				c2.355-1.072,5.07-1.641,8.09-1.641c3.688,0,6.811,0.614,9.574,1.896c2.716,1.229,4.866,2.919,6.605,5.172
				c1.639,2.201,2.92,4.659,3.74,7.424c0.766,2.815,1.176,5.839,1.176,8.962c0,4.301-0.768,8.192-2.099,11.674
				c-1.435,3.532-3.788,6.399-7.016,8.554c-3.175,2.101-7.373,3.227-12.598,3.227c-1.688,0-3.429-0.256-5.222-0.768
				c-1.688-0.464-3.226-1.181-4.761-2.151c-1.382-1.023-2.611-2.202-3.586-3.532h0.052h-0.102v5.274h-7.627V381.061z
				 M204.472,358.786c0-4.813-1.178-8.855-3.432-12.135c-2.253-3.178-5.684-4.814-10.342-4.814c-2.766,0-5.273,0.819-7.322,2.406
				c-2.15,1.484-3.738,3.584-4.813,6.195c-1.075,2.608-1.641,5.376-1.641,8.348c0,4.863,1.078,8.907,3.432,12.084
				c2.254,3.229,5.685,4.813,10.345,4.813c4.658,0,8.089-1.586,10.342-4.813C203.294,367.693,204.472,363.649,204.472,358.786z"/>
			<path fill="#333333" d="M221.317,381.061v-66.413h7.629v66.413H221.317z"/>
			<path fill="#333333" d="M237.755,358.786c0-4.507,0.87-8.501,2.61-12.135c1.688-3.586,4.25-6.354,7.527-8.451
				c3.226-1.896,7.067-2.867,11.469-2.867c3.277,0,6.195,0.564,8.962,1.641c2.714,1.229,5.017,2.865,6.911,4.917
				c1.896,2.148,3.38,4.605,4.303,7.477c0.921,2.815,1.484,5.94,1.484,9.423c0,3.327-0.563,6.45-1.484,9.316
				c-0.923,2.814-2.405,5.271-4.303,7.425c-1.896,2.202-4.197,3.842-6.911,4.916c-2.767,1.229-5.685,1.793-8.962,1.793
				c-3.229,0-6.248-0.564-8.908-1.689c-2.715-1.126-4.968-2.813-6.862-4.967c-1.996-2.202-3.43-4.659-4.454-7.426
				C238.217,365.339,237.755,362.217,237.755,358.786z M245.844,358.786c0,2.917,0.359,5.631,1.229,8.191
				c0.77,2.662,2.151,4.813,4.251,6.652c2.048,1.691,4.711,2.563,8.037,2.563c3.277,0,6.041-0.869,8.039-2.563
				c2.049-1.844,3.479-3.99,4.25-6.652c0.77-2.563,1.18-5.274,1.18-8.191c0-2.202-0.205-4.252-0.615-6.299
				c-0.357-1.896-1.178-3.737-2.15-5.479c-0.974-1.639-2.354-3.021-4.098-4.096c-1.843-1.075-4.044-1.536-6.604-1.536
				c-2.563,0-4.711,0.461-6.504,1.536c-1.844,1.074-3.277,2.51-4.25,4.198c-1.021,1.739-1.688,3.637-2.099,5.686
				C246.1,354.74,245.844,356.788,245.844,358.786z"/>
			<path fill="#333333" d="M322.701,342.605v-6.146h7.578v44.955c0,5.379-1.279,10.19-3.992,14.338
				c-2.563,4.149-8.041,6.248-16.387,6.248c-5.785,0-10.604-1.332-14.338-3.942c-3.789-2.767-5.838-6.858-6.146-12.438h8.09
				c0,3.429,1.178,5.989,3.482,7.833c2.252,1.739,5.119,2.662,8.649,2.662c3.021,0,5.377-0.514,7.225-1.435
				c1.79-0.976,3.173-2.255,3.988-3.688c0.771-1.538,1.335-3.123,1.485-4.71c0.206-1.588,0.358-3.433,0.358-5.735v-6.35h-0.152
				c-2.201,2.714-4.455,4.762-6.813,6.095c-2.403,1.279-5.171,1.944-8.294,1.944c-2.2,0-4.354-0.309-6.655-1.126
				c-2.202-0.667-4.401-1.947-6.502-3.737c-2.15-1.793-3.896-4.25-5.121-7.271c-1.28-3.021-1.842-6.813-1.842-11.314
				c0-4.403,0.768-8.348,2.25-11.98c1.437-3.531,3.688-6.352,6.763-8.396c3.021-2.101,6.81-3.072,11.162-3.072
				c3.527,0,6.553,0.614,9.163,1.946c2.61,1.331,4.508,3.021,5.891,5.171L322.701,342.605z M308.468,341.837
				c-4.096,0-7.372,1.438-9.885,4.304c-2.457,2.813-3.687,7.064-3.687,12.646c0,2.303,0.258,4.506,0.873,6.553
				c0.61,2.104,1.53,3.942,2.657,5.531c1.229,1.534,2.664,2.767,4.403,3.532c1.64,0.869,3.532,1.278,5.634,1.278
				c2.814,0,5.271-0.818,7.478-2.354c2.148-1.638,3.842-3.688,5.02-6.248c1.126-2.662,1.74-5.426,1.74-8.604
				c-0.104-3.895-0.771-7.168-1.896-9.679c-1.229-2.508-2.813-4.195-4.916-5.323C313.895,342.4,311.386,341.837,308.468,341.837z"/>
		</g>
	</g>
</g>
<g id="レイヤー_3" display="none">
	<g display="inline">
		<path fill="#333333" d="M312.118,400.987H187.133c-48.447,0-87.933-39.469-87.933-87.919V188.083
			c0-48.577,39.485-88.045,87.933-88.045h124.985c48.575,0,87.979,39.469,87.979,88.045v124.985
			C400.1,361.52,360.693,400.987,312.118,400.987z M187.133,128.123c-33.017,0-59.833,26.88-59.833,59.961v124.985
			c0,33.017,26.816,59.834,59.833,59.834h124.985c33.079,0,59.96-26.817,59.96-59.834V188.083c0-33.081-26.881-59.961-59.96-59.961
			L187.133,128.123L187.133,128.123z"/>
		<path fill="#333333" d="M348.803,170.311c0,10.374-8.412,18.722-18.72,18.722c-10.375,0-18.788-8.348-18.788-18.722
			c0-10.372,8.413-18.785,18.788-18.785C340.391,151.526,348.803,159.939,348.803,170.311z"/>
		<path fill="#333333" d="M249.626,328.313c-42.884,0-77.734-34.854-77.734-77.735c0-42.949,34.851-77.797,77.734-77.797
			c42.947,0,77.8,34.848,77.8,77.797C327.426,293.46,292.573,328.313,249.626,328.313z M249.626,200.798
			c-27.39,0-49.714,22.328-49.714,49.778c0,27.385,22.324,49.716,49.714,49.716c27.451,0,49.781-22.331,49.781-49.716
			C299.407,223.126,277.077,200.798,249.626,200.798z"/>
	</g>
</g>
<g>
	<path fill="#FFFFFF" d="M141.667,271.269c-2.208,3.781-5.199,7.88-8.98,12.289c8.19,2.836,14.18,5.044,17.961,6.617
		c5.037,2.525,7.563,5.51,7.563,8.98c0,2.836-1.263,5.51-3.781,8.035c-1.891,1.573-3.781,2.363-5.672,2.363
		c-1.263,0-3.626-0.79-7.09-2.363c-10.716-5.361-18.596-8.825-23.633-10.398c-14.18,8.19-33.249,12.289-57.191,12.289
		c-6.617,0-9.926-2.998-9.926-8.98c0-5.361,3.464-8.19,10.398-8.508c11.654-0.311,19.689-0.783,24.105-1.418
		c-2.836-0.628-5.044-0.945-6.617-0.945c-7.563-0.945-12.134-2.201-13.707-3.781c-1.581-1.573-2.363-3.619-2.363-6.145
		c0-1.573,0.945-3.619,2.836-6.145l1.418-1.891H54.699c-5.989,0-8.98-2.991-8.98-8.98c0-5.672,2.991-8.508,8.98-8.508H79.75
		l2.363-2.836H68.878c-8.508,0.317-12.606-3.781-12.289-12.289v-11.344c-0.317-8.508,3.781-12.6,12.289-12.289h13.707v-2.836H57.062
		c-5.989,0-8.98-2.836-8.98-8.508c0-5.982,2.991-8.98,8.98-8.98h94.531c5.982,0,8.98,2.998,8.98,8.98
		c0,5.672-2.999,8.508-8.98,8.508h-24.105v2.836h13.707c8.508-0.311,12.599,3.781,12.289,12.289v11.344
		c0.31,8.508-3.781,12.606-12.289,12.289h-39.703c0.628,0.945,0.945,1.891,0.945,2.836h51.52c5.982,0,8.98,2.836,8.98,8.508
		c0,5.989-2.999,8.98-8.98,8.98H141.667z M82.585,230.621h-3.781c-1.263,0-1.891,0.635-1.891,1.891v0.945
		c0,1.263,0.628,1.891,1.891,1.891h3.781V230.621z M118.507,271.269H90.621l-2.836,3.309c5.354,0.635,13.39,1.891,24.105,3.781
		C114.409,276.469,116.617,274.105,118.507,271.269z M101.964,215.023h6.145v-2.836h-6.145V215.023z M108.109,230.621h-6.145v4.727
		h6.145V230.621z M127.488,230.621v4.727h3.781c1.255,0,1.891-0.628,1.891-1.891v-0.945c0-1.256-0.635-1.891-1.891-1.891H127.488z"
		/>
	<path fill="#FFFFFF" d="M235.821,255.672v30.25c0.31,8.508-3.781,12.6-12.289,12.289h-13.707
		c-8.198,0.311-12.289-3.781-12.289-12.289v-22.688c-5.362-2.201-8.035-5.672-8.035-10.398c0-1.573,1.101-4.254,3.309-8.035
		c5.354-9.136,8.508-19.062,9.453-29.777h-2.363c-6.617,0-9.926-3.309-9.926-9.926s3.309-9.926,9.926-9.926h30.25
		c4.409,0,7.4,1.418,8.98,4.254c1.573-0.628,3.937-0.945,7.09-0.945h13.707c1.574-5.354,4.564-8.035,8.98-8.035
		c6.301,0,9.764,2.681,10.398,8.035h13.234c8.818-0.311,13.072,3.943,12.762,12.762v7.09c0,6.307-3.471,9.453-10.398,9.453
		c-0.635,0-1.418,0-2.363,0c0,0.317-0.162,0.635-0.473,0.945l-0.473,1.891h4.254c5.982,0,8.98,2.836,8.98,8.508
		c0,5.989-2.998,8.98-8.98,8.98h-4.254v3.309h2.363c5.037,0,7.563,2.525,7.563,7.563c0,5.044-2.525,7.563-7.563,7.563h-2.363v3.309
		h2.363c5.037,0,7.563,2.525,7.563,7.563c0,5.044-2.525,7.563-7.563,7.563h-2.363v3.309h7.563c5.672,0,8.508,2.998,8.508,8.98
		c0,5.672-2.836,8.508-8.508,8.508h-44.43c-8.825,0.311-13.079-3.943-12.761-12.762V258.98
		C239.757,258.67,237.711,257.562,235.821,255.672z M215.969,278.359h1.418c0.945,0,1.418-0.473,1.418-1.418v-27.887
		c0-0.945-0.473-1.418-1.418-1.418h-1.418c-0.945,0-1.418,0.473-1.418,1.418v27.887
		C214.551,277.886,215.024,278.359,215.969,278.359z M235.821,240.547c4.727-4.409,8.818-9.291,12.289-14.652
		c-1.581,1.263-3.626,1.891-6.145,1.891c-5.989,0-8.98-2.674-8.98-8.035v-4.727c-0.945,0-1.891,0-2.836,0h-7.563
		c-0.317,4.727-0.945,8.98-1.891,12.762h2.836c8.508-0.311,12.599,3.781,12.289,12.289V240.547z M253.781,215.969h-0.945
		c-1.262,0-1.891,0.635-1.891,1.891v1.891c0,0.635,0,1.263,0,1.891C251.891,219.75,252.836,217.859,253.781,215.969z
		 M270.324,251.418v-3.309h-5.672c-1.262,0-1.891,0.635-1.891,1.891v1.418H270.324z M270.324,266.543h-7.563v3.309h7.563V266.543z
		 M270.324,284.976h-7.563v1.418c0,1.263,0.629,1.891,1.891,1.891h5.672V284.976z M268.434,230.621h3.781l2.363-6.617
		c1.256-3.781,3.938-5.672,8.035-5.672c0.629,0,1.256,0,1.891,0v-0.473c0-1.256-0.635-1.891-1.891-1.891h-7.563
		C273.471,219.75,271.27,224.638,268.434,230.621z"/>
	<path fill="#FFFFFF" d="M344.625,212.187h29.777c5.355,0,8.035,2.681,8.035,8.035c0,5.044-2.68,7.563-8.035,7.563h-29.777
		c-5.361,0-8.035-2.519-8.035-7.563C336.59,214.868,339.264,212.187,344.625,212.187z M405.598,257.09
		c0.629-5.672,3.619-8.508,8.98-8.508c0.629,0,1.418,0.162,2.363,0.473c-1.262-1.573-1.891-3.619-1.891-6.145
		c-0.635,0.317-1.107,0.473-1.418,0.473c-1.262,0-2.68-0.628-4.254-1.891c-7.252,8.508-13.551,12.762-18.906,12.762
		c-2.207,0-4.416-1.256-6.617-3.781c-1.58-2.201-2.363-4.564-2.363-7.09c0-3.146,2.047-5.982,6.145-8.508
		c1.574-1.256,2.992-2.363,4.254-3.309c-3.152-1.573-4.727-3.619-4.727-6.145c0-2.836,0.945-5.354,2.836-7.563
		c1.574-1.891,3.465-2.836,5.672-2.836c1.256,0,3.309,0.635,6.145,1.891c0.311-0.945,0.629-2.046,0.945-3.309h-9.926
		c-5.988,0-8.98-2.991-8.98-8.98c0-5.982,2.992-8.98,8.98-8.98h46.793c7.873-0.311,11.816,3.626,11.816,11.816v19.379
		c0,10.088-1.262,16.705-3.781,19.852c-2.525,3.781-7.252,5.672-14.18,5.672h-8.98c-1.262,0-2.363-0.155-3.309-0.473
		c6.617,5.361,9.926,9.453,9.926,12.289c0,2.208-0.945,4.254-2.836,6.145s-4.098,2.836-6.617,2.836c-1.58,0-3.152-0.628-4.727-1.891
		c-0.635-0.628-1.418-1.256-2.363-1.891v15.598c0,2.525,1.102,3.781,3.309,3.781h3.781c1.891,0,2.992-0.628,3.309-1.891l0.473-1.418
		c1.256-3.146,4.254-5.037,8.98-5.672c-0.945-2.519-1.734-4.882-2.363-7.09c-0.945-2.519-1.418-4.254-1.418-5.199
		c0-2.201,1.02-4.092,3.072-5.672c2.047-1.573,4.328-2.363,6.854-2.363c2.836,0,5.037,1.418,6.617,4.254
		c4.727,9.453,7.09,16.232,7.09,20.324c0,5.044-3.309,7.563-9.926,7.563c-0.316,0-0.789-0.155-1.418-0.473l-0.473,2.363
		c-1.58,8.508-6.779,12.917-15.598,13.234h-15.125c-10.398,0-15.598-4.889-15.598-14.652v-13.707
		c-2.525,11.979-5.988,17.961-10.398,17.961c-2.207,0-4.416-0.79-6.617-2.363v0.945c0.311,7.245-2.998,10.709-9.926,10.398h-19.379
		c-6.934,0.311-10.242-3.153-9.926-10.398v-17.961c-0.316-7.245,2.992-10.709,9.926-10.398h19.379
		c6.928-0.311,10.236,3.153,9.926,10.398v0.473c0.629-2.201,1.256-4.727,1.891-7.563c0.945-4.727,3.465-7.09,7.563-7.09
		c3.146,0,5.672,1.107,7.563,3.309c0.311-5.982,3.146-8.98,8.508-8.98H405.598z M347.461,231.094h24.578
		c4.727,0,7.09,2.363,7.09,7.09s-2.363,7.09-7.09,7.09h-24.578c-4.727,0-7.09-2.363-7.09-7.09S342.734,231.094,347.461,231.094z
		 M347.461,248.582h24.578c4.727,0,7.09,2.363,7.09,7.09s-2.363,7.09-7.09,7.09h-24.578c-4.727,0-7.09-2.363-7.09-7.09
		S342.734,248.582,347.461,248.582z M348.406,195.172h23.16c4.727,0,7.09,2.363,7.09,7.09s-2.363,7.09-7.09,7.09h-23.16
		c-4.727,0-7.09-2.363-7.09-7.09S343.68,195.172,348.406,195.172z M363.059,286.867v-2.363c0-1.573-0.789-2.363-2.363-2.363h-1.891
		c-1.58,0-2.363,0.79-2.363,2.363v2.363c0,1.58,0.783,2.363,2.363,2.363h1.891C362.27,289.23,363.059,288.447,363.059,286.867z
		 M418.359,225.894c3.146,2.208,4.727,4.416,4.727,6.617c0,0.635,0,1.107,0,1.418c0.629,0,1.102,0,1.418,0h2.836
		c2.201,0,3.619-0.473,4.254-1.418c0.311-0.628,0.473-2.363,0.473-5.199v-10.871c0-1.891-0.945-2.836-2.836-2.836h-7.563
		C420.723,218.649,419.615,222.748,418.359,225.894z"/>
</g>
</svg>
